<svg id="my-svg" width="100%" xmlns="http://www.w3.org/2000/svg" xmlns:xlink="http://www.w3.org/1999/xlink" class="flowchart" style="max-width: 2871.64px; background-color: white;" viewBox="0 0 2871.63623046875 118" role="graphics-document document" aria-roledescription="flowchart-v2"><style>#my-svg{font-family:"trebuchet ms",verdana,arial,sans-serif;font-size:16px;fill:#333;}@keyframes edge-animation-frame{from{stroke-dashoffset:0;}}@keyframes dash{to{stroke-dashoffset:0;}}#my-svg .edge-animation-slow{stroke-dasharray:9,5!important;stroke-dashoffset:900;animation:dash 50s linear infinite;stroke-linecap:round;}#my-svg .edge-animation-fast{stroke-dasharray:9,5!important;stroke-dashoffset:900;animation:dash 20s linear infinite;stroke-linecap:round;}#my-svg .error-icon{fill:#552222;}#my-svg .error-text{fill:#552222;stroke:#552222;}#my-svg .edge-thickness-normal{stroke-width:1px;}#my-svg .edge-thickness-thick{stroke-width:3.5px;}#my-svg .edge-pattern-solid{stroke-dasharray:0;}#my-svg .edge-thickness-invisible{stroke-width:0;fill:none;}#my-svg .edge-pattern-dashed{stroke-dasharray:3;}#my-svg .edge-pattern-dotted{stroke-dasharray:2;}#my-svg .marker{fill:#333333;stroke:#333333;}#my-svg .marker.cross{stroke:#333333;}#my-svg svg{font-family:"trebuchet ms",verdana,arial,sans-serif;font-size:16px;}#my-svg p{margin:0;}#my-svg .label{font-family:"trebuchet ms",verdana,arial,sans-serif;color:#333;}#my-svg .cluster-label text{fill:#333;}#my-svg .cluster-label span{color:#333;}#my-svg .cluster-label span p{background-color:transparent;}#my-svg .label text,#my-svg span{fill:#333;color:#333;}#my-svg .node rect,#my-svg .node circle,#my-svg .node ellipse,#my-svg .node polygon,#my-svg .node path{fill:#ECECFF;stroke:#9370DB;stroke-width:1px;}#my-svg .rough-node .label text,#my-svg .node .label text,#my-svg .image-shape .label,#my-svg .icon-shape .label{text-anchor:middle;}#my-svg .node .katex path{fill:#000;stroke:#000;stroke-width:1px;}#my-svg .rough-node .label,#my-svg .node .label,#my-svg .image-shape .label,#my-svg .icon-shape .label{text-align:center;}#my-svg .node.clickable{cursor:pointer;}#my-svg .root .anchor path{fill:#333333!important;stroke-width:0;stroke:#333333;}#my-svg .arrowheadPath{fill:#333333;}#my-svg .edgePath .path{stroke:#333333;stroke-width:1px;}#my-svg .flowchart-link{stroke:#333333;fill:none;}#my-svg .edgeLabel{background-color:rgba(232,232,232, 0.8);text-align:center;}#my-svg .edgeLabel p{background-color:rgba(232,232,232, 0.8);}#my-svg .edgeLabel rect{opacity:0.5;background-color:rgba(232,232,232, 0.8);fill:rgba(232,232,232, 0.8);}#my-svg .labelBkg{background-color:rgba(232, 232, 232, 0.5);}#my-svg .cluster rect{fill:#ffffde;stroke:#aaaa33;stroke-width:1px;}#my-svg .cluster text{fill:#333;}#my-svg .cluster span{color:#333;}#my-svg div.mermaidTooltip{position:absolute;text-align:center;max-width:200px;padding:2px;font-family:"trebuchet ms",verdana,arial,sans-serif;font-size:12px;background:hsl(80, 100%, 96.2745098039%);border:1px solid #aaaa33;border-radius:2px;pointer-events:none;z-index:100;}#my-svg .flowchartTitleText{text-anchor:middle;font-size:18px;fill:#333;}#my-svg rect.text{fill:none;stroke-width:0;}#my-svg .icon-shape,#my-svg .image-shape{background-color:rgba(232,232,232, 0.8);text-align:center;}#my-svg .icon-shape p,#my-svg .image-shape p{background-color:rgba(232,232,232, 0.8);padding:2px;}#my-svg .icon-shape .label rect,#my-svg .image-shape .label rect{opacity:0.5;background-color:rgba(232,232,232, 0.8);fill:rgba(232,232,232, 0.8);}#my-svg .label-icon{display:inline-block;height:1em;overflow:visible;vertical-align:-0.125em;}#my-svg .node .label-icon path{fill:currentColor;stroke:revert;stroke-width:revert;}#my-svg .node .neo-node{stroke:#9370DB;}#my-svg [data-look="neo"].node rect,#my-svg [data-look="neo"].cluster rect,#my-svg [data-look="neo"].node polygon{stroke:#9370DB;filter:drop-shadow(1px 2px 2px rgba(185, 185, 185, 1));}#my-svg [data-look="neo"].node path{stroke:#9370DB;stroke-width:1px;}#my-svg [data-look="neo"].node .outer-path{filter:drop-shadow(1px 2px 2px rgba(185, 185, 185, 1));}#my-svg [data-look="neo"].node .neo-line path{stroke:#9370DB;filter:none;}#my-svg [data-look="neo"].node circle{stroke:#9370DB;filter:drop-shadow(1px 2px 2px rgba(185, 185, 185, 1));}#my-svg [data-look="neo"].node circle .state-start{fill:#000000;}#my-svg [data-look="neo"].icon-shape .icon{fill:#9370DB;filter:drop-shadow(1px 2px 2px rgba(185, 185, 185, 1));}#my-svg [data-look="neo"].icon-shape .icon-neo path{stroke:#9370DB;filter:drop-shadow(1px 2px 2px rgba(185, 185, 185, 1));}#my-svg :root{--mermaid-font-family:"trebuchet ms",verdana,arial,sans-serif;}</style><g><marker id="my-svg_flowchart-v2-pointEnd" class="marker flowchart-v2" viewBox="0 0 10 10" refX="5" refY="5" markerUnits="userSpaceOnUse" markerWidth="8" markerHeight="8" orient="auto"><path d="M 0 0 L 10 5 L 0 10 z" class="arrowMarkerPath" style="stroke-width: 1; stroke-dasharray: 1, 0;"/></marker><marker id="my-svg_flowchart-v2-pointStart" class="marker flowchart-v2" viewBox="0 0 10 10" refX="4.5" refY="5" markerUnits="userSpaceOnUse" markerWidth="8" markerHeight="8" orient="auto"><path d="M 0 5 L 10 10 L 10 0 z" class="arrowMarkerPath" style="stroke-width: 1; stroke-dasharray: 1, 0;"/></marker><marker id="my-svg_flowchart-v2-pointEnd-margin" class="marker flowchart-v2" viewBox="0 0 11.5 14" refX="11.5" refY="7" markerUnits="userSpaceOnUse" markerWidth="10.5" markerHeight="14" orient="auto"><path d="M 0 0 L 11.5 7 L 0 14 z" class="arrowMarkerPath" style="stroke-width: 0; stroke-dasharray: 1, 0;"/></marker><marker id="my-svg_flowchart-v2-pointStart-margin" class="marker flowchart-v2" viewBox="0 0 11.5 14" refX="1" refY="7" markerUnits="userSpaceOnUse" markerWidth="11.5" markerHeight="14" orient="auto"><polygon points="0,7 11.5,14 11.5,0" class="arrowMarkerPath" style="stroke-width: 0; stroke-dasharray: 1, 0;"/></marker><marker id="my-svg_flowchart-v2-circleEnd" class="marker flowchart-v2" viewBox="0 0 10 10" refX="11" refY="5" markerUnits="userSpaceOnUse" markerWidth="11" markerHeight="11" orient="auto"><circle cx="5" cy="5" r="5" class="arrowMarkerPath" style="stroke-width: 1; stroke-dasharray: 1, 0;"/></marker><marker id="my-svg_flowchart-v2-circleStart" class="marker flowchart-v2" viewBox="0 0 10 10" refX="-1" refY="5" markerUnits="userSpaceOnUse" markerWidth="11" markerHeight="11" orient="auto"><circle cx="5" cy="5" r="5" class="arrowMarkerPath" style="stroke-width: 1; stroke-dasharray: 1, 0;"/></marker><marker id="my-svg_flowchart-v2-circleEnd-margin" class="marker flowchart-v2" viewBox="0 0 10 10" refY="5" refX="12.25" markerUnits="userSpaceOnUse" markerWidth="14" markerHeight="14" orient="auto"><circle cx="5" cy="5" r="5" class="arrowMarkerPath" style="stroke-width: 0; stroke-dasharray: 1, 0;"/></marker><marker id="my-svg_flowchart-v2-circleStart-margin" class="marker flowchart-v2" viewBox="0 0 10 10" refX="-2" refY="5" markerUnits="userSpaceOnUse" markerWidth="14" markerHeight="14" orient="auto"><circle cx="5" cy="5" r="5" class="arrowMarkerPath" style="stroke-width: 0; stroke-dasharray: 1, 0;"/></marker><marker id="my-svg_flowchart-v2-crossEnd" class="marker cross flowchart-v2" viewBox="0 0 11 11" refX="12" refY="5.2" markerUnits="userSpaceOnUse" markerWidth="11" markerHeight="11" orient="auto"><path d="M 1,1 l 9,9 M 10,1 l -9,9" class="arrowMarkerPath" style="stroke-width: 2; stroke-dasharray: 1, 0;"/></marker><marker id="my-svg_flowchart-v2-crossStart" class="marker cross flowchart-v2" viewBox="0 0 11 11" refX="-1" refY="5.2" markerUnits="userSpaceOnUse" markerWidth="11" markerHeight="11" orient="auto"><path d="M 1,1 l 9,9 M 10,1 l -9,9" class="arrowMarkerPath" style="stroke-width: 2; stroke-dasharray: 1, 0;"/></marker><marker id="my-svg_flowchart-v2-crossEnd-margin" class="marker cross flowchart-v2" viewBox="0 0 15 15" refX="17.7" refY="7.5" markerUnits="userSpaceOnUse" markerWidth="12" markerHeight="12" orient="auto"><path d="M 1,1 L 14,14 M 1,14 L 14,1" class="arrowMarkerPath" style="stroke-width: 2.5;"/></marker><marker id="my-svg_flowchart-v2-crossStart-margin" class="marker cross flowchart-v2" viewBox="0 0 15 15" refX="-3.5" refY="7.5" markerUnits="userSpaceOnUse" markerWidth="12" markerHeight="12" orient="auto"><path d="M 1,1 L 14,14 M 1,14 L 14,1" class="arrowMarkerPath" style="stroke-width: 2.5; stroke-dasharray: 1, 0;"/></marker><g class="root"><g class="clusters"/><g class="edgePaths"><path d="M132.246,59.5L136.329,59.417C140.412,59.333,148.579,59.167,156.162,59.083C163.746,59,170.746,59,174.246,59L177.746,59" id="my-svg-L_IN_ENC_0" class="edge-thickness-normal edge-pattern-solid edge-thickness-normal edge-pattern-solid flowchart-link" style=";" data-edge="true" data-et="edge" data-id="L_IN_ENC_0" data-points="W3sieCI6MTMyLjI0NTU4NzQzMTgyNjY2LCJ5Ijo1OS41MDAwMDAwMDAwMDAwMX0seyJ4IjoxNTYuNzQ1NTkwMjA5OTYwOTQsInkiOjU5fSx7IngiOjE4MS43NDU1OTAyMDk5NjA5NCwieSI6NTl9XQ==" data-look="classic" marker-end="url(#my-svg_flowchart-v2-pointEnd)"/><path d="M361.886,59L366.053,59C370.22,59,378.553,59,386.22,59C393.886,59,400.886,59,404.386,59L407.886,59" id="my-svg-L_ENC_CRC_0" class="edge-thickness-normal edge-pattern-solid edge-thickness-normal edge-pattern-solid flowchart-link" style=";" data-edge="true" data-et="edge" data-id="L_ENC_CRC_0" data-points="W3sieCI6MzYxLjg4NjIxNTIwOTk2MDk0LCJ5Ijo1OX0seyJ4IjozODYuODg2MjE1MjA5OTYwOTQsInkiOjU5fSx7IngiOjQxMS44ODYyMTUyMDk5NjA5NCwieSI6NTl9XQ==" data-look="classic" marker-end="url(#my-svg_flowchart-v2-pointEnd)"/><path d="M601.605,59L605.772,59C609.938,59,618.272,59,625.938,59C633.605,59,640.605,59,644.105,59L647.605,59" id="my-svg-L_CRC_FEC_ENC_0" class="edge-thickness-normal edge-pattern-solid edge-thickness-normal edge-pattern-solid flowchart-link" style=";" data-edge="true" data-et="edge" data-id="L_CRC_FEC_ENC_0" data-points="W3sieCI6NjAxLjYwNDk2NTIwOTk2MDksInkiOjU5fSx7IngiOjYyNi42MDQ5NjUyMDk5NjA5LCJ5Ijo1OX0seyJ4Ijo2NTEuNjA0OTY1MjA5OTYwOSwieSI6NTl9XQ==" data-look="classic" marker-end="url(#my-svg_flowchart-v2-pointEnd)"/><path d="M877.902,59L882.069,59C886.235,59,894.569,59,902.235,59C909.902,59,916.902,59,920.402,59L923.902,59" id="my-svg-L_FEC_ENC_BITS_0" class="edge-thickness-normal edge-pattern-solid edge-thickness-normal edge-pattern-solid flowchart-link" style=";" data-edge="true" data-et="edge" data-id="L_FEC_ENC_BITS_0" data-points="W3sieCI6ODc3LjkwMTg0MDIwOTk2MDksInkiOjU5fSx7IngiOjkwMi45MDE4NDAyMDk5NjA5LCJ5Ijo1OX0seyJ4Ijo5MjcuOTAxODQwMjA5OTYwOSwieSI6NTl9XQ==" data-look="classic" marker-end="url(#my-svg_flowchart-v2-pointEnd)"/><path d="M1062.136,59L1066.303,59C1070.47,59,1078.803,59,1086.47,59C1094.136,59,1101.136,59,1104.636,59L1108.136,59" id="my-svg-L_BITS_FRAME_0" class="edge-thickness-normal edge-pattern-solid edge-thickness-normal edge-pattern-solid flowchart-link" style=";" data-edge="true" data-et="edge" data-id="L_BITS_FRAME_0" data-points="W3sieCI6MTA2Mi4xMzYyMTUyMDk5NjEsInkiOjU5fSx7IngiOjEwODcuMTM2MjE1MjA5OTYxLCJ5Ijo1OX0seyJ4IjoxMTEyLjEzNjIxNTIwOTk2MSwieSI6NTl9XQ==" data-look="classic" marker-end="url(#my-svg_flowchart-v2-pointEnd)"/><path d="M1317.527,59L1321.694,59C1325.86,59,1334.194,59,1341.86,59C1349.527,59,1356.527,59,1360.027,59L1363.527,59" id="my-svg-L_FRAME_MOD_0" class="edge-thickness-normal edge-pattern-solid edge-thickness-normal edge-pattern-solid flowchart-link" style=";" data-edge="true" data-et="edge" data-id="L_FRAME_MOD_0" data-points="W3sieCI6MTMxNy41MjY4NDAyMDk5NjEsInkiOjU5fSx7IngiOjEzNDIuNTI2ODQwMjA5OTYxLCJ5Ijo1OX0seyJ4IjoxMzY3LjUyNjg0MDIwOTk2MSwieSI6NTl9XQ==" data-look="classic" marker-end="url(#my-svg_flowchart-v2-pointEnd)"/><path d="M1547.761,59L1551.928,59C1556.095,59,1564.428,59,1572.095,59C1579.761,59,1586.761,59,1590.261,59L1593.761,59" id="my-svg-L_MOD_RRC_0" class="edge-thickness-normal edge-pattern-solid edge-thickness-normal edge-pattern-solid flowchart-link" style=";" data-edge="true" data-et="edge" data-id="L_MOD_RRC_0" data-points="W3sieCI6MTU0Ny43NjEyMTUyMDk5NjEsInkiOjU5fSx7IngiOjE1NzIuNzYxMjE1MjA5OTYxLCJ5Ijo1OX0seyJ4IjoxNTk3Ljc2MTIxNTIwOTk2MSwieSI6NTl9XQ==" data-look="classic" marker-end="url(#my-svg_flowchart-v2-pointEnd)"/><path d="M1813.402,59L1817.569,59C1821.735,59,1830.069,59,1837.735,59C1845.402,59,1852.402,59,1855.902,59L1859.402,59" id="my-svg-L_RRC_UPSAMP_0" class="edge-thickness-normal edge-pattern-solid edge-thickness-normal edge-pattern-solid flowchart-link" style=";" data-edge="true" data-et="edge" data-id="L_RRC_UPSAMP_0" data-points="W3sieCI6MTgxMy40MDE4NDAyMDk5NjEsInkiOjU5fSx7IngiOjE4MzguNDAxODQwMjA5OTYxLCJ5Ijo1OX0seyJ4IjoxODYzLjQwMTg0MDIwOTk2MSwieSI6NTl9XQ==" data-look="classic" marker-end="url(#my-svg_flowchart-v2-pointEnd)"/><path d="M2030.746,59L2034.912,59C2039.079,59,2047.412,59,2055.079,59C2062.746,59,2069.746,59,2073.246,59L2076.746,59" id="my-svg-L_UPSAMP_MAP_0" class="edge-thickness-normal edge-pattern-solid edge-thickness-normal edge-pattern-solid flowchart-link" style=";" data-edge="true" data-et="edge" data-id="L_UPSAMP_MAP_0" data-points="W3sieCI6MjAzMC43NDU1OTAyMDk5NjEsInkiOjU5fSx7IngiOjIwNTUuNzQ1NTkwMjA5OTYxLCJ5Ijo1OX0seyJ4IjoyMDgwLjc0NTU5MDIwOTk2MSwieSI6NTl9XQ==" data-look="classic" marker-end="url(#my-svg_flowchart-v2-pointEnd)"/><path d="M2256.292,59L2260.459,59C2264.626,59,2272.959,59,2280.626,59C2288.292,59,2295.292,59,2298.792,59L2302.292,59" id="my-svg-L_MAP_SHAPE_0" class="edge-thickness-normal edge-pattern-solid edge-thickness-normal edge-pattern-solid flowchart-link" style=";" data-edge="true" data-et="edge" data-id="L_MAP_SHAPE_0" data-points="W3sieCI6MjI1Ni4yOTI0NjUyMDk5NjEsInkiOjU5fSx7IngiOjIyODEuMjkyNDY1MjA5OTYxLCJ5Ijo1OX0seyJ4IjoyMzA2LjI5MjQ2NTIwOTk2MSwieSI6NTl9XQ==" data-look="classic" marker-end="url(#my-svg_flowchart-v2-pointEnd)"/><path d="M2524.246,59L2528.412,59C2532.579,59,2540.912,59,2548.579,59C2556.246,59,2563.246,59,2566.746,59L2570.246,59" id="my-svg-L_SHAPE_RADIO_0" class="edge-thickness-normal edge-pattern-solid edge-thickness-normal edge-pattern-solid flowchart-link" style=";" data-edge="true" data-et="edge" data-id="L_SHAPE_RADIO_0" data-points="W3sieCI6MjUyNC4yNDU1OTAyMDk5NjEsInkiOjU5fSx7IngiOjI1NDkuMjQ1NTkwMjA5OTYxLCJ5Ijo1OX0seyJ4IjoyNTc0LjI0NTU5MDIwOTk2MSwieSI6NTl9XQ==" data-look="classic" marker-end="url(#my-svg_flowchart-v2-pointEnd)"/><path d="M2735.23,59L2739.397,59C2743.563,59,2751.897,59,2759.563,59C2767.23,59,2774.23,59,2777.73,59L2781.23,59" id="my-svg-L_RADIO_OUT_0" class="edge-thickness-normal edge-pattern-solid edge-thickness-normal edge-pattern-solid flowchart-link" style=";" data-edge="true" data-et="edge" data-id="L_RADIO_OUT_0" data-points="W3sieCI6MjczNS4yMjk5NjUyMDk5NjEsInkiOjU5fSx7IngiOjI3NjAuMjI5OTY1MjA5OTYxLCJ5Ijo1OX0seyJ4IjoyNzg1LjIyOTk2NTIwOTk2MSwieSI6NTl9XQ==" data-look="classic" marker-end="url(#my-svg_flowchart-v2-pointEnd)"/></g><g class="edgeLabels"><g class="edgeLabel"><g class="label" data-id="L_IN_ENC_0" transform="translate(0, 0)"><foreignObject width="0" height="0"><div xmlns="http://www.w3.org/1999/xhtml" class="labelBkg" style="display: table-cell; white-space: nowrap; line-height: 1.5; max-width: 200px; text-align: center;"><span class="edgeLabel"></span></div></foreignObject></g></g><g class="edgeLabel"><g class="label" data-id="L_ENC_CRC_0" transform="translate(0, 0)"><foreignObject width="0" height="0"><div xmlns="http://www.w3.org/1999/xhtml" class="labelBkg" style="display: table-cell; white-space: nowrap; line-height: 1.5; max-width: 200px; text-align: center;"><span class="edgeLabel"></span></div></foreignObject></g></g><g class="edgeLabel"><g class="label" data-id="L_CRC_FEC_ENC_0" transform="translate(0, 0)"><foreignObject width="0" height="0"><div xmlns="http://www.w3.org/1999/xhtml" class="labelBkg" style="display: table-cell; white-space: nowrap; line-height: 1.5; max-width: 200px; text-align: center;"><span class="edgeLabel"></span></div></foreignObject></g></g><g class="edgeLabel"><g class="label" data-id="L_FEC_ENC_BITS_0" transform="translate(0, 0)"><foreignObject width="0" height="0"><div xmlns="http://www.w3.org/1999/xhtml" class="labelBkg" style="display: table-cell; white-space: nowrap; line-height: 1.5; max-width: 200px; text-align: center;"><span class="edgeLabel"></span></div></foreignObject></g></g><g class="edgeLabel"><g class="label" data-id="L_BITS_FRAME_0" transform="translate(0, 0)"><foreignObject width="0" height="0"><div xmlns="http://www.w3.org/1999/xhtml" class="labelBkg" style="display: table-cell; white-space: nowrap; line-height: 1.5; max-width: 200px; text-align: center;"><span class="edgeLabel"></span></div></foreignObject></g></g><g class="edgeLabel"><g class="label" data-id="L_FRAME_MOD_0" transform="translate(0, 0)"><foreignObject width="0" height="0"><div xmlns="http://www.w3.org/1999/xhtml" class="labelBkg" style="display: table-cell; white-space: nowrap; line-height: 1.5; max-width: 200px; text-align: center;"><span class="edgeLabel"></span></div></foreignObject></g></g><g class="edgeLabel"><g class="label" data-id="L_MOD_RRC_0" transform="translate(0, 0)"><foreignObject width="0" height="0"><div xmlns="http://www.w3.org/1999/xhtml" class="labelBkg" style="display: table-cell; white-space: nowrap; line-height: 1.5; max-width: 200px; text-align: center;"><span class="edgeLabel"></span></div></foreignObject></g></g><g class="edgeLabel"><g class="label" data-id="L_RRC_UPSAMP_0" transform="translate(0, 0)"><foreignObject width="0" height="0"><div xmlns="http://www.w3.org/1999/xhtml" class="labelBkg" style="display: table-cell; white-space: nowrap; line-height: 1.5; max-width: 200px; text-align: center;"><span class="edgeLabel"></span></div></foreignObject></g></g><g class="edgeLabel"><g class="label" data-id="L_UPSAMP_MAP_0" transform="translate(0, 0)"><foreignObject width="0" height="0"><div xmlns="http://www.w3.org/1999/xhtml" class="labelBkg" style="display: table-cell; white-space: nowrap; line-height: 1.5; max-width: 200px; text-align: center;"><span class="edgeLabel"></span></div></foreignObject></g></g><g class="edgeLabel"><g class="label" data-id="L_MAP_SHAPE_0" transform="translate(0, 0)"><foreignObject width="0" height="0"><div xmlns="http://www.w3.org/1999/xhtml" class="labelBkg" style="display: table-cell; white-space: nowrap; line-height: 1.5; max-width: 200px; text-align: center;"><span class="edgeLabel"></span></div></foreignObject></g></g><g class="edgeLabel"><g class="label" data-id="L_SHAPE_RADIO_0" transform="translate(0, 0)"><foreignObject width="0" height="0"><div xmlns="http://www.w3.org/1999/xhtml" class="labelBkg" style="display: table-cell; white-space: nowrap; line-height: 1.5; max-width: 200px; text-align: center;"><span class="edgeLabel"></span></div></foreignObject></g></g><g class="edgeLabel"><g class="label" data-id="L_RADIO_OUT_0" transform="translate(0, 0)"><foreignObject width="0" height="0"><div xmlns="http://www.w3.org/1999/xhtml" class="labelBkg" style="display: table-cell; white-space: nowrap; line-height: 1.5; max-width: 200px; text-align: center;"><span class="edgeLabel"></span></div></foreignObject></g></g></g><g class="nodes"><g class="node default" id="my-svg-flowchart-IN-0" data-look="classic" transform="translate(69.87279510498047, 59)"><g class="basic label-container outer-path"><path d="M-42.3828125 -19.5 C-16.534574761653335 -19.5, 9.31366297669333 -19.5, 42.3828125 -19.5 C42.3828125 -19.5, 42.3828125 -19.5, 42.3828125 -19.5 C42.79205586286066 -19.486876361896943, 43.20129922572131 -19.473752723793883, 43.6321817896239 -19.45993515863156 C43.881969661594326 -19.43583842303644, 44.131757533564745 -19.41174168744132, 44.876417152847864 -19.3399052695533 C45.206155871201304 -19.286595670731867, 45.535894589554744 -19.233286071910435, 46.11040575967676 -19.140403561325776 C46.40546977563154 -19.073057125156748, 46.70053379158632 -19.00571068898772, 47.32907688623539 -18.862249829261074 C47.75664841342694 -18.73534884435937, 48.18421994061848 -18.608447859457666, 48.527422751460605 -18.50658706670804 C48.97580523647426 -18.34157816742076, 49.42418772148791 -18.17656926813348, 49.7005190951478 -18.074876768247425 C49.932057385933675 -17.97238163525588, 50.16359567671956 -17.869886502264333, 50.84354541279238 -17.568892924097174 C51.15838753089374 -17.404639992749694, 51.47322964899511 -17.240387061402217, 51.95180476407678 -16.990714730406097 C52.26873400588386 -16.79859036153969, 52.58566324769093 -16.606465992673286, 53.0207430736057 -16.342718045390892 C53.36881698775797 -16.099916750755163, 53.71689090191023 -15.857115456119432, 54.04596784457871 -15.627565626425154 C54.32295159703887 -15.406678454685384, 54.599935349499034 -15.185791282945615, 55.023266208501866 -14.848196188198123 C55.377255303554186 -14.526712658109822, 55.731244398606506 -14.205229128021521, 55.94862223676799 -14.007812326905688 C56.18412488713602 -13.764636505273513, 56.419627537504056 -13.521460683641338, 56.81823344296865 -13.10986736009568 C57.072709747990146 -12.810945012105467, 57.32718605301165 -12.512022664115255, 57.62852640812658 -12.158051136245305 C57.86909795662038 -11.83570717778255, 58.10966950511418 -11.513363219319796, 58.376171464640635 -11.156274872382312 C58.6026129341313 -10.808399967196165, 58.82905440362197 -10.460525062010017, 59.05809637860425 -10.108655082055241 C59.21959971741351 -9.821889550012978, 59.38110305622277 -9.535124017970716, 59.671498974273504 -9.019496659696287 C59.86937946562249 -8.608593585445881, 60.06725995697146 -8.197690511195475, 60.21385864880834 -7.893275190886684 C60.389935319185795 -7.458362410843544, 60.56601198956324 -7.023449630800404, 60.682946729970325 -6.734618561215508 C60.781851280650386 -6.4367338128672875, 60.880755831330454 -6.138849064519066, 61.07683563421488 -5.548287939305138 C61.14591107878647 -5.284873331666634, 61.21498652335805 -5.021458724028129, 61.39390678754556 -4.339158212148133 C61.45108482685975 -4.045561064852669, 61.508262866173936 -3.7519639175572057, 61.632857276581774 -3.1121979531509023 C61.67943968458844 -2.750913995388145, 61.7260220925951 -2.389630037625387, 61.79270520250937 -1.872449005199798 C61.82368470707529 -1.3899182153796383, 61.8546642116412 -0.9073874255594786, 61.87279371591342 -0.6250057626472757 C61.87279371591342 -0.19526249131521833, 61.87279371591342 0.23448078001683903, 61.87279371591342 0.625005762647271 C61.840954908196416 1.1209208926625571, 61.809116100479415 1.6168360226778433, 61.79270520250937 1.8724490051997846 C61.74955367466613 2.2071237339188965, 61.7064021468229 2.541798462638009, 61.632857276581774 3.1121979531508885 C61.57261550380916 3.421526724235085, 61.51237373103655 3.7308554953192807, 61.39390678754556 4.339158212148129 C61.28805232852522 4.7428271420054395, 61.18219786950488 5.1464960718627495, 61.07683563421489 5.548287939305125 C60.94773779805093 5.937110052884089, 60.81863996188697 6.325932166463052, 60.682946729970325 6.734618561215495 C60.49637161344604 7.195462706214974, 60.30979649692175 7.6563068512144525, 60.21385864880834 7.893275190886679 C60.0720444935495 8.187755318618505, 59.93023033829065 8.48223544635033, 59.671498974273504 9.019496659696284 C59.49269576094046 9.336979870757782, 59.31389254760741 9.654463081819282, 59.05809637860425 10.108655082055236 C58.83243389726742 10.455333252249481, 58.606771415930595 10.802011422443728, 58.37617146464064 11.156274872382301 C58.18287003072228 11.415281183710007, 57.98956859680391 11.674287495037714, 57.62852640812658 12.158051136245302 C57.41098623900759 12.413586197278757, 57.1934460698886 12.669121258312213, 56.81823344296866 13.10986736009567 C56.500037896526145 13.438430386137782, 56.18184235008362 13.766993412179893, 55.94862223676799 14.007812326905684 C55.63905808060595 14.28895030291331, 55.32949392444391 14.570088278920936, 55.02326620850189 14.848196188198111 C54.726044096081296 15.085222913440946, 54.428821983660704 15.32224963868378, 54.04596784457871 15.627565626425152 C53.805738028733174 15.795139546577879, 53.56550821288764 15.962713466730605, 53.02074307360571 16.34271804539089 C52.72097823048856 16.524437254902256, 52.42121338737141 16.706156464413624, 51.95180476407678 16.990714730406093 C51.62233632521176 17.162598203927367, 51.29286788634674 17.334481677448643, 50.84354541279239 17.56889292409717 C50.389115283167726 17.770055662291163, 49.934685153543064 17.97121840048516, 49.700519095147804 18.07487676824742 C49.41333870907523 18.180561804988518, 49.12615832300265 18.286246841729614, 48.52742275146062 18.506587066708033 C48.1421614960511 18.620930585035982, 47.756900240641585 18.73527410336393, 47.32907688623541 18.86224982926107 C46.952253814365875 18.948257236414943, 46.57543074249634 19.034264643568815, 46.110405759676766 19.140403561325773 C45.67731465066379 19.21042237315928, 45.244223541650804 19.280441184992785, 44.87641715284788 19.3399052695533 C44.51040910077195 19.37521362614798, 44.14440104869602 19.410521982742658, 43.6321817896239 19.45993515863156 C43.17189709312828 19.474695592958362, 42.71161239663267 19.489456027285165, 42.38281250000001 19.5 C42.38281250000001 19.5, 42.3828125 19.5, 42.3828125 19.5 C20.944685125577816 19.5, -0.49344224884436727 19.5, -42.38281249999999 19.5 C-42.63322059404647 19.491969899813718, -42.883628688092955 19.483939799627432, -43.63218178962389 19.45993515863156 C-44.07252497404666 19.417455781220454, -44.51286815846943 19.374976403809352, -44.87641715284787 19.3399052695533 C-45.175725611238235 19.291515399172507, -45.47503406962859 19.243125528791715, -46.11040575967676 19.140403561325773 C-46.44531096247249 19.06396363424834, -46.78021616526822 18.9875237071709, -47.329076886235384 18.862249829261074 C-47.80423003350948 18.721226869279892, -48.27938318078356 18.58020390929871, -48.52742275146059 18.506587066708043 C-48.88487876972733 18.37503994769867, -49.242334787994075 18.243492828689302, -49.7005190951478 18.074876768247425 C-50.06539948147705 17.913355045011556, -50.4302798678063 17.751833321775685, -50.84354541279238 17.568892924097174 C-51.21764522005284 17.373725294271757, -51.591745027313294 17.178557664446338, -51.95180476407678 16.990714730406097 C-52.286959880429166 16.7875417292832, -52.62211499678154 16.5843687281603, -53.020743073605686 16.3427180453909 C-53.22787788573827 16.198229767168705, -53.43501269787087 16.05374148894651, -54.04596784457871 15.627565626425156 C-54.37304915297322 15.366726986979694, -54.70013046136773 15.105888347534234, -55.023266208501866 14.848196188198125 C-55.29974873076846 14.59710207680228, -55.57623125303505 14.346007965406432, -55.948622236767974 14.007812326905697 C-56.27887111518899 13.66680324599883, -56.60911999361001 13.325794165091963, -56.818233442968655 13.109867360095677 C-57.015693275756384 12.877919804720428, -57.21315310854411 12.64597224934518, -57.628526408126575 12.158051136245307 C-57.875914603547486 11.826573491909532, -58.123302798968396 11.495095847573758, -58.376171464640635 11.156274872382316 C-58.54009908491734 10.90443802690778, -58.70402670519403 10.652601181433244, -59.05809637860425 10.108655082055249 C-59.28879539033788 9.69902562591409, -59.51949440207151 9.289396169772928, -59.671498974273504 9.019496659696289 C-59.81001939365553 8.731856044987333, -59.94853981303756 8.444215430278378, -60.21385864880834 7.893275190886686 C-60.396481938358015 7.442192134917879, -60.5791052279077 6.991109078949073, -60.682946729970325 6.73461856121551 C-60.82805750488382 6.297568027438241, -60.97316827979732 5.860517493660971, -61.07683563421488 5.5482879393051325 C-61.15506849777521 5.249952124212045, -61.23330136133554 4.951616309118958, -61.39390678754556 4.339158212148136 C-61.480650454159075 3.8937478173681446, -61.5673941207726 3.4483374225881533, -61.632857276581774 3.112197953150904 C-61.68924061585112 2.674899907927565, -61.745623955120465 2.237601862704226, -61.79270520250937 1.872449005199809 C-61.819357450718094 1.4573187260413547, -61.84600969892682 1.0421884468829004, -61.87279371591342 0.6250057626472781 C-61.87279371591342 0.14617697208601105, -61.87279371591342 -0.33265181847525604, -61.87279371591342 -0.6250057626472687 C-61.84350436639008 -1.0812110234106327, -61.81421501686675 -1.5374162841739967, -61.79270520250937 -1.8724490051997822 C-61.75768241623488 -2.144078819513333, -61.72265962996038 -2.4157086338268843, -61.632857276581774 -3.112197953150895 C-61.567270566019374 -3.4489718501326356, -61.501683855456974 -3.785745747114376, -61.39390678754556 -4.339158212148126 C-61.31924774581163 -4.623865495712974, -61.2445887040777 -4.908572779277821, -61.07683563421489 -5.548287939305123 C-60.940758371204105 -5.958130974526069, -60.80468110819332 -6.367974009747016, -60.68294672997033 -6.734618561215485 C-60.53120783375838 -7.109416568530982, -60.379468937546434 -7.484214575846479, -60.21385864880834 -7.893275190886676 C-60.09586668430072 -8.138288029810358, -59.9778747197931 -8.383300868734038, -59.671498974273504 -9.019496659696282 C-59.462725481169926 -9.39019513731027, -59.25395198806635 -9.760893614924257, -59.05809637860425 -10.108655082055243 C-58.90335619627484 -10.346377555670218, -58.74861601394543 -10.584100029285192, -58.37617146464064 -11.156274872382308 C-58.08202984554256 -11.550397845120985, -57.787888226444466 -11.944520817859662, -57.62852640812659 -12.158051136245302 C-57.4631570445012 -12.352303400543036, -57.297787680875814 -12.546555664840772, -56.81823344296866 -13.10986736009567 C-56.596629955870206 -13.33869115450948, -56.37502646877175 -13.567514948923288, -55.948622236767996 -14.007812326905677 C-55.7061071319951 -14.228058128462372, -55.46359202722219 -14.448303930019067, -55.02326620850189 -14.848196188198107 C-54.78917895323435 -15.034874544950494, -54.55509169796681 -15.221552901702879, -54.04596784457872 -15.627565626425149 C-53.76602088813647 -15.82284450453084, -53.486073931694214 -16.01812338263653, -53.020743073605715 -16.342718045390885 C-52.73933829801556 -16.513307274071657, -52.45793352242541 -16.683896502752432, -51.95180476407679 -16.99071473040609 C-51.53835172875124 -17.206412914106124, -51.12489869342568 -17.42211109780616, -50.84354541279239 -17.56889292409717 C-50.409607302977356 -17.76098445299561, -49.975669193162325 -17.953075981894052, -49.700519095147804 -18.07487676824742 C-49.25960322433512 -18.237137884488117, -48.81868735352245 -18.399399000728813, -48.52742275146062 -18.506587066708033 C-48.18865059289176 -18.607132865119922, -47.849878434322896 -18.707678663531812, -47.32907688623541 -18.862249829261067 C-47.07166232737015 -18.921003022535082, -46.814247768504885 -18.9797562158091, -46.110405759676766 -19.140403561325773 C-45.624352024113236 -19.21898495988867, -45.13829828854971 -19.297566358451565, -44.87641715284788 -19.3399052695533 C-44.43877179407569 -19.3821243909685, -44.00112643530351 -19.424343512383704, -43.6321817896239 -19.45993515863156 C-43.15973241406927 -19.475085690538673, -42.687283038514636 -19.490236222445787, -42.38281250000001 -19.5 C-42.38281250000001 -19.5, -42.3828125 -19.5, -42.3828125 -19.5" stroke="none" stroke-width="0" fill="#4a6fa5" style="fill:#4a6fa5 !important"/><path d="M-42.3828125 -19.5 C-16.796212957949084 -19.5, 8.790386584101832 -19.5, 42.3828125 -19.5 M-42.3828125 -19.5 C-12.834404369547773 -19.5, 16.714003760904454 -19.5, 42.3828125 -19.5 M42.3828125 -19.5 C42.3828125 -19.5, 42.3828125 -19.5, 42.3828125 -19.5 M42.3828125 -19.5 C42.3828125 -19.5, 42.3828125 -19.5, 42.3828125 -19.5 M42.3828125 -19.5 C42.65411130448928 -19.49129997539112, 42.925410108978554 -19.482599950782234, 43.6321817896239 -19.45993515863156 M42.3828125 -19.5 C42.73280289966401 -19.488776489097763, 43.08279329932801 -19.477552978195522, 43.6321817896239 -19.45993515863156 M43.6321817896239 -19.45993515863156 C44.10780028430923 -19.414052814464196, 44.58341877899455 -19.36817047029683, 44.876417152847864 -19.3399052695533 M43.6321817896239 -19.45993515863156 C43.92684944157109 -19.431508924637914, 44.22151709351829 -19.40308269064427, 44.876417152847864 -19.3399052695533 M44.876417152847864 -19.3399052695533 C45.19090212893563 -19.289061777486843, 45.505387105023395 -19.238218285420388, 46.11040575967676 -19.140403561325776 M44.876417152847864 -19.3399052695533 C45.274940768146976 -19.275475062028534, 45.673464383446095 -19.21104485450377, 46.11040575967676 -19.140403561325776 M46.11040575967676 -19.140403561325776 C46.5871307835982 -19.03159418553722, 47.063855807519644 -18.92278480974866, 47.32907688623539 -18.862249829261074 M46.11040575967676 -19.140403561325776 C46.59341416002416 -19.030160045870858, 47.07642256037156 -18.919916530415936, 47.32907688623539 -18.862249829261074 M47.32907688623539 -18.862249829261074 C47.58633449224853 -18.785897122169104, 47.84359209826168 -18.709544415077133, 48.527422751460605 -18.50658706670804 M47.32907688623539 -18.862249829261074 C47.66359624844653 -18.762966238484772, 47.99811561065766 -18.663682647708473, 48.527422751460605 -18.50658706670804 M48.527422751460605 -18.50658706670804 C48.87658108478067 -18.378093572462006, 49.22573941810073 -18.24960007821597, 49.7005190951478 -18.074876768247425 M48.527422751460605 -18.50658706670804 C48.95079547242028 -18.350781991780348, 49.374168193379965 -18.194976916852653, 49.7005190951478 -18.074876768247425 M49.7005190951478 -18.074876768247425 C50.09562656099115 -17.89997441356512, 50.49073402683451 -17.72507205888281, 50.84354541279238 -17.568892924097174 M49.7005190951478 -18.074876768247425 C49.991013603909636 -17.946283466431993, 50.28150811267147 -17.81769016461656, 50.84354541279238 -17.568892924097174 M50.84354541279238 -17.568892924097174 C51.28638459621001 -17.337864005760228, 51.72922377962765 -17.106835087423285, 51.95180476407678 -16.990714730406097 M50.84354541279238 -17.568892924097174 C51.178332696738735 -17.39423461250385, 51.51311998068508 -17.219576300910532, 51.95180476407678 -16.990714730406097 M51.95180476407678 -16.990714730406097 C52.34799938902579 -16.750539220463956, 52.74419401397479 -16.510363710521816, 53.0207430736057 -16.342718045390892 M51.95180476407678 -16.990714730406097 C52.37141377304797 -16.736345283271515, 52.791022782019155 -16.481975836136936, 53.0207430736057 -16.342718045390892 M53.0207430736057 -16.342718045390892 C53.422735513776416 -16.062305521100065, 53.82472795394713 -15.781892996809237, 54.04596784457871 -15.627565626425154 M53.0207430736057 -16.342718045390892 C53.26122460806342 -16.174968537231027, 53.501706142521144 -16.007219029071162, 54.04596784457871 -15.627565626425154 M54.04596784457871 -15.627565626425154 C54.346086575080335 -15.38822892534494, 54.64620530558195 -15.148892224264726, 55.023266208501866 -14.848196188198123 M54.04596784457871 -15.627565626425154 C54.40206840638958 -15.34358490461491, 54.75816896820045 -15.059604182804668, 55.023266208501866 -14.848196188198123 M55.023266208501866 -14.848196188198123 C55.29459121359332 -14.601785997440313, 55.56591621868478 -14.3553758066825, 55.94862223676799 -14.007812326905688 M55.023266208501866 -14.848196188198123 C55.231569629301816 -14.659020532834111, 55.43987305010176 -14.469844877470099, 55.94862223676799 -14.007812326905688 M55.94862223676799 -14.007812326905688 C56.17185088490734 -13.77731042028895, 56.39507953304669 -13.546808513672211, 56.81823344296865 -13.10986736009568 M55.94862223676799 -14.007812326905688 C56.258031437149 -13.688321924544507, 56.56744063753002 -13.368831522183326, 56.81823344296865 -13.10986736009568 M56.81823344296865 -13.10986736009568 C57.03104042527501 -12.859892169618307, 57.24384740758136 -12.609916979140932, 57.62852640812658 -12.158051136245305 M56.81823344296865 -13.10986736009568 C56.980397345814794 -12.919380412425127, 57.14256124866094 -12.728893464754572, 57.62852640812658 -12.158051136245305 M57.62852640812658 -12.158051136245305 C57.802313043912804 -11.92519287657999, 57.97609967969902 -11.692334616914676, 58.376171464640635 -11.156274872382312 M57.62852640812658 -12.158051136245305 C57.86937746819446 -11.835332657737316, 58.110228528262326 -11.512614179229328, 58.376171464640635 -11.156274872382312 M58.376171464640635 -11.156274872382312 C58.531557120289555 -10.917560778414716, 58.68694277593847 -10.678846684447121, 59.05809637860425 -10.108655082055241 M58.376171464640635 -11.156274872382312 C58.58056390084952 -10.842273203311427, 58.78495633705841 -10.528271534240542, 59.05809637860425 -10.108655082055241 M59.05809637860425 -10.108655082055241 C59.254780791002915 -9.759421991384992, 59.451465203401575 -9.410188900714742, 59.671498974273504 -9.019496659696287 M59.05809637860425 -10.108655082055241 C59.21046887144134 -9.83810229163497, 59.362841364278445 -9.567549501214698, 59.671498974273504 -9.019496659696287 M59.671498974273504 -9.019496659696287 C59.86927250112628 -8.608815699510911, 60.06704602797907 -8.198134739325535, 60.21385864880834 -7.893275190886684 M59.671498974273504 -9.019496659696287 C59.83731371406573 -8.675178804650653, 60.003128453857954 -8.330860949605018, 60.21385864880834 -7.893275190886684 M60.21385864880834 -7.893275190886684 C60.34659307543619 -7.56541859087034, 60.47932750206404 -7.2375619908539965, 60.682946729970325 -6.734618561215508 M60.21385864880834 -7.893275190886684 C60.34232373371184 -7.5759639474716, 60.47078881861533 -7.258652704056514, 60.682946729970325 -6.734618561215508 M60.682946729970325 -6.734618561215508 C60.827702687387564 -6.298636681204493, 60.972458644804796 -5.862654801193477, 61.07683563421488 -5.548287939305138 M60.682946729970325 -6.734618561215508 C60.837693477487015 -6.268546013241169, 60.992440225003705 -5.8024734652668295, 61.07683563421488 -5.548287939305138 M61.07683563421488 -5.548287939305138 C61.1709010249354 -5.189575836289588, 61.26496641565591 -4.830863733274038, 61.39390678754556 -4.339158212148133 M61.07683563421488 -5.548287939305138 C61.16018763441871 -5.230430637542514, 61.24353963462255 -4.912573335779889, 61.39390678754556 -4.339158212148133 M61.39390678754556 -4.339158212148133 C61.46405638504549 -3.9789548551086686, 61.53420598254542 -3.618751498069204, 61.632857276581774 -3.1121979531509023 M61.39390678754556 -4.339158212148133 C61.48408834784912 -3.8760949598688983, 61.574269908152665 -3.4130317075896635, 61.632857276581774 -3.1121979531509023 M61.632857276581774 -3.1121979531509023 C61.68360157482923 -2.7186351965386972, 61.7343458730767 -2.325072439926492, 61.79270520250937 -1.872449005199798 M61.632857276581774 -3.1121979531509023 C61.682639294270196 -2.7260984545308125, 61.73242131195862 -2.339998955910723, 61.79270520250937 -1.872449005199798 M61.79270520250937 -1.872449005199798 C61.81397652045038 -1.541131058369751, 61.83524783839139 -1.2098131115397042, 61.87279371591342 -0.6250057626472757 M61.79270520250937 -1.872449005199798 C61.8235081889257 -1.3926676280422745, 61.85431117534203 -0.9128862508847511, 61.87279371591342 -0.6250057626472757 M61.87279371591342 -0.6250057626472757 C61.87279371591342 -0.33367133202525073, 61.87279371591342 -0.04233690140322577, 61.87279371591342 0.625005762647271 M61.87279371591342 -0.6250057626472757 C61.87279371591342 -0.28605668328575357, 61.87279371591342 0.052892396075768566, 61.87279371591342 0.625005762647271 M61.87279371591342 0.625005762647271 C61.845201884157326 1.054770813974054, 61.81761005240124 1.4845358653008365, 61.79270520250937 1.8724490051997846 M61.87279371591342 0.625005762647271 C61.8522320542954 0.9452702394224284, 61.83167039267738 1.2655347161975858, 61.79270520250937 1.8724490051997846 M61.79270520250937 1.8724490051997846 C61.7489908286429 2.2114890565285616, 61.70527645477644 2.5505291078573387, 61.632857276581774 3.1121979531508885 M61.79270520250937 1.8724490051997846 C61.751777902292375 2.1898730636732076, 61.71085060207538 2.5072971221466305, 61.632857276581774 3.1121979531508885 M61.632857276581774 3.1121979531508885 C61.550256516162456 3.5363354002272054, 61.46765575574314 3.9604728473035227, 61.39390678754556 4.339158212148129 M61.632857276581774 3.1121979531508885 C61.560444530268185 3.4840221010318357, 61.48803178395459 3.855846248912783, 61.39390678754556 4.339158212148129 M61.39390678754556 4.339158212148129 C61.27197390827681 4.804141126844043, 61.15004102900806 5.269124041539958, 61.07683563421489 5.548287939305125 M61.39390678754556 4.339158212148129 C61.28429412607016 4.757158796781842, 61.174681464594755 5.175159381415555, 61.07683563421489 5.548287939305125 M61.07683563421489 5.548287939305125 C60.94187629988956 5.954763951443227, 60.806916965564234 6.36123996358133, 60.682946729970325 6.734618561215495 M61.07683563421489 5.548287939305125 C60.94398798735626 5.948403885245236, 60.81114034049763 6.348519831185347, 60.682946729970325 6.734618561215495 M60.682946729970325 6.734618561215495 C60.54819800696842 7.067450512219524, 60.41344928396652 7.4002824632235535, 60.21385864880834 7.893275190886679 M60.682946729970325 6.734618561215495 C60.53781093649132 7.093106777118317, 60.39267514301231 7.451594993021139, 60.21385864880834 7.893275190886679 M60.21385864880834 7.893275190886679 C60.10075361044735 8.128140223103408, 59.987648572086364 8.363005255320138, 59.671498974273504 9.019496659696284 M60.21385864880834 7.893275190886679 C60.088091481740136 8.154433404290094, 59.96232431467193 8.41559161769351, 59.671498974273504 9.019496659696284 M59.671498974273504 9.019496659696284 C59.53854256785225 9.255574222593289, 59.40558616143098 9.491651785490294, 59.05809637860425 10.108655082055236 M59.671498974273504 9.019496659696284 C59.51638228135741 9.294922055237205, 59.36126558844131 9.570347450778124, 59.05809637860425 10.108655082055236 M59.05809637860425 10.108655082055236 C58.80813650252104 10.492660575343969, 58.55817662643783 10.876666068632701, 58.37617146464064 11.156274872382301 M59.05809637860425 10.108655082055236 C58.86925338394124 10.39876863330195, 58.68041038927824 10.688882184548664, 58.37617146464064 11.156274872382301 M58.37617146464064 11.156274872382301 C58.19880351117839 11.393931771468747, 58.02143555771614 11.631588670555193, 57.62852640812658 12.158051136245302 M58.37617146464064 11.156274872382301 C58.137661000419065 11.475857165688925, 57.89915053619748 11.79543945899555, 57.62852640812658 12.158051136245302 M57.62852640812658 12.158051136245302 C57.43955994872836 12.380021891950603, 57.25059348933013 12.601992647655905, 56.81823344296866 13.10986736009567 M57.62852640812658 12.158051136245302 C57.37902916158276 12.451124798831183, 57.12953191503894 12.744198461417064, 56.81823344296866 13.10986736009567 M56.81823344296866 13.10986736009567 C56.60647719803665 13.328523068499006, 56.39472095310464 13.54717877690234, 55.94862223676799 14.007812326905684 M56.81823344296866 13.10986736009567 C56.631223751743676 13.302970220066662, 56.44421406051868 13.496073080037654, 55.94862223676799 14.007812326905684 M55.94862223676799 14.007812326905684 C55.66014987142955 14.269795296545515, 55.37167750609112 14.531778266185347, 55.02326620850189 14.848196188198111 M55.94862223676799 14.007812326905684 C55.61415463144642 14.311566956530838, 55.27968702612485 14.615321586155991, 55.02326620850189 14.848196188198111 M55.02326620850189 14.848196188198111 C54.75401947355855 15.062913294358895, 54.48477273861521 15.27763040051968, 54.04596784457871 15.627565626425152 M55.02326620850189 14.848196188198111 C54.70005759639523 15.10594645541078, 54.376848984288586 15.36369672262345, 54.04596784457871 15.627565626425152 M54.04596784457871 15.627565626425152 C53.720301420129054 15.854736426248937, 53.3946349956794 16.081907226072722, 53.02074307360571 16.34271804539089 M54.04596784457871 15.627565626425152 C53.81695281209936 15.78731659918178, 53.58793777962 15.947067571938407, 53.02074307360571 16.34271804539089 M53.02074307360571 16.34271804539089 C52.79255609376669 16.48104633354484, 52.564369113927675 16.61937462169879, 51.95180476407678 16.990714730406093 M53.02074307360571 16.34271804539089 C52.628095616430855 16.580743241382866, 52.235448159256 16.818768437374843, 51.95180476407678 16.990714730406093 M51.95180476407678 16.990714730406093 C51.71104893442457 17.116316892524186, 51.47029310477235 17.241919054642278, 50.84354541279239 17.56889292409717 M51.95180476407678 16.990714730406093 C51.56425743111706 17.192897925775267, 51.17671009815734 17.39508112114444, 50.84354541279239 17.56889292409717 M50.84354541279239 17.56889292409717 C50.60680079817835 17.673692742207333, 50.37005618356431 17.778492560317495, 49.700519095147804 18.07487676824742 M50.84354541279239 17.56889292409717 C50.57103515861939 17.689525129890082, 50.29852490444638 17.810157335682998, 49.700519095147804 18.07487676824742 M49.700519095147804 18.07487676824742 C49.36852691103378 18.197052960903488, 49.03653472691976 18.319229153559558, 48.52742275146062 18.506587066708033 M49.700519095147804 18.07487676824742 C49.33400411034514 18.20975767068218, 48.96748912554248 18.34463857311694, 48.52742275146062 18.506587066708033 M48.52742275146062 18.506587066708033 C48.18806053616279 18.607307990859812, 47.84869832086495 18.708028915011592, 47.32907688623541 18.86224982926107 M48.52742275146062 18.506587066708033 C48.109286240609784 18.630687788285226, 47.691149729758955 18.754788509862422, 47.32907688623541 18.86224982926107 M47.32907688623541 18.86224982926107 C46.88024345166563 18.964693131789744, 46.431410017095835 19.067136434318414, 46.110405759676766 19.140403561325773 M47.32907688623541 18.86224982926107 C46.964220788249385 18.945525852717836, 46.59936469026335 19.028801876174597, 46.110405759676766 19.140403561325773 M46.110405759676766 19.140403561325773 C45.6219419218165 19.219374606537382, 45.133478083956234 19.298345651748992, 44.87641715284788 19.3399052695533 M46.110405759676766 19.140403561325773 C45.81180422002577 19.188679142567022, 45.513202680374775 19.23695472380827, 44.87641715284788 19.3399052695533 M44.87641715284788 19.3399052695533 C44.49168534773297 19.37701988408504, 44.106953542618065 19.414134498616786, 43.6321817896239 19.45993515863156 M44.87641715284788 19.3399052695533 C44.59691439939931 19.36686856402724, 44.31741164595075 19.39383185850118, 43.6321817896239 19.45993515863156 M43.6321817896239 19.45993515863156 C43.24370313469145 19.47239291296741, 42.855224479758995 19.484850667303267, 42.38281250000001 19.5 M43.6321817896239 19.45993515863156 C43.175057123177034 19.474594256945323, 42.71793245673017 19.489253355259088, 42.38281250000001 19.5 M42.38281250000001 19.5 C42.38281250000001 19.5, 42.3828125 19.5, 42.3828125 19.5 M42.38281250000001 19.5 C42.38281250000001 19.5, 42.3828125 19.5, 42.3828125 19.5 M42.3828125 19.5 C15.649944724175597 19.5, -11.082923051648805 19.5, -42.38281249999999 19.5 M42.3828125 19.5 C10.96549617954705 19.5, -20.4518201409059 19.5, -42.38281249999999 19.5 M-42.38281249999999 19.5 C-42.689713708290796 19.49015827559708, -42.996614916581606 19.480316551194154, -43.63218178962389 19.45993515863156 M-42.38281249999999 19.5 C-42.812649592342524 19.48621596107572, -43.24248668468506 19.47243192215144, -43.63218178962389 19.45993515863156 M-43.63218178962389 19.45993515863156 C-43.8948882633922 19.43459218105789, -44.15759473716051 19.409249203484222, -44.87641715284787 19.3399052695533 M-43.63218178962389 19.45993515863156 C-43.9028931007695 19.43381996402333, -44.1736044119151 19.407704769415098, -44.87641715284787 19.3399052695533 M-44.87641715284787 19.3399052695533 C-45.2244762170138 19.283633779297308, -45.57253528117974 19.227362289041313, -46.11040575967676 19.140403561325773 M-44.87641715284787 19.3399052695533 C-45.20143757297587 19.287358488598006, -45.52645799310387 19.234811707642713, -46.11040575967676 19.140403561325773 M-46.11040575967676 19.140403561325773 C-46.51803638388515 19.047364531388624, -46.92566700809355 18.954325501451475, -47.329076886235384 18.862249829261074 M-46.11040575967676 19.140403561325773 C-46.48601990395768 19.054672084005013, -46.8616340482386 18.968940606684253, -47.329076886235384 18.862249829261074 M-47.329076886235384 18.862249829261074 C-47.58181659125857 18.787238011467977, -47.83455629628176 18.712226193674876, -48.52742275146059 18.506587066708043 M-47.329076886235384 18.862249829261074 C-47.57221955599329 18.790086361158846, -47.8153622257512 18.717922893056617, -48.52742275146059 18.506587066708043 M-48.52742275146059 18.506587066708043 C-48.77334143463451 18.416086718052654, -49.01926011780842 18.325586369397268, -49.7005190951478 18.074876768247425 M-48.52742275146059 18.506587066708043 C-48.80135862760873 18.40577613205005, -49.07529450375686 18.304965197392058, -49.7005190951478 18.074876768247425 M-49.7005190951478 18.074876768247425 C-50.0430139371761 17.92326446143001, -50.3855087792044 17.77165215461259, -50.84354541279238 17.568892924097174 M-49.7005190951478 18.074876768247425 C-49.94386209468636 17.96715604086531, -50.18720509422492 17.859435313483196, -50.84354541279238 17.568892924097174 M-50.84354541279238 17.568892924097174 C-51.23011433981667 17.367220162477814, -51.61668326684097 17.165547400858458, -51.95180476407678 16.990714730406097 M-50.84354541279238 17.568892924097174 C-51.1555920197649 17.406098409115, -51.46763862673743 17.243303894132826, -51.95180476407678 16.990714730406097 M-51.95180476407678 16.990714730406097 C-52.325046337730015 16.764453495046553, -52.698287911383254 16.538192259687012, -53.020743073605686 16.3427180453909 M-51.95180476407678 16.990714730406097 C-52.350997281133914 16.748721880650443, -52.75018979819104 16.50672903089479, -53.020743073605686 16.3427180453909 M-53.020743073605686 16.3427180453909 C-53.23377632277157 16.194115272833503, -53.44680957193745 16.04551250027611, -54.04596784457871 15.627565626425156 M-53.020743073605686 16.3427180453909 C-53.31873006618307 16.13485521901792, -53.616717058760464 15.926992392644935, -54.04596784457871 15.627565626425156 M-54.04596784457871 15.627565626425156 C-54.296595237089456 15.42769695037285, -54.547222629600206 15.227828274320544, -55.023266208501866 14.848196188198125 M-54.04596784457871 15.627565626425156 C-54.39317937727635 15.350673668785719, -54.74039090997398 15.073781711146282, -55.023266208501866 14.848196188198125 M-55.023266208501866 14.848196188198125 C-55.32807520817896 14.571376719495582, -55.63288420785606 14.294557250793039, -55.948622236767974 14.007812326905697 M-55.023266208501866 14.848196188198125 C-55.28249720946033 14.612769452004077, -55.5417282104188 14.377342715810027, -55.948622236767974 14.007812326905697 M-55.948622236767974 14.007812326905697 C-56.155061456537105 13.794646883518917, -56.361500676306235 13.581481440132139, -56.818233442968655 13.109867360095677 M-55.948622236767974 14.007812326905697 C-56.21166845446039 13.736195510642172, -56.47471467215279 13.464578694378648, -56.818233442968655 13.109867360095677 M-56.818233442968655 13.109867360095677 C-57.00103337982028 12.895140152658687, -57.1838333166719 12.680412945221699, -57.628526408126575 12.158051136245307 M-56.818233442968655 13.109867360095677 C-57.00133702133726 12.894783478055153, -57.18444059970586 12.67969959601463, -57.628526408126575 12.158051136245307 M-57.628526408126575 12.158051136245307 C-57.79655934675458 11.93290230659941, -57.96459228538258 11.707753476953513, -58.376171464640635 11.156274872382316 M-57.628526408126575 12.158051136245307 C-57.86809749786459 11.837047701371635, -58.1076685876026 11.516044266497962, -58.376171464640635 11.156274872382316 M-58.376171464640635 11.156274872382316 C-58.51660767840463 10.940527135637186, -58.65704389216863 10.724779398892059, -59.05809637860425 10.108655082055249 M-58.376171464640635 11.156274872382316 C-58.647253065402715 10.739820738009607, -58.9183346661648 10.323366603636899, -59.05809637860425 10.108655082055249 M-59.05809637860425 10.108655082055249 C-59.21453289625956 9.83088620404309, -59.370969413914885 9.55311732603093, -59.671498974273504 9.019496659696289 M-59.05809637860425 10.108655082055249 C-59.195389795894435 9.864876717190493, -59.332683213184616 9.621098352325737, -59.671498974273504 9.019496659696289 M-59.671498974273504 9.019496659696289 C-59.84359342576924 8.662138848934013, -60.01568787726497 8.304781038171738, -60.21385864880834 7.893275190886686 M-59.671498974273504 9.019496659696289 C-59.841927375080374 8.665598438837211, -60.01235577588725 8.311700217978133, -60.21385864880834 7.893275190886686 M-60.21385864880834 7.893275190886686 C-60.37265906983242 7.501035080759935, -60.5314594908565 7.108794970633184, -60.682946729970325 6.73461856121551 M-60.21385864880834 7.893275190886686 C-60.36345418702759 7.523771319252155, -60.51304972524685 7.154267447617624, -60.682946729970325 6.73461856121551 M-60.682946729970325 6.73461856121551 C-60.839235114343396 6.2639028486562305, -60.99552349871646 5.793187136096951, -61.07683563421488 5.5482879393051325 M-60.682946729970325 6.73461856121551 C-60.76191447955251 6.496780281276215, -60.8408822291347 6.258942001336919, -61.07683563421488 5.5482879393051325 M-61.07683563421488 5.5482879393051325 C-61.15178365465424 5.26247865469234, -61.22673167509359 4.976669370079547, -61.39390678754556 4.339158212148136 M-61.07683563421488 5.5482879393051325 C-61.17224938985527 5.184433936465069, -61.26766314549565 4.820579933625006, -61.39390678754556 4.339158212148136 M-61.39390678754556 4.339158212148136 C-61.46274315565307 3.9856980104876043, -61.531579523760584 3.632237808827073, -61.632857276581774 3.112197953150904 M-61.39390678754556 4.339158212148136 C-61.48601828484677 3.866185141278256, -61.57812978214798 3.393212070408376, -61.632857276581774 3.112197953150904 M-61.632857276581774 3.112197953150904 C-61.69178458407411 2.655169392753404, -61.750711891566446 2.1981408323559033, -61.79270520250937 1.872449005199809 M-61.632857276581774 3.112197953150904 C-61.68777674919206 2.68625336866205, -61.74269622180235 2.2603087841731964, -61.79270520250937 1.872449005199809 M-61.79270520250937 1.872449005199809 C-61.81176393514972 1.5755938603942299, -61.83082266779007 1.2787387155886507, -61.87279371591342 0.6250057626472781 M-61.79270520250937 1.872449005199809 C-61.81082195333582 1.59026598749983, -61.82893870416226 1.308082969799851, -61.87279371591342 0.6250057626472781 M-61.87279371591342 0.6250057626472781 C-61.87279371591342 0.2190674357375884, -61.87279371591342 -0.18687089117210132, -61.87279371591342 -0.6250057626472687 M-61.87279371591342 0.6250057626472781 C-61.87279371591342 0.2805381607685653, -61.87279371591342 -0.06392944111014753, -61.87279371591342 -0.6250057626472687 M-61.87279371591342 -0.6250057626472687 C-61.85163063697678 -0.9546377996153079, -61.830467558040134 -1.2842698365833471, -61.79270520250937 -1.8724490051997822 M-61.87279371591342 -0.6250057626472687 C-61.852531039327715 -0.9406133062076969, -61.83226836274202 -1.256220849768125, -61.79270520250937 -1.8724490051997822 M-61.79270520250937 -1.8724490051997822 C-61.73070682698652 -2.3532961627909743, -61.668708451463665 -2.8341433203821667, -61.632857276581774 -3.112197953150895 M-61.79270520250937 -1.8724490051997822 C-61.751198273950955 -2.1943685466287195, -61.709691345392535 -2.5162880880576566, -61.632857276581774 -3.112197953150895 M-61.632857276581774 -3.112197953150895 C-61.583366074131845 -3.3663248177619534, -61.53387487168191 -3.6204516823730115, -61.39390678754556 -4.339158212148126 M-61.632857276581774 -3.112197953150895 C-61.55459276451546 -3.5140696814009136, -61.47632825244916 -3.9159414096509315, -61.39390678754556 -4.339158212148126 M-61.39390678754556 -4.339158212148126 C-61.27835102796743 -4.779822405602547, -61.1627952683893 -5.220486599056969, -61.07683563421489 -5.548287939305123 M-61.39390678754556 -4.339158212148126 C-61.279486733096 -4.775491469729583, -61.16506667864645 -5.21182472731104, -61.07683563421489 -5.548287939305123 M-61.07683563421489 -5.548287939305123 C-60.948659999006324 -5.934332530539212, -60.82048436379776 -6.320377121773302, -60.68294672997033 -6.734618561215485 M-61.07683563421489 -5.548287939305123 C-60.9199219607072 -6.02088692311158, -60.76300828719951 -6.493485906918037, -60.68294672997033 -6.734618561215485 M-60.68294672997033 -6.734618561215485 C-60.589059858842745 -6.966520948079785, -60.495172987715165 -7.198423334944086, -60.21385864880834 -7.893275190886676 M-60.68294672997033 -6.734618561215485 C-60.50921648427337 -7.163735626932783, -60.33548623857641 -7.592852692650082, -60.21385864880834 -7.893275190886676 M-60.21385864880834 -7.893275190886676 C-60.047061903371784 -8.239632201664323, -59.88026515793522 -8.58598921244197, -59.671498974273504 -9.019496659696282 M-60.21385864880834 -7.893275190886676 C-60.09283411273687 -8.14458522954933, -59.97180957666539 -8.395895268211984, -59.671498974273504 -9.019496659696282 M-59.671498974273504 -9.019496659696282 C-59.49769204990958 -9.328108453763985, -59.32388512554566 -9.636720247831688, -59.05809637860425 -10.108655082055243 M-59.671498974273504 -9.019496659696282 C-59.47551294550338 -9.367489699515048, -59.27952691673326 -9.715482739333812, -59.05809637860425 -10.108655082055243 M-59.05809637860425 -10.108655082055243 C-58.840027419764766 -10.44366756254727, -58.621958460925285 -10.7786800430393, -58.37617146464064 -11.156274872382308 M-59.05809637860425 -10.108655082055243 C-58.86801085378303 -10.40067749329104, -58.67792532896181 -10.692699904526837, -58.37617146464064 -11.156274872382308 M-58.37617146464064 -11.156274872382308 C-58.08789534821466 -11.542538605898647, -57.79961923178868 -11.928802339414986, -57.62852640812659 -12.158051136245302 M-58.37617146464064 -11.156274872382308 C-58.21053316518834 -11.378215103688888, -58.04489486573603 -11.600155334995469, -57.62852640812659 -12.158051136245302 M-57.62852640812659 -12.158051136245302 C-57.40652370771609 -12.418828140458986, -57.184521007305584 -12.67960514467267, -56.81823344296866 -13.10986736009567 M-57.62852640812659 -12.158051136245302 C-57.433043715255366 -12.38767623057217, -57.23756102238415 -12.617301324899037, -56.81823344296866 -13.10986736009567 M-56.81823344296866 -13.10986736009567 C-56.51413334667409 -13.423875676602043, -56.210033250379524 -13.737883993108415, -55.948622236767996 -14.007812326905677 M-56.81823344296866 -13.10986736009567 C-56.571041880346215 -13.365112943308072, -56.32385031772376 -13.620358526520475, -55.948622236767996 -14.007812326905677 M-55.948622236767996 -14.007812326905677 C-55.685121375628114 -14.247116837142181, -55.421620514488225 -14.486421347378684, -55.02326620850189 -14.848196188198107 M-55.948622236767996 -14.007812326905677 C-55.71745407044498 -14.217753139185728, -55.486285904121964 -14.427693951465779, -55.02326620850189 -14.848196188198107 M-55.02326620850189 -14.848196188198107 C-54.7777688904051 -15.043973766422296, -54.53227157230831 -15.239751344646484, -54.04596784457872 -15.627565626425149 M-55.02326620850189 -14.848196188198107 C-54.67533350837134 -15.125663257674224, -54.32740080824079 -15.40313032715034, -54.04596784457872 -15.627565626425149 M-54.04596784457872 -15.627565626425149 C-53.80767949426523 -15.793785264267406, -53.56939114395175 -15.960004902109665, -53.020743073605715 -16.342718045390885 M-54.04596784457872 -15.627565626425149 C-53.77696560491226 -15.815209943897198, -53.50796336524581 -16.002854261369247, -53.020743073605715 -16.342718045390885 M-53.020743073605715 -16.342718045390885 C-52.71414406443337 -16.528580166526933, -52.407545055261025 -16.71444228766298, -51.95180476407679 -16.99071473040609 M-53.020743073605715 -16.342718045390885 C-52.74100894834702 -16.512294516022894, -52.461274823088324 -16.681870986654904, -51.95180476407679 -16.99071473040609 M-51.95180476407679 -16.99071473040609 C-51.561968932991356 -17.194091833781595, -51.17213310190593 -17.397468937157097, -50.84354541279239 -17.56889292409717 M-51.95180476407679 -16.99071473040609 C-51.62562019277415 -17.160885012323487, -51.29943562147152 -17.331055294240883, -50.84354541279239 -17.56889292409717 M-50.84354541279239 -17.56889292409717 C-50.5486320689636 -17.69944231311666, -50.25371872513481 -17.829991702136148, -49.700519095147804 -18.07487676824742 M-50.84354541279239 -17.56889292409717 C-50.5602866080604 -17.694283194378123, -50.277027803328416 -17.819673464659072, -49.700519095147804 -18.07487676824742 M-49.700519095147804 -18.07487676824742 C-49.24703932014694 -18.241761517368825, -48.793559545146074 -18.408646266490234, -48.52742275146062 -18.506587066708033 M-49.700519095147804 -18.07487676824742 C-49.30924832681643 -18.2188680278607, -48.917977558485056 -18.36285928747398, -48.52742275146062 -18.506587066708033 M-48.52742275146062 -18.506587066708033 C-48.139496991506434 -18.62172139599857, -47.75157123155225 -18.736855725289104, -47.32907688623541 -18.862249829261067 M-48.52742275146062 -18.506587066708033 C-48.065688233372434 -18.643627447982663, -47.60395371528425 -18.78066782925729, -47.32907688623541 -18.862249829261067 M-47.32907688623541 -18.862249829261067 C-46.89969611828526 -18.96025318757432, -46.47031535033511 -19.058256545887573, -46.110405759676766 -19.140403561325773 M-47.32907688623541 -18.862249829261067 C-47.066937339579184 -18.922081470164944, -46.80479779292295 -18.981913111068824, -46.110405759676766 -19.140403561325773 M-46.110405759676766 -19.140403561325773 C-45.77448682277415 -19.194712329953926, -45.438567885871535 -19.249021098582077, -44.87641715284788 -19.3399052695533 M-46.110405759676766 -19.140403561325773 C-45.70281146201699 -19.20630024643042, -45.29521716435721 -19.272196931535067, -44.87641715284788 -19.3399052695533 M-44.87641715284788 -19.3399052695533 C-44.61571305402299 -19.365055080424384, -44.3550089551981 -19.39020489129547, -43.6321817896239 -19.45993515863156 M-44.87641715284788 -19.3399052695533 C-44.531094617014205 -19.37321811927406, -44.185772081180524 -19.406530968994826, -43.6321817896239 -19.45993515863156 M-43.6321817896239 -19.45993515863156 C-43.263512051773155 -19.47175767955232, -42.8948423139224 -19.48358020047308, -42.38281250000001 -19.5 M-43.6321817896239 -19.45993515863156 C-43.239007736399735 -19.472543485251588, -42.84583368317557 -19.48515181187162, -42.38281250000001 -19.5 M-42.38281250000001 -19.5 C-42.38281250000001 -19.5, -42.3828125 -19.5, -42.3828125 -19.5 M-42.38281250000001 -19.5 C-42.38281250000001 -19.5, -42.3828125 -19.5, -42.3828125 -19.5" stroke="#9370DB" stroke-width="1.3" fill="none" stroke-dasharray="0 0" style="fill:#4a6fa5 !important"/></g><g class="label" style="color:#fff !important" transform="translate(-49.5078125, -12)"><rect/><foreignObject width="99.015625" height="24"><div style="color: rgb(255, 255, 255) !important; display: table-cell; white-space: nowrap; line-height: 1.5; max-width: 200px; text-align: center;" xmlns="http://www.w3.org/1999/xhtml"><span style="color:#fff !important" class="nodeLabel"><p>payload bytes</p></span></div></foreignObject></g></g><g class="node default" id="my-svg-flowchart-ENC-1" data-look="classic" transform="translate(271.81590270996094, 59)"><rect class="basic label-container" style="" x="-90.0703125" y="-27" width="180.140625" height="54"/><g class="label" style="" transform="translate(-60.0703125, -12)"><rect/><foreignObject width="120.140625" height="24"><div xmlns="http://www.w3.org/1999/xhtml" style="display: table-cell; white-space: nowrap; line-height: 1.5; max-width: 200px; text-align: center;"><span class="nodeLabel"><p>packet_encode()</p></span></div></foreignObject></g></g><g class="node default" id="my-svg-flowchart-CRC-3" data-look="classic" transform="translate(506.74559020996094, 59)"><rect class="basic label-container" style="" x="-94.859375" y="-39" width="189.71875" height="78"/><g class="label" style="" transform="translate(-64.859375, -24)"><rect/><foreignObject width="129.71875" height="48"><div xmlns="http://www.w3.org/1999/xhtml" style="display: table-cell; white-space: nowrap; line-height: 1.5; max-width: 200px; text-align: center;"><span class="nodeLabel"><p>Prepend length(2)<br />Append CRC-32(4)</p></span></div></foreignObject></g></g><g class="node default" id="my-svg-flowchart-FEC_ENC-5" data-look="classic" transform="translate(764.7534027099609, 59)"><rect class="basic label-container" style="" x="-113.1484375" y="-51" width="226.296875" height="102"/><g class="label" style="" transform="translate(-83.1484375, -36)"><rect/><foreignObject width="166.296875" height="72"><div xmlns="http://www.w3.org/1999/xhtml" style="display: table-cell; white-space: nowrap; line-height: 1.5; max-width: 200px; text-align: center;"><span class="nodeLabel"><p>fec_cc.encode_bytes()<br />Convolutional encode<br />k=7, r=1/2, terminated</p></span></div></foreignObject></g></g><g class="node default" id="my-svg-flowchart-BITS-7" data-look="classic" transform="translate(995.0190277099609, 59)"><rect class="basic label-container" style="" x="-67.1171875" y="-27" width="134.234375" height="54"/><g class="label" style="" transform="translate(-37.1171875, -12)"><rect/><foreignObject width="74.234375" height="24"><div xmlns="http://www.w3.org/1999/xhtml" style="display: table-cell; white-space: nowrap; line-height: 1.5; max-width: 200px; text-align: center;"><span class="nodeLabel"><p>Bit stream</p></span></div></foreignObject></g></g><g class="node default" id="my-svg-flowchart-FRAME-9" data-look="classic" transform="translate(1214.831527709961, 59)"><rect class="basic label-container" style="" x="-102.6953125" y="-51" width="205.390625" height="102"/><g class="label" style="" transform="translate(-72.6953125, -36)"><rect/><foreignObject width="145.390625" height="72"><div xmlns="http://www.w3.org/1999/xhtml" style="display: table-cell; white-space: nowrap; line-height: 1.5; max-width: 200px; text-align: center;"><span class="nodeLabel"><p>Build frame:<br />Preamble(192b) +<br />Sync(32b) + FEC bits</p></span></div></foreignObject></g></g><g class="node default" id="my-svg-flowchart-MOD-11" data-look="classic" transform="translate(1457.644027709961, 59)"><rect class="basic label-container" style="" x="-90.1171875" y="-27" width="180.234375" height="54"/><g class="label" style="" transform="translate(-60.1171875, -12)"><rect/><foreignObject width="120.234375" height="24"><div xmlns="http://www.w3.org/1999/xhtml" style="display: table-cell; white-space: nowrap; line-height: 1.5; max-width: 200px; text-align: center;"><span class="nodeLabel"><p>bpsk_modulate()</p></span></div></foreignObject></g></g><g class="node default" id="my-svg-flowchart-RRC-13" data-look="classic" transform="translate(1705.581527709961, 59)"><rect class="basic label-container" style="" x="-107.8203125" y="-39" width="215.640625" height="78"/><g class="label" style="" transform="translate(-77.8203125, -24)"><rect/><foreignObject width="155.640625" height="48"><div xmlns="http://www.w3.org/1999/xhtml" style="display: table-cell; white-space: nowrap; line-height: 1.5; max-width: 200px; text-align: center;"><span class="nodeLabel"><p>RRC pulse shape<br />(α=0.35, SPS×11 taps)</p></span></div></foreignObject></g></g><g class="node default" id="my-svg-flowchart-UPSAMP-15" data-look="classic" transform="translate(1947.073715209961, 59)"><rect class="basic label-container" style="" x="-83.671875" y="-27" width="167.34375" height="54"/><g class="label" style="" transform="translate(-53.671875, -12)"><rect/><foreignObject width="107.34375" height="24"><div xmlns="http://www.w3.org/1999/xhtml" style="display: table-cell; white-space: nowrap; line-height: 1.5; max-width: 200px; text-align: center;"><span class="nodeLabel"><p>Upsample ×SPS</p></span></div></foreignObject></g></g><g class="node default" id="my-svg-flowchart-MAP-17" data-look="classic" transform="translate(2168.519027709961, 59)"><rect class="basic label-container" style="" x="-87.7734375" y="-39" width="175.546875" height="78"/><g class="label" style="" transform="translate(-57.7734375, -24)"><rect/><foreignObject width="115.546875" height="48"><div xmlns="http://www.w3.org/1999/xhtml" style="display: table-cell; white-space: nowrap; line-height: 1.5; max-width: 200px; text-align: center;"><span class="nodeLabel"><p>Bit → BPSK<br />symbol mapping</p></span></div></foreignObject></g></g><g class="node default" id="my-svg-flowchart-SHAPE-19" data-look="classic" transform="translate(2415.269027709961, 59)"><rect class="basic label-container" style="fill:#b35c1e !important" x="-108.9765625" y="-39" width="217.953125" height="78"/><g class="label" style="color:#fff !important" transform="translate(-78.9765625, -24)"><rect/><foreignObject width="157.953125" height="48"><div style="color: rgb(255, 255, 255) !important; display: table-cell; white-space: nowrap; line-height: 1.5; max-width: 200px; text-align: center;" xmlns="http://www.w3.org/1999/xhtml"><span style="color:#fff !important" class="nodeLabel"><p>apply_burst_shaping()<br />Hann ramp envelope</p></span></div></foreignObject></g></g><g class="node default" id="my-svg-flowchart-RADIO-21" data-look="classic" transform="translate(2654.737777709961, 59)"><rect class="basic label-container" style="" x="-80.4921875" y="-39" width="160.984375" height="78"/><g class="label" style="" transform="translate(-50.4921875, -24)"><rect/><foreignObject width="100.984375" height="48"><div xmlns="http://www.w3.org/1999/xhtml" style="display: table-cell; white-space: nowrap; line-height: 1.5; max-width: 200px; text-align: center;"><span class="nodeLabel"><p>SoapySDR sink<br />→ HackRF TX</p></span></div></foreignObject></g></g><g class="node default" id="my-svg-flowchart-OUT-23" data-look="classic" transform="translate(2824.433090209961, 59)"><g class="basic label-container" style="fill:#4a6fa5 !important"><circle class="outer-circle" style="fill:#4a6fa5 !important" r="39.203125" cx="0" cy="0"/><circle class="inner-circle" style="fill:#4a6fa5 !important" r="34.203125" cx="0" cy="0"/></g><g class="label" style="color:#fff !important" transform="translate(-24.203125, -12)"><rect/><foreignObject width="48.40625" height="24"><div style="color: rgb(255, 255, 255) !important; display: table-cell; white-space: nowrap; line-height: 1.5; max-width: 200px; text-align: center;" xmlns="http://www.w3.org/1999/xhtml"><span style="color:#fff !important" class="nodeLabel"><p>RF Out</p></span></div></foreignObject></g></g></g></g></g><defs><filter id="my-svg-drop-shadow" height="130%" width="130%"><feDropShadow dx="4" dy="4" stdDeviation="0" flood-opacity="0.06" flood-color="#000000"/></filter></defs><defs><filter id="my-svg-drop-shadow-small" height="150%" width="150%"><feDropShadow dx="2" dy="2" stdDeviation="0" flood-opacity="0.06" flood-color="#000000"/></filter></defs></svg>