%TF.GenerationSoftware,KiCad,Pcbnew,9.0.5*%
%TF.CreationDate,2025-11-24T08:34:37-05:00*%
%TF.ProjectId,devboard,64657662-6f61-4726-942e-6b696361645f,rev?*%
%TF.SameCoordinates,Original*%
%TF.FileFunction,Paste,Top*%
%TF.FilePolarity,Positive*%
%FSLAX46Y46*%
G04 Gerber Fmt 4.6, Leading zero omitted, Abs format (unit mm)*
G04 Created by KiCad (PCBNEW 9.0.5) date 2025-11-24 08:34:37*
%MOMM*%
%LPD*%
G01*
G04 APERTURE LIST*
G04 Aperture macros list*
%AMRoundRect*
0 Rectangle with rounded corners*
0 $1 Rounding radius*
0 $2 $3 $4 $5 $6 $7 $8 $9 X,Y pos of 4 corners*
0 Add a 4 corners polygon primitive as box body*
4,1,4,$2,$3,$4,$5,$6,$7,$8,$9,$2,$3,0*
0 Add four circle primitives for the rounded corners*
1,1,$1+$1,$2,$3*
1,1,$1+$1,$4,$5*
1,1,$1+$1,$6,$7*
1,1,$1+$1,$8,$9*
0 Add four rect primitives between the rounded corners*
20,1,$1+$1,$2,$3,$4,$5,0*
20,1,$1+$1,$4,$5,$6,$7,0*
20,1,$1+$1,$6,$7,$8,$9,0*
20,1,$1+$1,$8,$9,$2,$3,0*%
%AMFreePoly0*
4,1,230,1.181581,1.191743,1.183810,1.191000,1.185000,1.191000,1.186581,1.190743,1.188810,1.190000,1.190000,1.190000,1.191581,1.189743,1.194581,1.188743,1.195236,1.188472,1.196920,1.187630,1.199581,1.186743,1.201536,1.185536,1.202964,1.184108,1.204236,1.183472,1.205536,1.182536,1.206964,1.181108,1.208236,1.180472,1.209536,1.179536,1.217536,1.171536,1.218472,1.170236,
1.219108,1.168964,1.220536,1.167536,1.221472,1.166236,1.222108,1.164964,1.223536,1.163536,1.224743,1.161581,1.225630,1.158920,1.226472,1.157236,1.226743,1.156581,1.227743,1.153581,1.228000,1.152000,1.228000,1.150810,1.228743,1.148581,1.229000,1.147000,1.229000,1.145810,1.229743,1.143581,1.230000,1.142000,1.230000,-0.093000,1.229472,-0.095236,1.229000,-0.096180,
1.229000,-0.098000,1.228472,-0.100236,1.228000,-0.101180,1.228000,-0.103000,1.227472,-0.105236,1.226630,-0.106920,1.225743,-0.109581,1.225472,-0.110236,1.224472,-0.112236,1.223536,-0.113536,1.222369,-0.114703,1.221743,-0.116581,1.220536,-0.118536,1.219108,-0.119964,1.218472,-0.121236,1.217536,-0.122536,1.211536,-0.128536,1.210236,-0.129472,1.208964,-0.130108,1.207536,-0.131536,
1.206236,-0.132472,1.204964,-0.133108,1.203536,-0.134536,1.202236,-0.135472,1.200236,-0.136472,1.199581,-0.136743,1.196920,-0.137630,1.195236,-0.138472,1.194581,-0.138743,1.191920,-0.139630,1.190236,-0.140472,1.188000,-0.141000,1.186180,-0.141000,1.185236,-0.141472,1.183000,-0.142000,-0.458000,-0.142000,-0.460236,-0.141472,-0.461180,-0.141000,-0.463000,-0.141000,-0.465236,-0.140472,
-0.466920,-0.139630,-0.469581,-0.138743,-0.470236,-0.138472,-0.471920,-0.137630,-0.474581,-0.136743,-0.475236,-0.136472,-0.477236,-0.135472,-0.478536,-0.134536,-0.479964,-0.133108,-0.481236,-0.132472,-0.482536,-0.131536,-0.483964,-0.130108,-0.485236,-0.129472,-0.486536,-0.128536,-0.492536,-0.122536,-0.493472,-0.121236,-0.494108,-0.119964,-0.495536,-0.118536,-0.496743,-0.116581,-0.497369,-0.114703,
-0.498536,-0.113536,-0.499472,-0.112236,-0.500472,-0.110236,-0.500743,-0.109581,-0.501630,-0.106920,-0.502472,-0.105236,-0.503000,-0.103000,-0.503000,-0.101180,-0.503472,-0.100236,-0.504000,-0.098000,-0.504000,-0.096180,-0.504472,-0.095236,-0.505000,-0.093000,-0.505000,0.093000,-0.504472,0.095236,-0.504000,0.096180,-0.504000,0.098000,-0.503472,0.100236,-0.503000,0.101180,-0.503000,0.103000,
-0.502472,0.105236,-0.501630,0.106920,-0.500743,0.109581,-0.500472,0.110236,-0.499472,0.112236,-0.499160,0.112774,-0.497332,0.115516,-0.496472,0.117236,-0.495536,0.118536,-0.494108,0.119964,-0.493472,0.121236,-0.492536,0.122536,-0.486536,0.128536,-0.485236,0.129472,-0.483964,0.130108,-0.482536,0.131536,-0.481236,0.132472,-0.479964,0.133108,-0.478536,0.134536,-0.477236,0.135472,
-0.475236,0.136472,-0.474581,0.136743,-0.471920,0.137630,-0.470236,0.138472,-0.469581,0.138743,-0.466920,0.139630,-0.465236,0.140472,-0.463000,0.141000,-0.461180,0.141000,-0.460236,0.141472,-0.458000,0.142000,-0.453810,0.142000,-0.451581,0.142743,-0.450000,0.143000,0.771820,0.143000,0.772764,0.143472,0.775000,0.144000,0.775585,0.144000,0.778000,0.145000,0.779585,0.145000,
0.780953,0.145566,0.782764,0.146472,0.783596,0.146668,0.784464,0.147536,0.786170,0.148242,0.786464,0.148536,0.787764,0.149472,0.789764,0.150472,0.790596,0.150668,0.792464,0.152536,0.794170,0.153242,0.796464,0.155536,0.956453,0.316525,0.960757,0.320829,0.961464,0.322536,0.963757,0.324829,0.964464,0.326536,0.964892,0.326964,0.965433,0.328046,0.966464,0.330536,
0.966757,0.330829,0.967000,0.331415,0.967000,0.332000,0.968000,0.334415,0.968000,0.335000,0.968528,0.337236,0.969000,0.338180,0.969000,0.340000,0.969528,0.342236,0.970000,0.343180,0.970000,1.142000,0.970257,1.143581,0.971000,1.145810,0.971000,1.147000,0.971257,1.148581,0.972000,1.150810,0.972000,1.152000,0.972257,1.153581,0.973257,1.156581,0.973528,1.157236,
0.974370,1.158920,0.975257,1.161581,0.976464,1.163536,0.977892,1.164964,0.978528,1.166236,0.979464,1.167536,0.980892,1.168964,0.981528,1.170236,0.982464,1.171536,0.990464,1.179536,0.991764,1.180472,0.993036,1.181108,0.994464,1.182536,0.995764,1.183472,0.997036,1.184108,0.998464,1.185536,1.000419,1.186743,1.003080,1.187630,1.004764,1.188472,1.005419,1.188743,
1.008419,1.189743,1.010000,1.190000,1.011190,1.190000,1.013419,1.190743,1.015000,1.191000,1.016190,1.191000,1.018419,1.191743,1.020000,1.192000,1.180000,1.192000,1.181581,1.191743,1.181581,1.191743,$1*%
G04 Aperture macros list end*
%ADD10C,0.010000*%
%ADD11RoundRect,0.140000X0.170000X-0.140000X0.170000X0.140000X-0.170000X0.140000X-0.170000X-0.140000X0*%
%ADD12RoundRect,0.250000X0.325000X0.650000X-0.325000X0.650000X-0.325000X-0.650000X0.325000X-0.650000X0*%
%ADD13RoundRect,0.200000X0.200000X0.275000X-0.200000X0.275000X-0.200000X-0.275000X0.200000X-0.275000X0*%
%ADD14RoundRect,0.250000X-0.325000X-0.650000X0.325000X-0.650000X0.325000X0.650000X-0.325000X0.650000X0*%
%ADD15RoundRect,0.225000X-0.225000X-0.375000X0.225000X-0.375000X0.225000X0.375000X-0.225000X0.375000X0*%
%ADD16RoundRect,0.050000X-0.350000X-0.075000X0.350000X-0.075000X0.350000X0.075000X-0.350000X0.075000X0*%
%ADD17FreePoly0,0.000000*%
%ADD18RoundRect,0.049500X-0.100500X-0.225500X0.100500X-0.225500X0.100500X0.225500X-0.100500X0.225500X0*%
%ADD19RoundRect,0.200000X0.275000X-0.200000X0.275000X0.200000X-0.275000X0.200000X-0.275000X-0.200000X0*%
%ADD20RoundRect,0.200000X-0.275000X0.200000X-0.275000X-0.200000X0.275000X-0.200000X0.275000X0.200000X0*%
%ADD21RoundRect,0.049880X0.400120X0.380120X-0.400120X0.380120X-0.400120X-0.380120X0.400120X-0.380120X0*%
%ADD22RoundRect,0.049880X0.300120X0.095120X-0.300120X0.095120X-0.300120X-0.095120X0.300120X-0.095120X0*%
%ADD23RoundRect,0.050100X0.174900X0.099900X-0.174900X0.099900X-0.174900X-0.099900X0.174900X-0.099900X0*%
%ADD24RoundRect,0.200000X-0.200000X-0.275000X0.200000X-0.275000X0.200000X0.275000X-0.200000X0.275000X0*%
%ADD25R,0.806399X0.254800*%
%ADD26R,0.889000X1.295400*%
%ADD27RoundRect,0.140000X0.140000X0.170000X-0.140000X0.170000X-0.140000X-0.170000X0.140000X-0.170000X0*%
%ADD28RoundRect,0.250000X0.650000X-0.325000X0.650000X0.325000X-0.650000X0.325000X-0.650000X-0.325000X0*%
%ADD29RoundRect,0.150000X-0.150000X-0.700000X0.150000X-0.700000X0.150000X0.700000X-0.150000X0.700000X0*%
%ADD30RoundRect,0.250000X-0.250000X-1.100000X0.250000X-1.100000X0.250000X1.100000X-0.250000X1.100000X0*%
%ADD31R,1.397000X1.447800*%
%ADD32RoundRect,0.140000X-0.170000X0.140000X-0.170000X-0.140000X0.170000X-0.140000X0.170000X0.140000X0*%
%ADD33RoundRect,0.150000X0.150000X-0.587500X0.150000X0.587500X-0.150000X0.587500X-0.150000X-0.587500X0*%
%ADD34RoundRect,0.250000X0.475000X-0.250000X0.475000X0.250000X-0.475000X0.250000X-0.475000X-0.250000X0*%
%ADD35RoundRect,0.250000X-0.625000X0.312500X-0.625000X-0.312500X0.625000X-0.312500X0.625000X0.312500X0*%
%ADD36RoundRect,0.150000X-0.587500X-0.150000X0.587500X-0.150000X0.587500X0.150000X-0.587500X0.150000X0*%
%ADD37RoundRect,0.243750X-0.243750X-0.456250X0.243750X-0.456250X0.243750X0.456250X-0.243750X0.456250X0*%
%ADD38RoundRect,0.150000X0.512500X0.150000X-0.512500X0.150000X-0.512500X-0.150000X0.512500X-0.150000X0*%
%ADD39RoundRect,0.050000X-0.112500X-0.050000X0.112500X-0.050000X0.112500X0.050000X-0.112500X0.050000X0*%
%ADD40RoundRect,0.050000X-0.050000X-0.112500X0.050000X-0.112500X0.050000X0.112500X-0.050000X0.112500X0*%
%ADD41RoundRect,0.100000X-0.175000X-0.100000X0.175000X-0.100000X0.175000X0.100000X-0.175000X0.100000X0*%
%ADD42RoundRect,0.100000X-0.100000X-0.175000X0.100000X-0.175000X0.100000X0.175000X-0.100000X0.175000X0*%
%ADD43RoundRect,0.150000X-0.512500X-0.150000X0.512500X-0.150000X0.512500X0.150000X-0.512500X0.150000X0*%
%ADD44RoundRect,0.250000X-0.475000X0.250000X-0.475000X-0.250000X0.475000X-0.250000X0.475000X0.250000X0*%
%ADD45R,5.410200X2.895600*%
%ADD46R,1.000000X1.600000*%
%ADD47RoundRect,0.140000X-0.140000X-0.170000X0.140000X-0.170000X0.140000X0.170000X-0.140000X0.170000X0*%
%ADD48RoundRect,0.150000X-0.150000X0.587500X-0.150000X-0.587500X0.150000X-0.587500X0.150000X0.587500X0*%
%ADD49R,1.910000X0.610000*%
%ADD50R,0.723000X0.930000*%
G04 APERTURE END LIST*
D10*
%TO.C,PS1*%
X132675887Y-54766834D02*
X132677887Y-54766834D01*
X132680887Y-54767834D01*
X132682887Y-54767834D01*
X132685887Y-54768834D01*
X132687887Y-54769834D01*
X132690887Y-54770834D01*
X132692887Y-54772834D01*
X132694887Y-54773834D01*
X132696887Y-54775834D01*
X132698887Y-54776834D01*
X132700887Y-54778834D01*
X132702887Y-54780834D01*
X132704887Y-54782834D01*
X132706887Y-54784834D01*
X132707887Y-54786834D01*
X132709887Y-54788834D01*
X132710887Y-54790834D01*
X132712887Y-54792834D01*
X132713887Y-54795834D01*
X132714887Y-54797834D01*
X132715887Y-54800834D01*
X132715887Y-54802834D01*
X132716887Y-54805834D01*
X132716887Y-54807834D01*
X132717887Y-54810834D01*
X132717887Y-54812834D01*
X132717887Y-54815834D01*
X132717887Y-54965834D01*
X132717887Y-54968834D01*
X132717887Y-54970834D01*
X132716887Y-54973834D01*
X132716887Y-54975834D01*
X132715887Y-54978834D01*
X132715887Y-54980834D01*
X132714887Y-54983834D01*
X132713887Y-54985834D01*
X132712887Y-54988834D01*
X132710887Y-54990834D01*
X132709887Y-54992834D01*
X132707887Y-54994834D01*
X132706887Y-54996834D01*
X132704887Y-54998834D01*
X132702887Y-55000834D01*
X132700887Y-55002834D01*
X132698887Y-55004834D01*
X132696887Y-55005834D01*
X132694887Y-55007834D01*
X132692887Y-55008834D01*
X132690887Y-55010834D01*
X132687887Y-55011834D01*
X132685887Y-55012834D01*
X132682887Y-55013834D01*
X132680887Y-55013834D01*
X132677887Y-55014834D01*
X132675887Y-55014834D01*
X132672887Y-55015834D01*
X132670887Y-55015834D01*
X132667887Y-55015834D01*
X132317887Y-55015834D01*
X132314887Y-55015834D01*
X132312887Y-55015834D01*
X132309887Y-55014834D01*
X132307887Y-55014834D01*
X132304887Y-55013834D01*
X132302887Y-55013834D01*
X132299887Y-55012834D01*
X132297887Y-55011834D01*
X132294887Y-55010834D01*
X132292887Y-55008834D01*
X132290887Y-55007834D01*
X132288887Y-55005834D01*
X132286887Y-55004834D01*
X132284887Y-55002834D01*
X132282887Y-55000834D01*
X132280887Y-54998834D01*
X132278887Y-54996834D01*
X132277887Y-54994834D01*
X132275887Y-54992834D01*
X132274887Y-54990834D01*
X132272887Y-54988834D01*
X132271887Y-54985834D01*
X132270887Y-54983834D01*
X132269887Y-54980834D01*
X132269887Y-54978834D01*
X132268887Y-54975834D01*
X132268887Y-54973834D01*
X132267887Y-54970834D01*
X132267887Y-54968834D01*
X132267887Y-54965834D01*
X132267887Y-54815834D01*
X132267887Y-54812834D01*
X132267887Y-54810834D01*
X132268887Y-54807834D01*
X132268887Y-54805834D01*
X132269887Y-54802834D01*
X132269887Y-54800834D01*
X132270887Y-54797834D01*
X132271887Y-54795834D01*
X132272887Y-54792834D01*
X132274887Y-54790834D01*
X132275887Y-54788834D01*
X132277887Y-54786834D01*
X132278887Y-54784834D01*
X132280887Y-54782834D01*
X132282887Y-54780834D01*
X132284887Y-54778834D01*
X132286887Y-54776834D01*
X132288887Y-54775834D01*
X132290887Y-54773834D01*
X132292887Y-54772834D01*
X132294887Y-54770834D01*
X132297887Y-54769834D01*
X132299887Y-54768834D01*
X132302887Y-54767834D01*
X132304887Y-54767834D01*
X132307887Y-54766834D01*
X132309887Y-54766834D01*
X132312887Y-54765834D01*
X132314887Y-54765834D01*
X132317887Y-54765834D01*
X132667887Y-54765834D01*
X132670887Y-54765834D01*
X132672887Y-54765834D01*
X132675887Y-54766834D01*
G36*
X132675887Y-54766834D02*
G01*
X132677887Y-54766834D01*
X132680887Y-54767834D01*
X132682887Y-54767834D01*
X132685887Y-54768834D01*
X132687887Y-54769834D01*
X132690887Y-54770834D01*
X132692887Y-54772834D01*
X132694887Y-54773834D01*
X132696887Y-54775834D01*
X132698887Y-54776834D01*
X132700887Y-54778834D01*
X132702887Y-54780834D01*
X132704887Y-54782834D01*
X132706887Y-54784834D01*
X132707887Y-54786834D01*
X132709887Y-54788834D01*
X132710887Y-54790834D01*
X132712887Y-54792834D01*
X132713887Y-54795834D01*
X132714887Y-54797834D01*
X132715887Y-54800834D01*
X132715887Y-54802834D01*
X132716887Y-54805834D01*
X132716887Y-54807834D01*
X132717887Y-54810834D01*
X132717887Y-54812834D01*
X132717887Y-54815834D01*
X132717887Y-54965834D01*
X132717887Y-54968834D01*
X132717887Y-54970834D01*
X132716887Y-54973834D01*
X132716887Y-54975834D01*
X132715887Y-54978834D01*
X132715887Y-54980834D01*
X132714887Y-54983834D01*
X132713887Y-54985834D01*
X132712887Y-54988834D01*
X132710887Y-54990834D01*
X132709887Y-54992834D01*
X132707887Y-54994834D01*
X132706887Y-54996834D01*
X132704887Y-54998834D01*
X132702887Y-55000834D01*
X132700887Y-55002834D01*
X132698887Y-55004834D01*
X132696887Y-55005834D01*
X132694887Y-55007834D01*
X132692887Y-55008834D01*
X132690887Y-55010834D01*
X132687887Y-55011834D01*
X132685887Y-55012834D01*
X132682887Y-55013834D01*
X132680887Y-55013834D01*
X132677887Y-55014834D01*
X132675887Y-55014834D01*
X132672887Y-55015834D01*
X132670887Y-55015834D01*
X132667887Y-55015834D01*
X132317887Y-55015834D01*
X132314887Y-55015834D01*
X132312887Y-55015834D01*
X132309887Y-55014834D01*
X132307887Y-55014834D01*
X132304887Y-55013834D01*
X132302887Y-55013834D01*
X132299887Y-55012834D01*
X132297887Y-55011834D01*
X132294887Y-55010834D01*
X132292887Y-55008834D01*
X132290887Y-55007834D01*
X132288887Y-55005834D01*
X132286887Y-55004834D01*
X132284887Y-55002834D01*
X132282887Y-55000834D01*
X132280887Y-54998834D01*
X132278887Y-54996834D01*
X132277887Y-54994834D01*
X132275887Y-54992834D01*
X132274887Y-54990834D01*
X132272887Y-54988834D01*
X132271887Y-54985834D01*
X132270887Y-54983834D01*
X132269887Y-54980834D01*
X132269887Y-54978834D01*
X132268887Y-54975834D01*
X132268887Y-54973834D01*
X132267887Y-54970834D01*
X132267887Y-54968834D01*
X132267887Y-54965834D01*
X132267887Y-54815834D01*
X132267887Y-54812834D01*
X132267887Y-54810834D01*
X132268887Y-54807834D01*
X132268887Y-54805834D01*
X132269887Y-54802834D01*
X132269887Y-54800834D01*
X132270887Y-54797834D01*
X132271887Y-54795834D01*
X132272887Y-54792834D01*
X132274887Y-54790834D01*
X132275887Y-54788834D01*
X132277887Y-54786834D01*
X132278887Y-54784834D01*
X132280887Y-54782834D01*
X132282887Y-54780834D01*
X132284887Y-54778834D01*
X132286887Y-54776834D01*
X132288887Y-54775834D01*
X132290887Y-54773834D01*
X132292887Y-54772834D01*
X132294887Y-54770834D01*
X132297887Y-54769834D01*
X132299887Y-54768834D01*
X132302887Y-54767834D01*
X132304887Y-54767834D01*
X132307887Y-54766834D01*
X132309887Y-54766834D01*
X132312887Y-54765834D01*
X132314887Y-54765834D01*
X132317887Y-54765834D01*
X132667887Y-54765834D01*
X132670887Y-54765834D01*
X132672887Y-54765834D01*
X132675887Y-54766834D01*
G37*
X132675887Y-55266834D02*
X132677887Y-55266834D01*
X132680887Y-55267834D01*
X132682887Y-55267834D01*
X132685887Y-55268834D01*
X132687887Y-55269834D01*
X132690887Y-55270834D01*
X132692887Y-55272834D01*
X132694887Y-55273834D01*
X132696887Y-55275834D01*
X132698887Y-55276834D01*
X132700887Y-55278834D01*
X132702887Y-55280834D01*
X132704887Y-55282834D01*
X132706887Y-55284834D01*
X132707887Y-55286834D01*
X132709887Y-55288834D01*
X132710887Y-55290834D01*
X132712887Y-55292834D01*
X132713887Y-55295834D01*
X132714887Y-55297834D01*
X132715887Y-55300834D01*
X132715887Y-55302834D01*
X132716887Y-55305834D01*
X132716887Y-55307834D01*
X132717887Y-55310834D01*
X132717887Y-55312834D01*
X132717887Y-55315834D01*
X132717887Y-55465834D01*
X132717887Y-55468834D01*
X132717887Y-55470834D01*
X132716887Y-55473834D01*
X132716887Y-55475834D01*
X132715887Y-55478834D01*
X132715887Y-55480834D01*
X132714887Y-55483834D01*
X132713887Y-55485834D01*
X132712887Y-55488834D01*
X132710887Y-55490834D01*
X132709887Y-55492834D01*
X132707887Y-55494834D01*
X132706887Y-55496834D01*
X132704887Y-55498834D01*
X132702887Y-55500834D01*
X132700887Y-55502834D01*
X132698887Y-55504834D01*
X132696887Y-55505834D01*
X132694887Y-55507834D01*
X132692887Y-55508834D01*
X132690887Y-55510834D01*
X132687887Y-55511834D01*
X132685887Y-55512834D01*
X132682887Y-55513834D01*
X132680887Y-55513834D01*
X132677887Y-55514834D01*
X132675887Y-55514834D01*
X132672887Y-55515834D01*
X132670887Y-55515834D01*
X132667887Y-55515834D01*
X132317887Y-55515834D01*
X132314887Y-55515834D01*
X132312887Y-55515834D01*
X132309887Y-55514834D01*
X132307887Y-55514834D01*
X132304887Y-55513834D01*
X132302887Y-55513834D01*
X132299887Y-55512834D01*
X132297887Y-55511834D01*
X132294887Y-55510834D01*
X132292887Y-55508834D01*
X132290887Y-55507834D01*
X132288887Y-55505834D01*
X132286887Y-55504834D01*
X132284887Y-55502834D01*
X132282887Y-55500834D01*
X132280887Y-55498834D01*
X132278887Y-55496834D01*
X132277887Y-55494834D01*
X132275887Y-55492834D01*
X132274887Y-55490834D01*
X132272887Y-55488834D01*
X132271887Y-55485834D01*
X132270887Y-55483834D01*
X132269887Y-55480834D01*
X132269887Y-55478834D01*
X132268887Y-55475834D01*
X132268887Y-55473834D01*
X132267887Y-55470834D01*
X132267887Y-55468834D01*
X132267887Y-55465834D01*
X132267887Y-55315834D01*
X132267887Y-55312834D01*
X132267887Y-55310834D01*
X132268887Y-55307834D01*
X132268887Y-55305834D01*
X132269887Y-55302834D01*
X132269887Y-55300834D01*
X132270887Y-55297834D01*
X132271887Y-55295834D01*
X132272887Y-55292834D01*
X132274887Y-55290834D01*
X132275887Y-55288834D01*
X132277887Y-55286834D01*
X132278887Y-55284834D01*
X132280887Y-55282834D01*
X132282887Y-55280834D01*
X132284887Y-55278834D01*
X132286887Y-55276834D01*
X132288887Y-55275834D01*
X132290887Y-55273834D01*
X132292887Y-55272834D01*
X132294887Y-55270834D01*
X132297887Y-55269834D01*
X132299887Y-55268834D01*
X132302887Y-55267834D01*
X132304887Y-55267834D01*
X132307887Y-55266834D01*
X132309887Y-55266834D01*
X132312887Y-55265834D01*
X132314887Y-55265834D01*
X132317887Y-55265834D01*
X132667887Y-55265834D01*
X132670887Y-55265834D01*
X132672887Y-55265834D01*
X132675887Y-55266834D01*
G36*
X132675887Y-55266834D02*
G01*
X132677887Y-55266834D01*
X132680887Y-55267834D01*
X132682887Y-55267834D01*
X132685887Y-55268834D01*
X132687887Y-55269834D01*
X132690887Y-55270834D01*
X132692887Y-55272834D01*
X132694887Y-55273834D01*
X132696887Y-55275834D01*
X132698887Y-55276834D01*
X132700887Y-55278834D01*
X132702887Y-55280834D01*
X132704887Y-55282834D01*
X132706887Y-55284834D01*
X132707887Y-55286834D01*
X132709887Y-55288834D01*
X132710887Y-55290834D01*
X132712887Y-55292834D01*
X132713887Y-55295834D01*
X132714887Y-55297834D01*
X132715887Y-55300834D01*
X132715887Y-55302834D01*
X132716887Y-55305834D01*
X132716887Y-55307834D01*
X132717887Y-55310834D01*
X132717887Y-55312834D01*
X132717887Y-55315834D01*
X132717887Y-55465834D01*
X132717887Y-55468834D01*
X132717887Y-55470834D01*
X132716887Y-55473834D01*
X132716887Y-55475834D01*
X132715887Y-55478834D01*
X132715887Y-55480834D01*
X132714887Y-55483834D01*
X132713887Y-55485834D01*
X132712887Y-55488834D01*
X132710887Y-55490834D01*
X132709887Y-55492834D01*
X132707887Y-55494834D01*
X132706887Y-55496834D01*
X132704887Y-55498834D01*
X132702887Y-55500834D01*
X132700887Y-55502834D01*
X132698887Y-55504834D01*
X132696887Y-55505834D01*
X132694887Y-55507834D01*
X132692887Y-55508834D01*
X132690887Y-55510834D01*
X132687887Y-55511834D01*
X132685887Y-55512834D01*
X132682887Y-55513834D01*
X132680887Y-55513834D01*
X132677887Y-55514834D01*
X132675887Y-55514834D01*
X132672887Y-55515834D01*
X132670887Y-55515834D01*
X132667887Y-55515834D01*
X132317887Y-55515834D01*
X132314887Y-55515834D01*
X132312887Y-55515834D01*
X132309887Y-55514834D01*
X132307887Y-55514834D01*
X132304887Y-55513834D01*
X132302887Y-55513834D01*
X132299887Y-55512834D01*
X132297887Y-55511834D01*
X132294887Y-55510834D01*
X132292887Y-55508834D01*
X132290887Y-55507834D01*
X132288887Y-55505834D01*
X132286887Y-55504834D01*
X132284887Y-55502834D01*
X132282887Y-55500834D01*
X132280887Y-55498834D01*
X132278887Y-55496834D01*
X132277887Y-55494834D01*
X132275887Y-55492834D01*
X132274887Y-55490834D01*
X132272887Y-55488834D01*
X132271887Y-55485834D01*
X132270887Y-55483834D01*
X132269887Y-55480834D01*
X132269887Y-55478834D01*
X132268887Y-55475834D01*
X132268887Y-55473834D01*
X132267887Y-55470834D01*
X132267887Y-55468834D01*
X132267887Y-55465834D01*
X132267887Y-55315834D01*
X132267887Y-55312834D01*
X132267887Y-55310834D01*
X132268887Y-55307834D01*
X132268887Y-55305834D01*
X132269887Y-55302834D01*
X132269887Y-55300834D01*
X132270887Y-55297834D01*
X132271887Y-55295834D01*
X132272887Y-55292834D01*
X132274887Y-55290834D01*
X132275887Y-55288834D01*
X132277887Y-55286834D01*
X132278887Y-55284834D01*
X132280887Y-55282834D01*
X132282887Y-55280834D01*
X132284887Y-55278834D01*
X132286887Y-55276834D01*
X132288887Y-55275834D01*
X132290887Y-55273834D01*
X132292887Y-55272834D01*
X132294887Y-55270834D01*
X132297887Y-55269834D01*
X132299887Y-55268834D01*
X132302887Y-55267834D01*
X132304887Y-55267834D01*
X132307887Y-55266834D01*
X132309887Y-55266834D01*
X132312887Y-55265834D01*
X132314887Y-55265834D01*
X132317887Y-55265834D01*
X132667887Y-55265834D01*
X132670887Y-55265834D01*
X132672887Y-55265834D01*
X132675887Y-55266834D01*
G37*
X132675887Y-54266834D02*
X132677887Y-54266834D01*
X132680887Y-54267834D01*
X132682887Y-54267834D01*
X132685887Y-54268834D01*
X132687887Y-54269834D01*
X132690887Y-54270834D01*
X132692887Y-54272834D01*
X132694887Y-54273834D01*
X132696887Y-54275834D01*
X132698887Y-54276834D01*
X132700887Y-54278834D01*
X132702887Y-54280834D01*
X132704887Y-54282834D01*
X132706887Y-54284834D01*
X132707887Y-54286834D01*
X132709887Y-54288834D01*
X132710887Y-54290834D01*
X132712887Y-54292834D01*
X132713887Y-54295834D01*
X132714887Y-54297834D01*
X132715887Y-54300834D01*
X132715887Y-54302834D01*
X132716887Y-54305834D01*
X132716887Y-54307834D01*
X132717887Y-54310834D01*
X132717887Y-54312834D01*
X132717887Y-54315834D01*
X132717887Y-54465834D01*
X132717887Y-54468834D01*
X132717887Y-54470834D01*
X132716887Y-54473834D01*
X132716887Y-54475834D01*
X132715887Y-54478834D01*
X132715887Y-54480834D01*
X132714887Y-54483834D01*
X132713887Y-54485834D01*
X132712887Y-54488834D01*
X132710887Y-54490834D01*
X132709887Y-54492834D01*
X132707887Y-54494834D01*
X132706887Y-54496834D01*
X132704887Y-54498834D01*
X132702887Y-54500834D01*
X132700887Y-54502834D01*
X132698887Y-54504834D01*
X132696887Y-54505834D01*
X132694887Y-54507834D01*
X132692887Y-54508834D01*
X132690887Y-54510834D01*
X132687887Y-54511834D01*
X132685887Y-54512834D01*
X132682887Y-54513834D01*
X132680887Y-54513834D01*
X132677887Y-54514834D01*
X132675887Y-54514834D01*
X132672887Y-54515834D01*
X132670887Y-54515834D01*
X132667887Y-54515834D01*
X132317887Y-54515834D01*
X132314887Y-54515834D01*
X132312887Y-54515834D01*
X132309887Y-54514834D01*
X132307887Y-54514834D01*
X132304887Y-54513834D01*
X132302887Y-54513834D01*
X132299887Y-54512834D01*
X132297887Y-54511834D01*
X132294887Y-54510834D01*
X132292887Y-54508834D01*
X132290887Y-54507834D01*
X132288887Y-54505834D01*
X132286887Y-54504834D01*
X132284887Y-54502834D01*
X132282887Y-54500834D01*
X132280887Y-54498834D01*
X132278887Y-54496834D01*
X132277887Y-54494834D01*
X132275887Y-54492834D01*
X132274887Y-54490834D01*
X132272887Y-54488834D01*
X132271887Y-54485834D01*
X132270887Y-54483834D01*
X132269887Y-54480834D01*
X132269887Y-54478834D01*
X132268887Y-54475834D01*
X132268887Y-54473834D01*
X132267887Y-54470834D01*
X132267887Y-54468834D01*
X132267887Y-54465834D01*
X132267887Y-54315834D01*
X132267887Y-54312834D01*
X132267887Y-54310834D01*
X132268887Y-54307834D01*
X132268887Y-54305834D01*
X132269887Y-54302834D01*
X132269887Y-54300834D01*
X132270887Y-54297834D01*
X132271887Y-54295834D01*
X132272887Y-54292834D01*
X132274887Y-54290834D01*
X132275887Y-54288834D01*
X132277887Y-54286834D01*
X132278887Y-54284834D01*
X132280887Y-54282834D01*
X132282887Y-54280834D01*
X132284887Y-54278834D01*
X132286887Y-54276834D01*
X132288887Y-54275834D01*
X132290887Y-54273834D01*
X132292887Y-54272834D01*
X132294887Y-54270834D01*
X132297887Y-54269834D01*
X132299887Y-54268834D01*
X132302887Y-54267834D01*
X132304887Y-54267834D01*
X132307887Y-54266834D01*
X132309887Y-54266834D01*
X132312887Y-54265834D01*
X132314887Y-54265834D01*
X132317887Y-54265834D01*
X132667887Y-54265834D01*
X132670887Y-54265834D01*
X132672887Y-54265834D01*
X132675887Y-54266834D01*
G36*
X132675887Y-54266834D02*
G01*
X132677887Y-54266834D01*
X132680887Y-54267834D01*
X132682887Y-54267834D01*
X132685887Y-54268834D01*
X132687887Y-54269834D01*
X132690887Y-54270834D01*
X132692887Y-54272834D01*
X132694887Y-54273834D01*
X132696887Y-54275834D01*
X132698887Y-54276834D01*
X132700887Y-54278834D01*
X132702887Y-54280834D01*
X132704887Y-54282834D01*
X132706887Y-54284834D01*
X132707887Y-54286834D01*
X132709887Y-54288834D01*
X132710887Y-54290834D01*
X132712887Y-54292834D01*
X132713887Y-54295834D01*
X132714887Y-54297834D01*
X132715887Y-54300834D01*
X132715887Y-54302834D01*
X132716887Y-54305834D01*
X132716887Y-54307834D01*
X132717887Y-54310834D01*
X132717887Y-54312834D01*
X132717887Y-54315834D01*
X132717887Y-54465834D01*
X132717887Y-54468834D01*
X132717887Y-54470834D01*
X132716887Y-54473834D01*
X132716887Y-54475834D01*
X132715887Y-54478834D01*
X132715887Y-54480834D01*
X132714887Y-54483834D01*
X132713887Y-54485834D01*
X132712887Y-54488834D01*
X132710887Y-54490834D01*
X132709887Y-54492834D01*
X132707887Y-54494834D01*
X132706887Y-54496834D01*
X132704887Y-54498834D01*
X132702887Y-54500834D01*
X132700887Y-54502834D01*
X132698887Y-54504834D01*
X132696887Y-54505834D01*
X132694887Y-54507834D01*
X132692887Y-54508834D01*
X132690887Y-54510834D01*
X132687887Y-54511834D01*
X132685887Y-54512834D01*
X132682887Y-54513834D01*
X132680887Y-54513834D01*
X132677887Y-54514834D01*
X132675887Y-54514834D01*
X132672887Y-54515834D01*
X132670887Y-54515834D01*
X132667887Y-54515834D01*
X132317887Y-54515834D01*
X132314887Y-54515834D01*
X132312887Y-54515834D01*
X132309887Y-54514834D01*
X132307887Y-54514834D01*
X132304887Y-54513834D01*
X132302887Y-54513834D01*
X132299887Y-54512834D01*
X132297887Y-54511834D01*
X132294887Y-54510834D01*
X132292887Y-54508834D01*
X132290887Y-54507834D01*
X132288887Y-54505834D01*
X132286887Y-54504834D01*
X132284887Y-54502834D01*
X132282887Y-54500834D01*
X132280887Y-54498834D01*
X132278887Y-54496834D01*
X132277887Y-54494834D01*
X132275887Y-54492834D01*
X132274887Y-54490834D01*
X132272887Y-54488834D01*
X132271887Y-54485834D01*
X132270887Y-54483834D01*
X132269887Y-54480834D01*
X132269887Y-54478834D01*
X132268887Y-54475834D01*
X132268887Y-54473834D01*
X132267887Y-54470834D01*
X132267887Y-54468834D01*
X132267887Y-54465834D01*
X132267887Y-54315834D01*
X132267887Y-54312834D01*
X132267887Y-54310834D01*
X132268887Y-54307834D01*
X132268887Y-54305834D01*
X132269887Y-54302834D01*
X132269887Y-54300834D01*
X132270887Y-54297834D01*
X132271887Y-54295834D01*
X132272887Y-54292834D01*
X132274887Y-54290834D01*
X132275887Y-54288834D01*
X132277887Y-54286834D01*
X132278887Y-54284834D01*
X132280887Y-54282834D01*
X132282887Y-54280834D01*
X132284887Y-54278834D01*
X132286887Y-54276834D01*
X132288887Y-54275834D01*
X132290887Y-54273834D01*
X132292887Y-54272834D01*
X132294887Y-54270834D01*
X132297887Y-54269834D01*
X132299887Y-54268834D01*
X132302887Y-54267834D01*
X132304887Y-54267834D01*
X132307887Y-54266834D01*
X132309887Y-54266834D01*
X132312887Y-54265834D01*
X132314887Y-54265834D01*
X132317887Y-54265834D01*
X132667887Y-54265834D01*
X132670887Y-54265834D01*
X132672887Y-54265834D01*
X132675887Y-54266834D01*
G37*
X133950887Y-52076834D02*
X133952887Y-52076834D01*
X133955887Y-52077834D01*
X133957887Y-52077834D01*
X133960887Y-52078834D01*
X133962887Y-52079834D01*
X133965887Y-52080834D01*
X133967887Y-52082834D01*
X133969887Y-52083834D01*
X133971887Y-52085834D01*
X133973887Y-52086834D01*
X133975887Y-52088834D01*
X133977887Y-52090834D01*
X133979887Y-52092834D01*
X133981887Y-52094834D01*
X133982887Y-52096834D01*
X133984887Y-52098834D01*
X133985887Y-52100834D01*
X133987887Y-52102834D01*
X133988887Y-52105834D01*
X133989887Y-52107834D01*
X133990887Y-52110834D01*
X133990887Y-52112834D01*
X133991887Y-52115834D01*
X133991887Y-52117834D01*
X133992887Y-52120834D01*
X133992887Y-52122834D01*
X133992887Y-52125834D01*
X133992887Y-53350834D01*
X133992887Y-53353834D01*
X133992887Y-53355834D01*
X133991887Y-53358834D01*
X133991887Y-53360834D01*
X133990887Y-53363834D01*
X133990887Y-53365834D01*
X133989887Y-53368834D01*
X133988887Y-53370834D01*
X133987887Y-53373834D01*
X133985887Y-53375834D01*
X133984887Y-53377834D01*
X133982887Y-53379834D01*
X133981887Y-53381834D01*
X133979887Y-53383834D01*
X133977887Y-53385834D01*
X133975887Y-53387834D01*
X133973887Y-53389834D01*
X133971887Y-53390834D01*
X133969887Y-53392834D01*
X133967887Y-53393834D01*
X133965887Y-53395834D01*
X133962887Y-53396834D01*
X133960887Y-53397834D01*
X133957887Y-53398834D01*
X133955887Y-53398834D01*
X133952887Y-53399834D01*
X133950887Y-53399834D01*
X133947887Y-53400834D01*
X133945887Y-53400834D01*
X133942887Y-53400834D01*
X133792887Y-53400834D01*
X133789887Y-53400834D01*
X133787887Y-53400834D01*
X133784887Y-53399834D01*
X133782887Y-53399834D01*
X133779887Y-53398834D01*
X133777887Y-53398834D01*
X133774887Y-53397834D01*
X133772887Y-53396834D01*
X133769887Y-53395834D01*
X133767887Y-53393834D01*
X133765887Y-53392834D01*
X133763887Y-53390834D01*
X133761887Y-53389834D01*
X133759887Y-53387834D01*
X133757887Y-53385834D01*
X133755887Y-53383834D01*
X133753887Y-53381834D01*
X133752887Y-53379834D01*
X133750887Y-53377834D01*
X133749887Y-53375834D01*
X133747887Y-53373834D01*
X133746887Y-53370834D01*
X133745887Y-53368834D01*
X133744887Y-53365834D01*
X133744887Y-53363834D01*
X133743887Y-53360834D01*
X133743887Y-53358834D01*
X133742887Y-53355834D01*
X133742887Y-53353834D01*
X133742887Y-53350834D01*
X133742887Y-52125834D01*
X133742887Y-52122834D01*
X133742887Y-52120834D01*
X133743887Y-52117834D01*
X133743887Y-52115834D01*
X133744887Y-52112834D01*
X133744887Y-52110834D01*
X133745887Y-52107834D01*
X133746887Y-52105834D01*
X133747887Y-52102834D01*
X133749887Y-52100834D01*
X133750887Y-52098834D01*
X133752887Y-52096834D01*
X133753887Y-52094834D01*
X133755887Y-52092834D01*
X133757887Y-52090834D01*
X133759887Y-52088834D01*
X133761887Y-52086834D01*
X133763887Y-52085834D01*
X133765887Y-52083834D01*
X133767887Y-52082834D01*
X133769887Y-52080834D01*
X133772887Y-52079834D01*
X133774887Y-52078834D01*
X133777887Y-52077834D01*
X133779887Y-52077834D01*
X133782887Y-52076834D01*
X133784887Y-52076834D01*
X133787887Y-52075834D01*
X133789887Y-52075834D01*
X133792887Y-52075834D01*
X133942887Y-52075834D01*
X133945887Y-52075834D01*
X133947887Y-52075834D01*
X133950887Y-52076834D01*
G36*
X133950887Y-52076834D02*
G01*
X133952887Y-52076834D01*
X133955887Y-52077834D01*
X133957887Y-52077834D01*
X133960887Y-52078834D01*
X133962887Y-52079834D01*
X133965887Y-52080834D01*
X133967887Y-52082834D01*
X133969887Y-52083834D01*
X133971887Y-52085834D01*
X133973887Y-52086834D01*
X133975887Y-52088834D01*
X133977887Y-52090834D01*
X133979887Y-52092834D01*
X133981887Y-52094834D01*
X133982887Y-52096834D01*
X133984887Y-52098834D01*
X133985887Y-52100834D01*
X133987887Y-52102834D01*
X133988887Y-52105834D01*
X133989887Y-52107834D01*
X133990887Y-52110834D01*
X133990887Y-52112834D01*
X133991887Y-52115834D01*
X133991887Y-52117834D01*
X133992887Y-52120834D01*
X133992887Y-52122834D01*
X133992887Y-52125834D01*
X133992887Y-53350834D01*
X133992887Y-53353834D01*
X133992887Y-53355834D01*
X133991887Y-53358834D01*
X133991887Y-53360834D01*
X133990887Y-53363834D01*
X133990887Y-53365834D01*
X133989887Y-53368834D01*
X133988887Y-53370834D01*
X133987887Y-53373834D01*
X133985887Y-53375834D01*
X133984887Y-53377834D01*
X133982887Y-53379834D01*
X133981887Y-53381834D01*
X133979887Y-53383834D01*
X133977887Y-53385834D01*
X133975887Y-53387834D01*
X133973887Y-53389834D01*
X133971887Y-53390834D01*
X133969887Y-53392834D01*
X133967887Y-53393834D01*
X133965887Y-53395834D01*
X133962887Y-53396834D01*
X133960887Y-53397834D01*
X133957887Y-53398834D01*
X133955887Y-53398834D01*
X133952887Y-53399834D01*
X133950887Y-53399834D01*
X133947887Y-53400834D01*
X133945887Y-53400834D01*
X133942887Y-53400834D01*
X133792887Y-53400834D01*
X133789887Y-53400834D01*
X133787887Y-53400834D01*
X133784887Y-53399834D01*
X133782887Y-53399834D01*
X133779887Y-53398834D01*
X133777887Y-53398834D01*
X133774887Y-53397834D01*
X133772887Y-53396834D01*
X133769887Y-53395834D01*
X133767887Y-53393834D01*
X133765887Y-53392834D01*
X133763887Y-53390834D01*
X133761887Y-53389834D01*
X133759887Y-53387834D01*
X133757887Y-53385834D01*
X133755887Y-53383834D01*
X133753887Y-53381834D01*
X133752887Y-53379834D01*
X133750887Y-53377834D01*
X133749887Y-53375834D01*
X133747887Y-53373834D01*
X133746887Y-53370834D01*
X133745887Y-53368834D01*
X133744887Y-53365834D01*
X133744887Y-53363834D01*
X133743887Y-53360834D01*
X133743887Y-53358834D01*
X133742887Y-53355834D01*
X133742887Y-53353834D01*
X133742887Y-53350834D01*
X133742887Y-52125834D01*
X133742887Y-52122834D01*
X133742887Y-52120834D01*
X133743887Y-52117834D01*
X133743887Y-52115834D01*
X133744887Y-52112834D01*
X133744887Y-52110834D01*
X133745887Y-52107834D01*
X133746887Y-52105834D01*
X133747887Y-52102834D01*
X133749887Y-52100834D01*
X133750887Y-52098834D01*
X133752887Y-52096834D01*
X133753887Y-52094834D01*
X133755887Y-52092834D01*
X133757887Y-52090834D01*
X133759887Y-52088834D01*
X133761887Y-52086834D01*
X133763887Y-52085834D01*
X133765887Y-52083834D01*
X133767887Y-52082834D01*
X133769887Y-52080834D01*
X133772887Y-52079834D01*
X133774887Y-52078834D01*
X133777887Y-52077834D01*
X133779887Y-52077834D01*
X133782887Y-52076834D01*
X133784887Y-52076834D01*
X133787887Y-52075834D01*
X133789887Y-52075834D01*
X133792887Y-52075834D01*
X133942887Y-52075834D01*
X133945887Y-52075834D01*
X133947887Y-52075834D01*
X133950887Y-52076834D01*
G37*
X135925887Y-54266834D02*
X135927887Y-54266834D01*
X135930887Y-54267834D01*
X135932887Y-54267834D01*
X135935887Y-54268834D01*
X135937887Y-54269834D01*
X135940887Y-54270834D01*
X135942887Y-54272834D01*
X135944887Y-54273834D01*
X135946887Y-54275834D01*
X135948887Y-54276834D01*
X135950887Y-54278834D01*
X135952887Y-54280834D01*
X135954887Y-54282834D01*
X135956887Y-54284834D01*
X135957887Y-54286834D01*
X135959887Y-54288834D01*
X135960887Y-54290834D01*
X135962887Y-54292834D01*
X135963887Y-54295834D01*
X135964887Y-54297834D01*
X135965887Y-54300834D01*
X135965887Y-54302834D01*
X135966887Y-54305834D01*
X135966887Y-54307834D01*
X135967887Y-54310834D01*
X135967887Y-54312834D01*
X135967887Y-54315834D01*
X135967887Y-54465834D01*
X135967887Y-54468834D01*
X135967887Y-54470834D01*
X135966887Y-54473834D01*
X135966887Y-54475834D01*
X135965887Y-54478834D01*
X135965887Y-54480834D01*
X135964887Y-54483834D01*
X135963887Y-54485834D01*
X135962887Y-54488834D01*
X135960887Y-54490834D01*
X135959887Y-54492834D01*
X135957887Y-54494834D01*
X135956887Y-54496834D01*
X135954887Y-54498834D01*
X135952887Y-54500834D01*
X135950887Y-54502834D01*
X135948887Y-54504834D01*
X135946887Y-54505834D01*
X135944887Y-54507834D01*
X135942887Y-54508834D01*
X135940887Y-54510834D01*
X135937887Y-54511834D01*
X135935887Y-54512834D01*
X135932887Y-54513834D01*
X135930887Y-54513834D01*
X135927887Y-54514834D01*
X135925887Y-54514834D01*
X135922887Y-54515834D01*
X135920887Y-54515834D01*
X135917887Y-54515834D01*
X135567887Y-54515834D01*
X135564887Y-54515834D01*
X135562887Y-54515834D01*
X135559887Y-54514834D01*
X135557887Y-54514834D01*
X135554887Y-54513834D01*
X135552887Y-54513834D01*
X135549887Y-54512834D01*
X135547887Y-54511834D01*
X135544887Y-54510834D01*
X135542887Y-54508834D01*
X135540887Y-54507834D01*
X135538887Y-54505834D01*
X135536887Y-54504834D01*
X135534887Y-54502834D01*
X135532887Y-54500834D01*
X135530887Y-54498834D01*
X135528887Y-54496834D01*
X135527887Y-54494834D01*
X135525887Y-54492834D01*
X135524887Y-54490834D01*
X135522887Y-54488834D01*
X135521887Y-54485834D01*
X135520887Y-54483834D01*
X135519887Y-54480834D01*
X135519887Y-54478834D01*
X135518887Y-54475834D01*
X135518887Y-54473834D01*
X135517887Y-54470834D01*
X135517887Y-54468834D01*
X135517887Y-54465834D01*
X135517887Y-54315834D01*
X135517887Y-54312834D01*
X135517887Y-54310834D01*
X135518887Y-54307834D01*
X135518887Y-54305834D01*
X135519887Y-54302834D01*
X135519887Y-54300834D01*
X135520887Y-54297834D01*
X135521887Y-54295834D01*
X135522887Y-54292834D01*
X135524887Y-54290834D01*
X135525887Y-54288834D01*
X135527887Y-54286834D01*
X135528887Y-54284834D01*
X135530887Y-54282834D01*
X135532887Y-54280834D01*
X135534887Y-54278834D01*
X135536887Y-54276834D01*
X135538887Y-54275834D01*
X135540887Y-54273834D01*
X135542887Y-54272834D01*
X135544887Y-54270834D01*
X135547887Y-54269834D01*
X135549887Y-54268834D01*
X135552887Y-54267834D01*
X135554887Y-54267834D01*
X135557887Y-54266834D01*
X135559887Y-54266834D01*
X135562887Y-54265834D01*
X135564887Y-54265834D01*
X135567887Y-54265834D01*
X135917887Y-54265834D01*
X135920887Y-54265834D01*
X135922887Y-54265834D01*
X135925887Y-54266834D01*
G36*
X135925887Y-54266834D02*
G01*
X135927887Y-54266834D01*
X135930887Y-54267834D01*
X135932887Y-54267834D01*
X135935887Y-54268834D01*
X135937887Y-54269834D01*
X135940887Y-54270834D01*
X135942887Y-54272834D01*
X135944887Y-54273834D01*
X135946887Y-54275834D01*
X135948887Y-54276834D01*
X135950887Y-54278834D01*
X135952887Y-54280834D01*
X135954887Y-54282834D01*
X135956887Y-54284834D01*
X135957887Y-54286834D01*
X135959887Y-54288834D01*
X135960887Y-54290834D01*
X135962887Y-54292834D01*
X135963887Y-54295834D01*
X135964887Y-54297834D01*
X135965887Y-54300834D01*
X135965887Y-54302834D01*
X135966887Y-54305834D01*
X135966887Y-54307834D01*
X135967887Y-54310834D01*
X135967887Y-54312834D01*
X135967887Y-54315834D01*
X135967887Y-54465834D01*
X135967887Y-54468834D01*
X135967887Y-54470834D01*
X135966887Y-54473834D01*
X135966887Y-54475834D01*
X135965887Y-54478834D01*
X135965887Y-54480834D01*
X135964887Y-54483834D01*
X135963887Y-54485834D01*
X135962887Y-54488834D01*
X135960887Y-54490834D01*
X135959887Y-54492834D01*
X135957887Y-54494834D01*
X135956887Y-54496834D01*
X135954887Y-54498834D01*
X135952887Y-54500834D01*
X135950887Y-54502834D01*
X135948887Y-54504834D01*
X135946887Y-54505834D01*
X135944887Y-54507834D01*
X135942887Y-54508834D01*
X135940887Y-54510834D01*
X135937887Y-54511834D01*
X135935887Y-54512834D01*
X135932887Y-54513834D01*
X135930887Y-54513834D01*
X135927887Y-54514834D01*
X135925887Y-54514834D01*
X135922887Y-54515834D01*
X135920887Y-54515834D01*
X135917887Y-54515834D01*
X135567887Y-54515834D01*
X135564887Y-54515834D01*
X135562887Y-54515834D01*
X135559887Y-54514834D01*
X135557887Y-54514834D01*
X135554887Y-54513834D01*
X135552887Y-54513834D01*
X135549887Y-54512834D01*
X135547887Y-54511834D01*
X135544887Y-54510834D01*
X135542887Y-54508834D01*
X135540887Y-54507834D01*
X135538887Y-54505834D01*
X135536887Y-54504834D01*
X135534887Y-54502834D01*
X135532887Y-54500834D01*
X135530887Y-54498834D01*
X135528887Y-54496834D01*
X135527887Y-54494834D01*
X135525887Y-54492834D01*
X135524887Y-54490834D01*
X135522887Y-54488834D01*
X135521887Y-54485834D01*
X135520887Y-54483834D01*
X135519887Y-54480834D01*
X135519887Y-54478834D01*
X135518887Y-54475834D01*
X135518887Y-54473834D01*
X135517887Y-54470834D01*
X135517887Y-54468834D01*
X135517887Y-54465834D01*
X135517887Y-54315834D01*
X135517887Y-54312834D01*
X135517887Y-54310834D01*
X135518887Y-54307834D01*
X135518887Y-54305834D01*
X135519887Y-54302834D01*
X135519887Y-54300834D01*
X135520887Y-54297834D01*
X135521887Y-54295834D01*
X135522887Y-54292834D01*
X135524887Y-54290834D01*
X135525887Y-54288834D01*
X135527887Y-54286834D01*
X135528887Y-54284834D01*
X135530887Y-54282834D01*
X135532887Y-54280834D01*
X135534887Y-54278834D01*
X135536887Y-54276834D01*
X135538887Y-54275834D01*
X135540887Y-54273834D01*
X135542887Y-54272834D01*
X135544887Y-54270834D01*
X135547887Y-54269834D01*
X135549887Y-54268834D01*
X135552887Y-54267834D01*
X135554887Y-54267834D01*
X135557887Y-54266834D01*
X135559887Y-54266834D01*
X135562887Y-54265834D01*
X135564887Y-54265834D01*
X135567887Y-54265834D01*
X135917887Y-54265834D01*
X135920887Y-54265834D01*
X135922887Y-54265834D01*
X135925887Y-54266834D01*
G37*
X135925887Y-54766834D02*
X135927887Y-54766834D01*
X135930887Y-54767834D01*
X135932887Y-54767834D01*
X135935887Y-54768834D01*
X135937887Y-54769834D01*
X135940887Y-54770834D01*
X135942887Y-54772834D01*
X135944887Y-54773834D01*
X135946887Y-54775834D01*
X135948887Y-54776834D01*
X135950887Y-54778834D01*
X135952887Y-54780834D01*
X135954887Y-54782834D01*
X135956887Y-54784834D01*
X135957887Y-54786834D01*
X135959887Y-54788834D01*
X135960887Y-54790834D01*
X135962887Y-54792834D01*
X135963887Y-54795834D01*
X135964887Y-54797834D01*
X135965887Y-54800834D01*
X135965887Y-54802834D01*
X135966887Y-54805834D01*
X135966887Y-54807834D01*
X135967887Y-54810834D01*
X135967887Y-54812834D01*
X135967887Y-54815834D01*
X135967887Y-54965834D01*
X135967887Y-54968834D01*
X135967887Y-54970834D01*
X135966887Y-54973834D01*
X135966887Y-54975834D01*
X135965887Y-54978834D01*
X135965887Y-54980834D01*
X135964887Y-54983834D01*
X135963887Y-54985834D01*
X135962887Y-54988834D01*
X135960887Y-54990834D01*
X135959887Y-54992834D01*
X135957887Y-54994834D01*
X135956887Y-54996834D01*
X135954887Y-54998834D01*
X135952887Y-55000834D01*
X135950887Y-55002834D01*
X135948887Y-55004834D01*
X135946887Y-55005834D01*
X135944887Y-55007834D01*
X135942887Y-55008834D01*
X135940887Y-55010834D01*
X135937887Y-55011834D01*
X135935887Y-55012834D01*
X135932887Y-55013834D01*
X135930887Y-55013834D01*
X135927887Y-55014834D01*
X135925887Y-55014834D01*
X135922887Y-55015834D01*
X135920887Y-55015834D01*
X135917887Y-55015834D01*
X135567887Y-55015834D01*
X135564887Y-55015834D01*
X135562887Y-55015834D01*
X135559887Y-55014834D01*
X135557887Y-55014834D01*
X135554887Y-55013834D01*
X135552887Y-55013834D01*
X135549887Y-55012834D01*
X135547887Y-55011834D01*
X135544887Y-55010834D01*
X135542887Y-55008834D01*
X135540887Y-55007834D01*
X135538887Y-55005834D01*
X135536887Y-55004834D01*
X135534887Y-55002834D01*
X135532887Y-55000834D01*
X135530887Y-54998834D01*
X135528887Y-54996834D01*
X135527887Y-54994834D01*
X135525887Y-54992834D01*
X135524887Y-54990834D01*
X135522887Y-54988834D01*
X135521887Y-54985834D01*
X135520887Y-54983834D01*
X135519887Y-54980834D01*
X135519887Y-54978834D01*
X135518887Y-54975834D01*
X135518887Y-54973834D01*
X135517887Y-54970834D01*
X135517887Y-54968834D01*
X135517887Y-54965834D01*
X135517887Y-54815834D01*
X135517887Y-54812834D01*
X135517887Y-54810834D01*
X135518887Y-54807834D01*
X135518887Y-54805834D01*
X135519887Y-54802834D01*
X135519887Y-54800834D01*
X135520887Y-54797834D01*
X135521887Y-54795834D01*
X135522887Y-54792834D01*
X135524887Y-54790834D01*
X135525887Y-54788834D01*
X135527887Y-54786834D01*
X135528887Y-54784834D01*
X135530887Y-54782834D01*
X135532887Y-54780834D01*
X135534887Y-54778834D01*
X135536887Y-54776834D01*
X135538887Y-54775834D01*
X135540887Y-54773834D01*
X135542887Y-54772834D01*
X135544887Y-54770834D01*
X135547887Y-54769834D01*
X135549887Y-54768834D01*
X135552887Y-54767834D01*
X135554887Y-54767834D01*
X135557887Y-54766834D01*
X135559887Y-54766834D01*
X135562887Y-54765834D01*
X135564887Y-54765834D01*
X135567887Y-54765834D01*
X135917887Y-54765834D01*
X135920887Y-54765834D01*
X135922887Y-54765834D01*
X135925887Y-54766834D01*
G36*
X135925887Y-54766834D02*
G01*
X135927887Y-54766834D01*
X135930887Y-54767834D01*
X135932887Y-54767834D01*
X135935887Y-54768834D01*
X135937887Y-54769834D01*
X135940887Y-54770834D01*
X135942887Y-54772834D01*
X135944887Y-54773834D01*
X135946887Y-54775834D01*
X135948887Y-54776834D01*
X135950887Y-54778834D01*
X135952887Y-54780834D01*
X135954887Y-54782834D01*
X135956887Y-54784834D01*
X135957887Y-54786834D01*
X135959887Y-54788834D01*
X135960887Y-54790834D01*
X135962887Y-54792834D01*
X135963887Y-54795834D01*
X135964887Y-54797834D01*
X135965887Y-54800834D01*
X135965887Y-54802834D01*
X135966887Y-54805834D01*
X135966887Y-54807834D01*
X135967887Y-54810834D01*
X135967887Y-54812834D01*
X135967887Y-54815834D01*
X135967887Y-54965834D01*
X135967887Y-54968834D01*
X135967887Y-54970834D01*
X135966887Y-54973834D01*
X135966887Y-54975834D01*
X135965887Y-54978834D01*
X135965887Y-54980834D01*
X135964887Y-54983834D01*
X135963887Y-54985834D01*
X135962887Y-54988834D01*
X135960887Y-54990834D01*
X135959887Y-54992834D01*
X135957887Y-54994834D01*
X135956887Y-54996834D01*
X135954887Y-54998834D01*
X135952887Y-55000834D01*
X135950887Y-55002834D01*
X135948887Y-55004834D01*
X135946887Y-55005834D01*
X135944887Y-55007834D01*
X135942887Y-55008834D01*
X135940887Y-55010834D01*
X135937887Y-55011834D01*
X135935887Y-55012834D01*
X135932887Y-55013834D01*
X135930887Y-55013834D01*
X135927887Y-55014834D01*
X135925887Y-55014834D01*
X135922887Y-55015834D01*
X135920887Y-55015834D01*
X135917887Y-55015834D01*
X135567887Y-55015834D01*
X135564887Y-55015834D01*
X135562887Y-55015834D01*
X135559887Y-55014834D01*
X135557887Y-55014834D01*
X135554887Y-55013834D01*
X135552887Y-55013834D01*
X135549887Y-55012834D01*
X135547887Y-55011834D01*
X135544887Y-55010834D01*
X135542887Y-55008834D01*
X135540887Y-55007834D01*
X135538887Y-55005834D01*
X135536887Y-55004834D01*
X135534887Y-55002834D01*
X135532887Y-55000834D01*
X135530887Y-54998834D01*
X135528887Y-54996834D01*
X135527887Y-54994834D01*
X135525887Y-54992834D01*
X135524887Y-54990834D01*
X135522887Y-54988834D01*
X135521887Y-54985834D01*
X135520887Y-54983834D01*
X135519887Y-54980834D01*
X135519887Y-54978834D01*
X135518887Y-54975834D01*
X135518887Y-54973834D01*
X135517887Y-54970834D01*
X135517887Y-54968834D01*
X135517887Y-54965834D01*
X135517887Y-54815834D01*
X135517887Y-54812834D01*
X135517887Y-54810834D01*
X135518887Y-54807834D01*
X135518887Y-54805834D01*
X135519887Y-54802834D01*
X135519887Y-54800834D01*
X135520887Y-54797834D01*
X135521887Y-54795834D01*
X135522887Y-54792834D01*
X135524887Y-54790834D01*
X135525887Y-54788834D01*
X135527887Y-54786834D01*
X135528887Y-54784834D01*
X135530887Y-54782834D01*
X135532887Y-54780834D01*
X135534887Y-54778834D01*
X135536887Y-54776834D01*
X135538887Y-54775834D01*
X135540887Y-54773834D01*
X135542887Y-54772834D01*
X135544887Y-54770834D01*
X135547887Y-54769834D01*
X135549887Y-54768834D01*
X135552887Y-54767834D01*
X135554887Y-54767834D01*
X135557887Y-54766834D01*
X135559887Y-54766834D01*
X135562887Y-54765834D01*
X135564887Y-54765834D01*
X135567887Y-54765834D01*
X135917887Y-54765834D01*
X135920887Y-54765834D01*
X135922887Y-54765834D01*
X135925887Y-54766834D01*
G37*
X135925887Y-55266834D02*
X135927887Y-55266834D01*
X135930887Y-55267834D01*
X135932887Y-55267834D01*
X135935887Y-55268834D01*
X135937887Y-55269834D01*
X135940887Y-55270834D01*
X135942887Y-55272834D01*
X135944887Y-55273834D01*
X135946887Y-55275834D01*
X135948887Y-55276834D01*
X135950887Y-55278834D01*
X135952887Y-55280834D01*
X135954887Y-55282834D01*
X135956887Y-55284834D01*
X135957887Y-55286834D01*
X135959887Y-55288834D01*
X135960887Y-55290834D01*
X135962887Y-55292834D01*
X135963887Y-55295834D01*
X135964887Y-55297834D01*
X135965887Y-55300834D01*
X135965887Y-55302834D01*
X135966887Y-55305834D01*
X135966887Y-55307834D01*
X135967887Y-55310834D01*
X135967887Y-55312834D01*
X135967887Y-55315834D01*
X135967887Y-55465834D01*
X135967887Y-55468834D01*
X135967887Y-55470834D01*
X135966887Y-55473834D01*
X135966887Y-55475834D01*
X135965887Y-55478834D01*
X135965887Y-55480834D01*
X135964887Y-55483834D01*
X135963887Y-55485834D01*
X135962887Y-55488834D01*
X135960887Y-55490834D01*
X135959887Y-55492834D01*
X135957887Y-55494834D01*
X135956887Y-55496834D01*
X135954887Y-55498834D01*
X135952887Y-55500834D01*
X135950887Y-55502834D01*
X135948887Y-55504834D01*
X135946887Y-55505834D01*
X135944887Y-55507834D01*
X135942887Y-55508834D01*
X135940887Y-55510834D01*
X135937887Y-55511834D01*
X135935887Y-55512834D01*
X135932887Y-55513834D01*
X135930887Y-55513834D01*
X135927887Y-55514834D01*
X135925887Y-55514834D01*
X135922887Y-55515834D01*
X135920887Y-55515834D01*
X135917887Y-55515834D01*
X135567887Y-55515834D01*
X135564887Y-55515834D01*
X135562887Y-55515834D01*
X135559887Y-55514834D01*
X135557887Y-55514834D01*
X135554887Y-55513834D01*
X135552887Y-55513834D01*
X135549887Y-55512834D01*
X135547887Y-55511834D01*
X135544887Y-55510834D01*
X135542887Y-55508834D01*
X135540887Y-55507834D01*
X135538887Y-55505834D01*
X135536887Y-55504834D01*
X135534887Y-55502834D01*
X135532887Y-55500834D01*
X135530887Y-55498834D01*
X135528887Y-55496834D01*
X135527887Y-55494834D01*
X135525887Y-55492834D01*
X135524887Y-55490834D01*
X135522887Y-55488834D01*
X135521887Y-55485834D01*
X135520887Y-55483834D01*
X135519887Y-55480834D01*
X135519887Y-55478834D01*
X135518887Y-55475834D01*
X135518887Y-55473834D01*
X135517887Y-55470834D01*
X135517887Y-55468834D01*
X135517887Y-55465834D01*
X135517887Y-55315834D01*
X135517887Y-55312834D01*
X135517887Y-55310834D01*
X135518887Y-55307834D01*
X135518887Y-55305834D01*
X135519887Y-55302834D01*
X135519887Y-55300834D01*
X135520887Y-55297834D01*
X135521887Y-55295834D01*
X135522887Y-55292834D01*
X135524887Y-55290834D01*
X135525887Y-55288834D01*
X135527887Y-55286834D01*
X135528887Y-55284834D01*
X135530887Y-55282834D01*
X135532887Y-55280834D01*
X135534887Y-55278834D01*
X135536887Y-55276834D01*
X135538887Y-55275834D01*
X135540887Y-55273834D01*
X135542887Y-55272834D01*
X135544887Y-55270834D01*
X135547887Y-55269834D01*
X135549887Y-55268834D01*
X135552887Y-55267834D01*
X135554887Y-55267834D01*
X135557887Y-55266834D01*
X135559887Y-55266834D01*
X135562887Y-55265834D01*
X135564887Y-55265834D01*
X135567887Y-55265834D01*
X135917887Y-55265834D01*
X135920887Y-55265834D01*
X135922887Y-55265834D01*
X135925887Y-55266834D01*
G36*
X135925887Y-55266834D02*
G01*
X135927887Y-55266834D01*
X135930887Y-55267834D01*
X135932887Y-55267834D01*
X135935887Y-55268834D01*
X135937887Y-55269834D01*
X135940887Y-55270834D01*
X135942887Y-55272834D01*
X135944887Y-55273834D01*
X135946887Y-55275834D01*
X135948887Y-55276834D01*
X135950887Y-55278834D01*
X135952887Y-55280834D01*
X135954887Y-55282834D01*
X135956887Y-55284834D01*
X135957887Y-55286834D01*
X135959887Y-55288834D01*
X135960887Y-55290834D01*
X135962887Y-55292834D01*
X135963887Y-55295834D01*
X135964887Y-55297834D01*
X135965887Y-55300834D01*
X135965887Y-55302834D01*
X135966887Y-55305834D01*
X135966887Y-55307834D01*
X135967887Y-55310834D01*
X135967887Y-55312834D01*
X135967887Y-55315834D01*
X135967887Y-55465834D01*
X135967887Y-55468834D01*
X135967887Y-55470834D01*
X135966887Y-55473834D01*
X135966887Y-55475834D01*
X135965887Y-55478834D01*
X135965887Y-55480834D01*
X135964887Y-55483834D01*
X135963887Y-55485834D01*
X135962887Y-55488834D01*
X135960887Y-55490834D01*
X135959887Y-55492834D01*
X135957887Y-55494834D01*
X135956887Y-55496834D01*
X135954887Y-55498834D01*
X135952887Y-55500834D01*
X135950887Y-55502834D01*
X135948887Y-55504834D01*
X135946887Y-55505834D01*
X135944887Y-55507834D01*
X135942887Y-55508834D01*
X135940887Y-55510834D01*
X135937887Y-55511834D01*
X135935887Y-55512834D01*
X135932887Y-55513834D01*
X135930887Y-55513834D01*
X135927887Y-55514834D01*
X135925887Y-55514834D01*
X135922887Y-55515834D01*
X135920887Y-55515834D01*
X135917887Y-55515834D01*
X135567887Y-55515834D01*
X135564887Y-55515834D01*
X135562887Y-55515834D01*
X135559887Y-55514834D01*
X135557887Y-55514834D01*
X135554887Y-55513834D01*
X135552887Y-55513834D01*
X135549887Y-55512834D01*
X135547887Y-55511834D01*
X135544887Y-55510834D01*
X135542887Y-55508834D01*
X135540887Y-55507834D01*
X135538887Y-55505834D01*
X135536887Y-55504834D01*
X135534887Y-55502834D01*
X135532887Y-55500834D01*
X135530887Y-55498834D01*
X135528887Y-55496834D01*
X135527887Y-55494834D01*
X135525887Y-55492834D01*
X135524887Y-55490834D01*
X135522887Y-55488834D01*
X135521887Y-55485834D01*
X135520887Y-55483834D01*
X135519887Y-55480834D01*
X135519887Y-55478834D01*
X135518887Y-55475834D01*
X135518887Y-55473834D01*
X135517887Y-55470834D01*
X135517887Y-55468834D01*
X135517887Y-55465834D01*
X135517887Y-55315834D01*
X135517887Y-55312834D01*
X135517887Y-55310834D01*
X135518887Y-55307834D01*
X135518887Y-55305834D01*
X135519887Y-55302834D01*
X135519887Y-55300834D01*
X135520887Y-55297834D01*
X135521887Y-55295834D01*
X135522887Y-55292834D01*
X135524887Y-55290834D01*
X135525887Y-55288834D01*
X135527887Y-55286834D01*
X135528887Y-55284834D01*
X135530887Y-55282834D01*
X135532887Y-55280834D01*
X135534887Y-55278834D01*
X135536887Y-55276834D01*
X135538887Y-55275834D01*
X135540887Y-55273834D01*
X135542887Y-55272834D01*
X135544887Y-55270834D01*
X135547887Y-55269834D01*
X135549887Y-55268834D01*
X135552887Y-55267834D01*
X135554887Y-55267834D01*
X135557887Y-55266834D01*
X135559887Y-55266834D01*
X135562887Y-55265834D01*
X135564887Y-55265834D01*
X135567887Y-55265834D01*
X135917887Y-55265834D01*
X135920887Y-55265834D01*
X135922887Y-55265834D01*
X135925887Y-55266834D01*
G37*
X133495887Y-53125834D02*
X133497887Y-53125834D01*
X133500887Y-53125834D01*
X133502887Y-53126834D01*
X133505887Y-53126834D01*
X133507887Y-53127834D01*
X133510887Y-53128834D01*
X133512887Y-53129834D01*
X133515887Y-53130834D01*
X133517887Y-53131834D01*
X133519887Y-53133834D01*
X133521887Y-53134834D01*
X133523887Y-53136834D01*
X133525887Y-53137834D01*
X133527887Y-53139834D01*
X133529887Y-53141834D01*
X133531887Y-53143834D01*
X133532887Y-53145834D01*
X133534887Y-53147834D01*
X133535887Y-53149834D01*
X133537887Y-53152834D01*
X133538887Y-53154834D01*
X133539887Y-53157834D01*
X133540887Y-53159834D01*
X133540887Y-53162834D01*
X133541887Y-53164834D01*
X133541887Y-53167834D01*
X133542887Y-53169834D01*
X133542887Y-53172834D01*
X133542887Y-53175834D01*
X133542887Y-53349834D01*
X133542887Y-53350334D01*
X133542887Y-53352834D01*
X133542887Y-53355834D01*
X133541887Y-53357834D01*
X133541887Y-53360834D01*
X133540887Y-53362834D01*
X133540887Y-53365834D01*
X133539887Y-53367834D01*
X133538887Y-53370834D01*
X133537887Y-53372834D01*
X133535887Y-53374834D01*
X133534887Y-53377834D01*
X133532887Y-53379834D01*
X133531887Y-53381834D01*
X133529887Y-53383834D01*
X133527887Y-53385834D01*
X133525887Y-53387834D01*
X133523887Y-53388834D01*
X133521887Y-53390834D01*
X133519887Y-53391834D01*
X133517887Y-53393834D01*
X133515887Y-53394834D01*
X133512887Y-53395834D01*
X133510887Y-53396834D01*
X133507887Y-53397834D01*
X133505887Y-53398834D01*
X133502887Y-53398834D01*
X133500887Y-53399834D01*
X133497887Y-53399834D01*
X133495887Y-53399834D01*
X133492887Y-53399834D01*
X132317887Y-53399834D01*
X132314887Y-53399834D01*
X132312887Y-53399834D01*
X132309887Y-53399834D01*
X132307887Y-53398834D01*
X132304887Y-53398834D01*
X132302887Y-53397834D01*
X132299887Y-53396834D01*
X132297887Y-53395834D01*
X132294887Y-53394834D01*
X132292887Y-53393834D01*
X132290887Y-53391834D01*
X132288887Y-53390834D01*
X132286887Y-53388834D01*
X132284887Y-53387834D01*
X132282887Y-53385834D01*
X132280887Y-53383834D01*
X132278887Y-53381834D01*
X132277887Y-53379834D01*
X132275887Y-53377834D01*
X132274887Y-53374834D01*
X132272887Y-53372834D01*
X132271887Y-53370834D01*
X132270887Y-53367834D01*
X132269887Y-53365834D01*
X132269887Y-53362834D01*
X132268887Y-53360834D01*
X132268887Y-53357834D01*
X132267887Y-53355834D01*
X132267887Y-53352834D01*
X132267887Y-53349834D01*
X132267887Y-53175834D01*
X132267887Y-53172834D01*
X132267887Y-53169834D01*
X132268887Y-53167834D01*
X132268887Y-53164834D01*
X132269887Y-53162834D01*
X132269887Y-53159834D01*
X132270887Y-53157834D01*
X132271887Y-53154834D01*
X132272887Y-53152834D01*
X132274887Y-53149834D01*
X132275887Y-53147834D01*
X132277887Y-53145834D01*
X132278887Y-53143834D01*
X132280887Y-53141834D01*
X132282887Y-53139834D01*
X132284887Y-53137834D01*
X132286887Y-53136834D01*
X132288887Y-53134834D01*
X132290887Y-53133834D01*
X132292887Y-53131834D01*
X132294887Y-53130834D01*
X132297887Y-53129834D01*
X132299887Y-53128834D01*
X132302887Y-53127834D01*
X132304887Y-53126834D01*
X132307887Y-53126834D01*
X132309887Y-53125834D01*
X132312887Y-53125834D01*
X132314887Y-53125834D01*
X132317887Y-53124834D01*
X133492887Y-53124834D01*
X133495887Y-53125834D01*
G36*
X133495887Y-53125834D02*
G01*
X133497887Y-53125834D01*
X133500887Y-53125834D01*
X133502887Y-53126834D01*
X133505887Y-53126834D01*
X133507887Y-53127834D01*
X133510887Y-53128834D01*
X133512887Y-53129834D01*
X133515887Y-53130834D01*
X133517887Y-53131834D01*
X133519887Y-53133834D01*
X133521887Y-53134834D01*
X133523887Y-53136834D01*
X133525887Y-53137834D01*
X133527887Y-53139834D01*
X133529887Y-53141834D01*
X133531887Y-53143834D01*
X133532887Y-53145834D01*
X133534887Y-53147834D01*
X133535887Y-53149834D01*
X133537887Y-53152834D01*
X133538887Y-53154834D01*
X133539887Y-53157834D01*
X133540887Y-53159834D01*
X133540887Y-53162834D01*
X133541887Y-53164834D01*
X133541887Y-53167834D01*
X133542887Y-53169834D01*
X133542887Y-53172834D01*
X133542887Y-53175834D01*
X133542887Y-53349834D01*
X133542887Y-53350334D01*
X133542887Y-53352834D01*
X133542887Y-53355834D01*
X133541887Y-53357834D01*
X133541887Y-53360834D01*
X133540887Y-53362834D01*
X133540887Y-53365834D01*
X133539887Y-53367834D01*
X133538887Y-53370834D01*
X133537887Y-53372834D01*
X133535887Y-53374834D01*
X133534887Y-53377834D01*
X133532887Y-53379834D01*
X133531887Y-53381834D01*
X133529887Y-53383834D01*
X133527887Y-53385834D01*
X133525887Y-53387834D01*
X133523887Y-53388834D01*
X133521887Y-53390834D01*
X133519887Y-53391834D01*
X133517887Y-53393834D01*
X133515887Y-53394834D01*
X133512887Y-53395834D01*
X133510887Y-53396834D01*
X133507887Y-53397834D01*
X133505887Y-53398834D01*
X133502887Y-53398834D01*
X133500887Y-53399834D01*
X133497887Y-53399834D01*
X133495887Y-53399834D01*
X133492887Y-53399834D01*
X132317887Y-53399834D01*
X132314887Y-53399834D01*
X132312887Y-53399834D01*
X132309887Y-53399834D01*
X132307887Y-53398834D01*
X132304887Y-53398834D01*
X132302887Y-53397834D01*
X132299887Y-53396834D01*
X132297887Y-53395834D01*
X132294887Y-53394834D01*
X132292887Y-53393834D01*
X132290887Y-53391834D01*
X132288887Y-53390834D01*
X132286887Y-53388834D01*
X132284887Y-53387834D01*
X132282887Y-53385834D01*
X132280887Y-53383834D01*
X132278887Y-53381834D01*
X132277887Y-53379834D01*
X132275887Y-53377834D01*
X132274887Y-53374834D01*
X132272887Y-53372834D01*
X132271887Y-53370834D01*
X132270887Y-53367834D01*
X132269887Y-53365834D01*
X132269887Y-53362834D01*
X132268887Y-53360834D01*
X132268887Y-53357834D01*
X132267887Y-53355834D01*
X132267887Y-53352834D01*
X132267887Y-53349834D01*
X132267887Y-53175834D01*
X132267887Y-53172834D01*
X132267887Y-53169834D01*
X132268887Y-53167834D01*
X132268887Y-53164834D01*
X132269887Y-53162834D01*
X132269887Y-53159834D01*
X132270887Y-53157834D01*
X132271887Y-53154834D01*
X132272887Y-53152834D01*
X132274887Y-53149834D01*
X132275887Y-53147834D01*
X132277887Y-53145834D01*
X132278887Y-53143834D01*
X132280887Y-53141834D01*
X132282887Y-53139834D01*
X132284887Y-53137834D01*
X132286887Y-53136834D01*
X132288887Y-53134834D01*
X132290887Y-53133834D01*
X132292887Y-53131834D01*
X132294887Y-53130834D01*
X132297887Y-53129834D01*
X132299887Y-53128834D01*
X132302887Y-53127834D01*
X132304887Y-53126834D01*
X132307887Y-53126834D01*
X132309887Y-53125834D01*
X132312887Y-53125834D01*
X132314887Y-53125834D01*
X132317887Y-53124834D01*
X133492887Y-53124834D01*
X133495887Y-53125834D01*
G37*
X133599887Y-53879834D02*
X133602887Y-53879834D01*
X133604887Y-53880834D01*
X133607887Y-53880834D01*
X133609887Y-53881834D01*
X133612887Y-53882834D01*
X133614887Y-53883834D01*
X133617887Y-53885834D01*
X133619887Y-53886834D01*
X133621887Y-53888834D01*
X133623887Y-53889834D01*
X133625887Y-53891834D01*
X133627887Y-53893834D01*
X133629887Y-53895834D01*
X133630887Y-53897834D01*
X133632887Y-53899834D01*
X133633887Y-53901834D01*
X133635887Y-53903834D01*
X133636887Y-53905834D01*
X133637887Y-53908834D01*
X133638887Y-53910834D01*
X133639887Y-53913834D01*
X133640887Y-53915834D01*
X133640887Y-53918834D01*
X133641887Y-53920834D01*
X133641887Y-53923834D01*
X133641887Y-53925834D01*
X133642887Y-53928834D01*
X133642387Y-55698834D01*
X133642887Y-55698834D01*
X133641887Y-55701834D01*
X133641887Y-55703834D01*
X133641887Y-55706834D01*
X133640887Y-55708834D01*
X133640887Y-55711834D01*
X133639887Y-55713834D01*
X133638887Y-55716834D01*
X133637887Y-55718834D01*
X133636887Y-55721834D01*
X133635887Y-55723834D01*
X133633887Y-55725834D01*
X133632887Y-55727834D01*
X133630887Y-55729834D01*
X133629887Y-55731834D01*
X133627887Y-55733834D01*
X133625887Y-55735834D01*
X133623887Y-55737834D01*
X133621887Y-55738834D01*
X133619887Y-55740834D01*
X133617887Y-55741834D01*
X133614887Y-55743834D01*
X133612887Y-55744834D01*
X133609887Y-55745834D01*
X133607887Y-55746834D01*
X133604887Y-55746834D01*
X133602887Y-55747834D01*
X133599887Y-55747834D01*
X133597887Y-55748834D01*
X133594887Y-55748834D01*
X133592887Y-55748834D01*
X132966887Y-55748834D01*
X132964887Y-55748834D01*
X132961887Y-55748834D01*
X132959887Y-55747834D01*
X132956887Y-55747834D01*
X132954887Y-55746834D01*
X132951887Y-55746834D01*
X132949887Y-55745834D01*
X132946887Y-55744834D01*
X132944887Y-55743834D01*
X132942887Y-55741834D01*
X132939887Y-55740834D01*
X132937887Y-55738834D01*
X132935887Y-55737834D01*
X132933887Y-55735834D01*
X132931887Y-55733834D01*
X132929887Y-55731834D01*
X132928887Y-55729834D01*
X132926887Y-55727834D01*
X132925887Y-55725834D01*
X132923887Y-55723834D01*
X132922887Y-55721834D01*
X132921887Y-55718834D01*
X132920887Y-55716834D01*
X132919887Y-55713834D01*
X132918887Y-55711834D01*
X132918887Y-55708834D01*
X132917887Y-55706834D01*
X132917887Y-55703834D01*
X132917887Y-55701834D01*
X132917887Y-55698834D01*
X132917887Y-53928834D01*
X132917887Y-53925834D01*
X132917887Y-53923834D01*
X132917887Y-53920834D01*
X132918887Y-53918834D01*
X132918887Y-53915834D01*
X132919887Y-53913834D01*
X132920887Y-53910834D01*
X132921887Y-53908834D01*
X132922887Y-53905834D01*
X132923887Y-53903834D01*
X132925887Y-53901834D01*
X132926887Y-53899834D01*
X132928887Y-53897834D01*
X132929887Y-53895834D01*
X132931887Y-53893834D01*
X132933887Y-53891834D01*
X132935887Y-53889834D01*
X132937887Y-53888834D01*
X132939887Y-53886834D01*
X132942887Y-53885834D01*
X132944887Y-53883834D01*
X132946887Y-53882834D01*
X132949887Y-53881834D01*
X132951887Y-53880834D01*
X132954887Y-53880834D01*
X132956887Y-53879834D01*
X132959887Y-53879834D01*
X132961887Y-53878834D01*
X132964887Y-53878834D01*
X132966887Y-53878834D01*
X133592887Y-53878834D01*
X133594887Y-53878834D01*
X133597887Y-53878834D01*
X133599887Y-53879834D01*
G36*
X133599887Y-53879834D02*
G01*
X133602887Y-53879834D01*
X133604887Y-53880834D01*
X133607887Y-53880834D01*
X133609887Y-53881834D01*
X133612887Y-53882834D01*
X133614887Y-53883834D01*
X133617887Y-53885834D01*
X133619887Y-53886834D01*
X133621887Y-53888834D01*
X133623887Y-53889834D01*
X133625887Y-53891834D01*
X133627887Y-53893834D01*
X133629887Y-53895834D01*
X133630887Y-53897834D01*
X133632887Y-53899834D01*
X133633887Y-53901834D01*
X133635887Y-53903834D01*
X133636887Y-53905834D01*
X133637887Y-53908834D01*
X133638887Y-53910834D01*
X133639887Y-53913834D01*
X133640887Y-53915834D01*
X133640887Y-53918834D01*
X133641887Y-53920834D01*
X133641887Y-53923834D01*
X133641887Y-53925834D01*
X133642887Y-53928834D01*
X133642387Y-55698834D01*
X133642887Y-55698834D01*
X133641887Y-55701834D01*
X133641887Y-55703834D01*
X133641887Y-55706834D01*
X133640887Y-55708834D01*
X133640887Y-55711834D01*
X133639887Y-55713834D01*
X133638887Y-55716834D01*
X133637887Y-55718834D01*
X133636887Y-55721834D01*
X133635887Y-55723834D01*
X133633887Y-55725834D01*
X133632887Y-55727834D01*
X133630887Y-55729834D01*
X133629887Y-55731834D01*
X133627887Y-55733834D01*
X133625887Y-55735834D01*
X133623887Y-55737834D01*
X133621887Y-55738834D01*
X133619887Y-55740834D01*
X133617887Y-55741834D01*
X133614887Y-55743834D01*
X133612887Y-55744834D01*
X133609887Y-55745834D01*
X133607887Y-55746834D01*
X133604887Y-55746834D01*
X133602887Y-55747834D01*
X133599887Y-55747834D01*
X133597887Y-55748834D01*
X133594887Y-55748834D01*
X133592887Y-55748834D01*
X132966887Y-55748834D01*
X132964887Y-55748834D01*
X132961887Y-55748834D01*
X132959887Y-55747834D01*
X132956887Y-55747834D01*
X132954887Y-55746834D01*
X132951887Y-55746834D01*
X132949887Y-55745834D01*
X132946887Y-55744834D01*
X132944887Y-55743834D01*
X132942887Y-55741834D01*
X132939887Y-55740834D01*
X132937887Y-55738834D01*
X132935887Y-55737834D01*
X132933887Y-55735834D01*
X132931887Y-55733834D01*
X132929887Y-55731834D01*
X132928887Y-55729834D01*
X132926887Y-55727834D01*
X132925887Y-55725834D01*
X132923887Y-55723834D01*
X132922887Y-55721834D01*
X132921887Y-55718834D01*
X132920887Y-55716834D01*
X132919887Y-55713834D01*
X132918887Y-55711834D01*
X132918887Y-55708834D01*
X132917887Y-55706834D01*
X132917887Y-55703834D01*
X132917887Y-55701834D01*
X132917887Y-55698834D01*
X132917887Y-53928834D01*
X132917887Y-53925834D01*
X132917887Y-53923834D01*
X132917887Y-53920834D01*
X132918887Y-53918834D01*
X132918887Y-53915834D01*
X132919887Y-53913834D01*
X132920887Y-53910834D01*
X132921887Y-53908834D01*
X132922887Y-53905834D01*
X132923887Y-53903834D01*
X132925887Y-53901834D01*
X132926887Y-53899834D01*
X132928887Y-53897834D01*
X132929887Y-53895834D01*
X132931887Y-53893834D01*
X132933887Y-53891834D01*
X132935887Y-53889834D01*
X132937887Y-53888834D01*
X132939887Y-53886834D01*
X132942887Y-53885834D01*
X132944887Y-53883834D01*
X132946887Y-53882834D01*
X132949887Y-53881834D01*
X132951887Y-53880834D01*
X132954887Y-53880834D01*
X132956887Y-53879834D01*
X132959887Y-53879834D01*
X132961887Y-53878834D01*
X132964887Y-53878834D01*
X132966887Y-53878834D01*
X133592887Y-53878834D01*
X133594887Y-53878834D01*
X133597887Y-53878834D01*
X133599887Y-53879834D01*
G37*
X135275887Y-53879834D02*
X135278887Y-53879834D01*
X135280887Y-53880834D01*
X135283887Y-53880834D01*
X135285887Y-53881834D01*
X135288887Y-53882834D01*
X135290887Y-53883834D01*
X135292887Y-53885834D01*
X135295887Y-53886834D01*
X135297887Y-53888834D01*
X135299887Y-53889834D01*
X135301887Y-53891834D01*
X135303887Y-53893834D01*
X135305887Y-53895834D01*
X135306887Y-53897834D01*
X135308887Y-53899834D01*
X135309887Y-53901834D01*
X135311887Y-53903834D01*
X135312887Y-53905834D01*
X135313887Y-53908834D01*
X135314887Y-53910834D01*
X135315887Y-53913834D01*
X135316887Y-53915834D01*
X135316887Y-53918834D01*
X135317887Y-53920834D01*
X135317887Y-53923834D01*
X135317887Y-53925834D01*
X135317887Y-53928834D01*
X135317887Y-55698834D01*
X135317887Y-55701834D01*
X135317887Y-55703834D01*
X135317887Y-55706834D01*
X135316887Y-55708834D01*
X135316887Y-55711834D01*
X135315887Y-55713834D01*
X135314887Y-55716834D01*
X135313887Y-55718834D01*
X135312887Y-55721834D01*
X135311887Y-55723834D01*
X135309887Y-55725834D01*
X135308887Y-55727834D01*
X135306887Y-55729834D01*
X135305887Y-55731834D01*
X135303887Y-55733834D01*
X135301887Y-55735834D01*
X135299887Y-55737834D01*
X135297887Y-55738834D01*
X135295887Y-55740834D01*
X135292887Y-55741834D01*
X135290887Y-55743834D01*
X135288887Y-55744834D01*
X135285887Y-55745834D01*
X135283887Y-55746834D01*
X135280887Y-55746834D01*
X135278887Y-55747834D01*
X135275887Y-55747834D01*
X135273887Y-55748834D01*
X135270887Y-55748834D01*
X135268887Y-55748834D01*
X134642887Y-55748834D01*
X134640887Y-55748834D01*
X134637887Y-55748834D01*
X134635887Y-55747834D01*
X134632887Y-55747834D01*
X134630887Y-55746834D01*
X134627887Y-55746834D01*
X134625887Y-55745834D01*
X134622887Y-55744834D01*
X134620887Y-55743834D01*
X134617887Y-55741834D01*
X134615887Y-55740834D01*
X134613887Y-55738834D01*
X134611887Y-55737834D01*
X134609887Y-55735834D01*
X134607887Y-55733834D01*
X134605887Y-55731834D01*
X134604887Y-55729834D01*
X134602887Y-55727834D01*
X134601887Y-55725834D01*
X134599887Y-55723834D01*
X134598887Y-55721834D01*
X134597887Y-55718834D01*
X134596887Y-55716834D01*
X134595887Y-55713834D01*
X134594887Y-55711834D01*
X134594887Y-55708834D01*
X134593887Y-55706834D01*
X134593887Y-55703834D01*
X134593887Y-55701834D01*
X134592887Y-55698834D01*
X134593387Y-55698834D01*
X134592887Y-53928834D01*
X134593887Y-53925834D01*
X134593887Y-53923834D01*
X134593887Y-53920834D01*
X134594887Y-53918834D01*
X134594887Y-53915834D01*
X134595887Y-53913834D01*
X134596887Y-53910834D01*
X134597887Y-53908834D01*
X134598887Y-53905834D01*
X134599887Y-53903834D01*
X134601887Y-53901834D01*
X134602887Y-53899834D01*
X134604887Y-53897834D01*
X134605887Y-53895834D01*
X134607887Y-53893834D01*
X134609887Y-53891834D01*
X134611887Y-53889834D01*
X134613887Y-53888834D01*
X134615887Y-53886834D01*
X134617887Y-53885834D01*
X134620887Y-53883834D01*
X134622887Y-53882834D01*
X134625887Y-53881834D01*
X134627887Y-53880834D01*
X134630887Y-53880834D01*
X134632887Y-53879834D01*
X134635887Y-53879834D01*
X134637887Y-53878834D01*
X134640887Y-53878834D01*
X134642887Y-53878834D01*
X135268887Y-53878834D01*
X135270887Y-53878834D01*
X135273887Y-53878834D01*
X135275887Y-53879834D01*
G36*
X135275887Y-53879834D02*
G01*
X135278887Y-53879834D01*
X135280887Y-53880834D01*
X135283887Y-53880834D01*
X135285887Y-53881834D01*
X135288887Y-53882834D01*
X135290887Y-53883834D01*
X135292887Y-53885834D01*
X135295887Y-53886834D01*
X135297887Y-53888834D01*
X135299887Y-53889834D01*
X135301887Y-53891834D01*
X135303887Y-53893834D01*
X135305887Y-53895834D01*
X135306887Y-53897834D01*
X135308887Y-53899834D01*
X135309887Y-53901834D01*
X135311887Y-53903834D01*
X135312887Y-53905834D01*
X135313887Y-53908834D01*
X135314887Y-53910834D01*
X135315887Y-53913834D01*
X135316887Y-53915834D01*
X135316887Y-53918834D01*
X135317887Y-53920834D01*
X135317887Y-53923834D01*
X135317887Y-53925834D01*
X135317887Y-53928834D01*
X135317887Y-55698834D01*
X135317887Y-55701834D01*
X135317887Y-55703834D01*
X135317887Y-55706834D01*
X135316887Y-55708834D01*
X135316887Y-55711834D01*
X135315887Y-55713834D01*
X135314887Y-55716834D01*
X135313887Y-55718834D01*
X135312887Y-55721834D01*
X135311887Y-55723834D01*
X135309887Y-55725834D01*
X135308887Y-55727834D01*
X135306887Y-55729834D01*
X135305887Y-55731834D01*
X135303887Y-55733834D01*
X135301887Y-55735834D01*
X135299887Y-55737834D01*
X135297887Y-55738834D01*
X135295887Y-55740834D01*
X135292887Y-55741834D01*
X135290887Y-55743834D01*
X135288887Y-55744834D01*
X135285887Y-55745834D01*
X135283887Y-55746834D01*
X135280887Y-55746834D01*
X135278887Y-55747834D01*
X135275887Y-55747834D01*
X135273887Y-55748834D01*
X135270887Y-55748834D01*
X135268887Y-55748834D01*
X134642887Y-55748834D01*
X134640887Y-55748834D01*
X134637887Y-55748834D01*
X134635887Y-55747834D01*
X134632887Y-55747834D01*
X134630887Y-55746834D01*
X134627887Y-55746834D01*
X134625887Y-55745834D01*
X134622887Y-55744834D01*
X134620887Y-55743834D01*
X134617887Y-55741834D01*
X134615887Y-55740834D01*
X134613887Y-55738834D01*
X134611887Y-55737834D01*
X134609887Y-55735834D01*
X134607887Y-55733834D01*
X134605887Y-55731834D01*
X134604887Y-55729834D01*
X134602887Y-55727834D01*
X134601887Y-55725834D01*
X134599887Y-55723834D01*
X134598887Y-55721834D01*
X134597887Y-55718834D01*
X134596887Y-55716834D01*
X134595887Y-55713834D01*
X134594887Y-55711834D01*
X134594887Y-55708834D01*
X134593887Y-55706834D01*
X134593887Y-55703834D01*
X134593887Y-55701834D01*
X134592887Y-55698834D01*
X134593387Y-55698834D01*
X134592887Y-53928834D01*
X134593887Y-53925834D01*
X134593887Y-53923834D01*
X134593887Y-53920834D01*
X134594887Y-53918834D01*
X134594887Y-53915834D01*
X134595887Y-53913834D01*
X134596887Y-53910834D01*
X134597887Y-53908834D01*
X134598887Y-53905834D01*
X134599887Y-53903834D01*
X134601887Y-53901834D01*
X134602887Y-53899834D01*
X134604887Y-53897834D01*
X134605887Y-53895834D01*
X134607887Y-53893834D01*
X134609887Y-53891834D01*
X134611887Y-53889834D01*
X134613887Y-53888834D01*
X134615887Y-53886834D01*
X134617887Y-53885834D01*
X134620887Y-53883834D01*
X134622887Y-53882834D01*
X134625887Y-53881834D01*
X134627887Y-53880834D01*
X134630887Y-53880834D01*
X134632887Y-53879834D01*
X134635887Y-53879834D01*
X134637887Y-53878834D01*
X134640887Y-53878834D01*
X134642887Y-53878834D01*
X135268887Y-53878834D01*
X135270887Y-53878834D01*
X135273887Y-53878834D01*
X135275887Y-53879834D01*
G37*
X133450887Y-51276834D02*
X133452887Y-51276834D01*
X133455887Y-51277834D01*
X133457887Y-51277834D01*
X133460887Y-51278834D01*
X133462887Y-51279834D01*
X133465887Y-51280834D01*
X133467887Y-51282834D01*
X133469887Y-51283834D01*
X133471887Y-51285834D01*
X133473887Y-51286834D01*
X133475887Y-51288834D01*
X133477887Y-51290834D01*
X133479887Y-51292834D01*
X133481887Y-51294834D01*
X133482887Y-51296834D01*
X133484887Y-51298834D01*
X133485887Y-51300834D01*
X133487887Y-51302834D01*
X133488887Y-51305834D01*
X133489887Y-51307834D01*
X133490887Y-51310834D01*
X133490887Y-51312834D01*
X133491887Y-51315834D01*
X133491887Y-51317834D01*
X133492887Y-51320834D01*
X133492887Y-51322834D01*
X133492887Y-51325834D01*
X133492887Y-51825834D01*
X133492887Y-51828834D01*
X133492887Y-51830834D01*
X133491887Y-51833834D01*
X133491887Y-51835834D01*
X133490887Y-51838834D01*
X133490887Y-51840834D01*
X133489887Y-51843834D01*
X133488887Y-51845834D01*
X133487887Y-51848834D01*
X133485887Y-51850834D01*
X133484887Y-51852834D01*
X133482887Y-51854834D01*
X133481887Y-51856834D01*
X133479887Y-51858834D01*
X133477887Y-51860834D01*
X133475887Y-51862834D01*
X133473887Y-51864834D01*
X133471887Y-51865834D01*
X133469887Y-51867834D01*
X133467887Y-51868834D01*
X133465887Y-51870834D01*
X133462887Y-51871834D01*
X133460887Y-51872834D01*
X133457887Y-51873834D01*
X133455887Y-51873834D01*
X133452887Y-51874834D01*
X133450887Y-51874834D01*
X133447887Y-51875834D01*
X133445887Y-51875834D01*
X133442887Y-51875834D01*
X132317887Y-51875834D01*
X132314887Y-51875834D01*
X132312887Y-51875834D01*
X132309887Y-51874834D01*
X132307887Y-51874834D01*
X132304887Y-51873834D01*
X132302887Y-51873834D01*
X132299887Y-51872834D01*
X132297887Y-51871834D01*
X132294887Y-51870834D01*
X132292887Y-51868834D01*
X132290887Y-51867834D01*
X132288887Y-51865834D01*
X132286887Y-51864834D01*
X132284887Y-51862834D01*
X132282887Y-51860834D01*
X132280887Y-51858834D01*
X132278887Y-51856834D01*
X132277887Y-51854834D01*
X132275887Y-51852834D01*
X132274887Y-51850834D01*
X132272887Y-51848834D01*
X132271887Y-51845834D01*
X132270887Y-51843834D01*
X132269887Y-51840834D01*
X132269887Y-51838834D01*
X132268887Y-51835834D01*
X132268887Y-51833834D01*
X132267887Y-51830834D01*
X132267887Y-51828834D01*
X132267887Y-51825834D01*
X132267887Y-51675834D01*
X132267887Y-51672834D01*
X132267887Y-51670834D01*
X132268887Y-51667834D01*
X132268887Y-51665834D01*
X132269887Y-51662834D01*
X132269887Y-51660834D01*
X132270887Y-51657834D01*
X132271887Y-51655834D01*
X132272887Y-51652834D01*
X132274887Y-51650834D01*
X132275887Y-51648834D01*
X132277887Y-51646834D01*
X132278887Y-51644834D01*
X132280887Y-51642834D01*
X132282887Y-51640834D01*
X132284887Y-51638834D01*
X132286887Y-51636834D01*
X132288887Y-51635834D01*
X132290887Y-51633834D01*
X132292887Y-51632834D01*
X132294887Y-51630834D01*
X132297887Y-51629834D01*
X132299887Y-51628834D01*
X132302887Y-51627834D01*
X132304887Y-51627834D01*
X132307887Y-51626834D01*
X132309887Y-51626834D01*
X132312887Y-51625834D01*
X132314887Y-51625834D01*
X132317887Y-51625834D01*
X133042887Y-51625834D01*
X133047887Y-51625834D01*
X133052887Y-51624834D01*
X133058887Y-51624834D01*
X133063887Y-51623834D01*
X133068887Y-51622834D01*
X133073887Y-51620834D01*
X133078887Y-51618834D01*
X133083887Y-51616834D01*
X133087887Y-51614834D01*
X133092887Y-51612834D01*
X133096887Y-51609834D01*
X133101887Y-51606834D01*
X133105887Y-51603834D01*
X133109887Y-51599834D01*
X133113887Y-51596834D01*
X133116887Y-51592834D01*
X133120887Y-51588834D01*
X133123887Y-51584834D01*
X133126887Y-51579834D01*
X133129887Y-51575834D01*
X133131887Y-51570834D01*
X133133887Y-51566834D01*
X133135887Y-51561834D01*
X133137887Y-51556834D01*
X133139887Y-51551834D01*
X133140887Y-51546834D01*
X133141887Y-51541834D01*
X133141887Y-51535834D01*
X133142887Y-51530834D01*
X133142887Y-51525834D01*
X133142887Y-51325834D01*
X133142887Y-51322834D01*
X133142887Y-51320834D01*
X133143887Y-51317834D01*
X133143887Y-51315834D01*
X133144887Y-51312834D01*
X133144887Y-51310834D01*
X133145887Y-51307834D01*
X133146887Y-51305834D01*
X133147887Y-51302834D01*
X133149887Y-51300834D01*
X133150887Y-51298834D01*
X133152887Y-51296834D01*
X133153887Y-51294834D01*
X133155887Y-51292834D01*
X133157887Y-51290834D01*
X133159887Y-51288834D01*
X133161887Y-51286834D01*
X133163887Y-51285834D01*
X133165887Y-51283834D01*
X133167887Y-51282834D01*
X133169887Y-51280834D01*
X133172887Y-51279834D01*
X133174887Y-51278834D01*
X133177887Y-51277834D01*
X133179887Y-51277834D01*
X133182887Y-51276834D01*
X133184887Y-51276834D01*
X133187887Y-51275834D01*
X133189887Y-51275834D01*
X133192887Y-51275834D01*
X133442887Y-51275834D01*
X133445887Y-51275834D01*
X133447887Y-51275834D01*
X133450887Y-51276834D01*
G36*
X133450887Y-51276834D02*
G01*
X133452887Y-51276834D01*
X133455887Y-51277834D01*
X133457887Y-51277834D01*
X133460887Y-51278834D01*
X133462887Y-51279834D01*
X133465887Y-51280834D01*
X133467887Y-51282834D01*
X133469887Y-51283834D01*
X133471887Y-51285834D01*
X133473887Y-51286834D01*
X133475887Y-51288834D01*
X133477887Y-51290834D01*
X133479887Y-51292834D01*
X133481887Y-51294834D01*
X133482887Y-51296834D01*
X133484887Y-51298834D01*
X133485887Y-51300834D01*
X133487887Y-51302834D01*
X133488887Y-51305834D01*
X133489887Y-51307834D01*
X133490887Y-51310834D01*
X133490887Y-51312834D01*
X133491887Y-51315834D01*
X133491887Y-51317834D01*
X133492887Y-51320834D01*
X133492887Y-51322834D01*
X133492887Y-51325834D01*
X133492887Y-51825834D01*
X133492887Y-51828834D01*
X133492887Y-51830834D01*
X133491887Y-51833834D01*
X133491887Y-51835834D01*
X133490887Y-51838834D01*
X133490887Y-51840834D01*
X133489887Y-51843834D01*
X133488887Y-51845834D01*
X133487887Y-51848834D01*
X133485887Y-51850834D01*
X133484887Y-51852834D01*
X133482887Y-51854834D01*
X133481887Y-51856834D01*
X133479887Y-51858834D01*
X133477887Y-51860834D01*
X133475887Y-51862834D01*
X133473887Y-51864834D01*
X133471887Y-51865834D01*
X133469887Y-51867834D01*
X133467887Y-51868834D01*
X133465887Y-51870834D01*
X133462887Y-51871834D01*
X133460887Y-51872834D01*
X133457887Y-51873834D01*
X133455887Y-51873834D01*
X133452887Y-51874834D01*
X133450887Y-51874834D01*
X133447887Y-51875834D01*
X133445887Y-51875834D01*
X133442887Y-51875834D01*
X132317887Y-51875834D01*
X132314887Y-51875834D01*
X132312887Y-51875834D01*
X132309887Y-51874834D01*
X132307887Y-51874834D01*
X132304887Y-51873834D01*
X132302887Y-51873834D01*
X132299887Y-51872834D01*
X132297887Y-51871834D01*
X132294887Y-51870834D01*
X132292887Y-51868834D01*
X132290887Y-51867834D01*
X132288887Y-51865834D01*
X132286887Y-51864834D01*
X132284887Y-51862834D01*
X132282887Y-51860834D01*
X132280887Y-51858834D01*
X132278887Y-51856834D01*
X132277887Y-51854834D01*
X132275887Y-51852834D01*
X132274887Y-51850834D01*
X132272887Y-51848834D01*
X132271887Y-51845834D01*
X132270887Y-51843834D01*
X132269887Y-51840834D01*
X132269887Y-51838834D01*
X132268887Y-51835834D01*
X132268887Y-51833834D01*
X132267887Y-51830834D01*
X132267887Y-51828834D01*
X132267887Y-51825834D01*
X132267887Y-51675834D01*
X132267887Y-51672834D01*
X132267887Y-51670834D01*
X132268887Y-51667834D01*
X132268887Y-51665834D01*
X132269887Y-51662834D01*
X132269887Y-51660834D01*
X132270887Y-51657834D01*
X132271887Y-51655834D01*
X132272887Y-51652834D01*
X132274887Y-51650834D01*
X132275887Y-51648834D01*
X132277887Y-51646834D01*
X132278887Y-51644834D01*
X132280887Y-51642834D01*
X132282887Y-51640834D01*
X132284887Y-51638834D01*
X132286887Y-51636834D01*
X132288887Y-51635834D01*
X132290887Y-51633834D01*
X132292887Y-51632834D01*
X132294887Y-51630834D01*
X132297887Y-51629834D01*
X132299887Y-51628834D01*
X132302887Y-51627834D01*
X132304887Y-51627834D01*
X132307887Y-51626834D01*
X132309887Y-51626834D01*
X132312887Y-51625834D01*
X132314887Y-51625834D01*
X132317887Y-51625834D01*
X133042887Y-51625834D01*
X133047887Y-51625834D01*
X133052887Y-51624834D01*
X133058887Y-51624834D01*
X133063887Y-51623834D01*
X133068887Y-51622834D01*
X133073887Y-51620834D01*
X133078887Y-51618834D01*
X133083887Y-51616834D01*
X133087887Y-51614834D01*
X133092887Y-51612834D01*
X133096887Y-51609834D01*
X133101887Y-51606834D01*
X133105887Y-51603834D01*
X133109887Y-51599834D01*
X133113887Y-51596834D01*
X133116887Y-51592834D01*
X133120887Y-51588834D01*
X133123887Y-51584834D01*
X133126887Y-51579834D01*
X133129887Y-51575834D01*
X133131887Y-51570834D01*
X133133887Y-51566834D01*
X133135887Y-51561834D01*
X133137887Y-51556834D01*
X133139887Y-51551834D01*
X133140887Y-51546834D01*
X133141887Y-51541834D01*
X133141887Y-51535834D01*
X133142887Y-51530834D01*
X133142887Y-51525834D01*
X133142887Y-51325834D01*
X133142887Y-51322834D01*
X133142887Y-51320834D01*
X133143887Y-51317834D01*
X133143887Y-51315834D01*
X133144887Y-51312834D01*
X133144887Y-51310834D01*
X133145887Y-51307834D01*
X133146887Y-51305834D01*
X133147887Y-51302834D01*
X133149887Y-51300834D01*
X133150887Y-51298834D01*
X133152887Y-51296834D01*
X133153887Y-51294834D01*
X133155887Y-51292834D01*
X133157887Y-51290834D01*
X133159887Y-51288834D01*
X133161887Y-51286834D01*
X133163887Y-51285834D01*
X133165887Y-51283834D01*
X133167887Y-51282834D01*
X133169887Y-51280834D01*
X133172887Y-51279834D01*
X133174887Y-51278834D01*
X133177887Y-51277834D01*
X133179887Y-51277834D01*
X133182887Y-51276834D01*
X133184887Y-51276834D01*
X133187887Y-51275834D01*
X133189887Y-51275834D01*
X133192887Y-51275834D01*
X133442887Y-51275834D01*
X133445887Y-51275834D01*
X133447887Y-51275834D01*
X133450887Y-51276834D01*
G37*
X135050887Y-51276834D02*
X135052887Y-51276834D01*
X135055887Y-51277834D01*
X135057887Y-51277834D01*
X135060887Y-51278834D01*
X135062887Y-51279834D01*
X135065887Y-51280834D01*
X135067887Y-51282834D01*
X135069887Y-51283834D01*
X135071887Y-51285834D01*
X135073887Y-51286834D01*
X135075887Y-51288834D01*
X135077887Y-51290834D01*
X135079887Y-51292834D01*
X135081887Y-51294834D01*
X135082887Y-51296834D01*
X135084887Y-51298834D01*
X135085887Y-51300834D01*
X135087887Y-51302834D01*
X135088887Y-51305834D01*
X135089887Y-51307834D01*
X135090887Y-51310834D01*
X135090887Y-51312834D01*
X135091887Y-51315834D01*
X135091887Y-51317834D01*
X135092887Y-51320834D01*
X135092887Y-51322834D01*
X135092887Y-51325834D01*
X135092887Y-51525834D01*
X135092887Y-51530834D01*
X135093887Y-51535834D01*
X135093887Y-51541834D01*
X135094887Y-51546834D01*
X135095887Y-51551834D01*
X135097887Y-51556834D01*
X135099887Y-51561834D01*
X135101887Y-51566834D01*
X135103887Y-51570834D01*
X135105887Y-51575834D01*
X135108887Y-51579834D01*
X135111887Y-51584834D01*
X135114887Y-51588834D01*
X135118887Y-51592834D01*
X135121887Y-51596834D01*
X135125887Y-51599834D01*
X135129887Y-51603834D01*
X135133887Y-51606834D01*
X135138887Y-51609834D01*
X135142887Y-51612834D01*
X135147887Y-51614834D01*
X135151887Y-51616834D01*
X135156887Y-51618834D01*
X135161887Y-51620834D01*
X135166887Y-51622834D01*
X135171887Y-51623834D01*
X135176887Y-51624834D01*
X135182887Y-51624834D01*
X135187887Y-51625834D01*
X135192887Y-51625834D01*
X135917887Y-51625834D01*
X135920887Y-51625834D01*
X135922887Y-51625834D01*
X135925887Y-51626834D01*
X135927887Y-51626834D01*
X135930887Y-51627834D01*
X135932887Y-51627834D01*
X135935887Y-51628834D01*
X135937887Y-51629834D01*
X135940887Y-51630834D01*
X135942887Y-51632834D01*
X135944887Y-51633834D01*
X135946887Y-51635834D01*
X135948887Y-51636834D01*
X135950887Y-51638834D01*
X135952887Y-51640834D01*
X135954887Y-51642834D01*
X135956887Y-51644834D01*
X135957887Y-51646834D01*
X135959887Y-51648834D01*
X135960887Y-51650834D01*
X135962887Y-51652834D01*
X135963887Y-51655834D01*
X135964887Y-51657834D01*
X135965887Y-51660834D01*
X135965887Y-51662834D01*
X135966887Y-51665834D01*
X135966887Y-51667834D01*
X135967887Y-51670834D01*
X135967887Y-51672834D01*
X135967887Y-51675834D01*
X135967887Y-51825834D01*
X135967887Y-51828834D01*
X135967887Y-51830834D01*
X135966887Y-51833834D01*
X135966887Y-51835834D01*
X135965887Y-51838834D01*
X135965887Y-51840834D01*
X135964887Y-51843834D01*
X135963887Y-51845834D01*
X135962887Y-51848834D01*
X135960887Y-51850834D01*
X135959887Y-51852834D01*
X135957887Y-51854834D01*
X135956887Y-51856834D01*
X135954887Y-51858834D01*
X135952887Y-51860834D01*
X135950887Y-51862834D01*
X135948887Y-51864834D01*
X135946887Y-51865834D01*
X135944887Y-51867834D01*
X135942887Y-51868834D01*
X135940887Y-51870834D01*
X135937887Y-51871834D01*
X135935887Y-51872834D01*
X135932887Y-51873834D01*
X135930887Y-51873834D01*
X135927887Y-51874834D01*
X135925887Y-51874834D01*
X135922887Y-51875834D01*
X135920887Y-51875834D01*
X135917887Y-51875834D01*
X134792887Y-51875834D01*
X134789887Y-51875834D01*
X134787887Y-51875834D01*
X134784887Y-51874834D01*
X134782887Y-51874834D01*
X134779887Y-51873834D01*
X134777887Y-51873834D01*
X134774887Y-51872834D01*
X134772887Y-51871834D01*
X134769887Y-51870834D01*
X134767887Y-51868834D01*
X134765887Y-51867834D01*
X134763887Y-51865834D01*
X134761887Y-51864834D01*
X134759887Y-51862834D01*
X134757887Y-51860834D01*
X134755887Y-51858834D01*
X134753887Y-51856834D01*
X134752887Y-51854834D01*
X134750887Y-51852834D01*
X134749887Y-51850834D01*
X134747887Y-51848834D01*
X134746887Y-51845834D01*
X134745887Y-51843834D01*
X134744887Y-51840834D01*
X134744887Y-51838834D01*
X134743887Y-51835834D01*
X134743887Y-51833834D01*
X134742887Y-51830834D01*
X134742887Y-51828834D01*
X134742887Y-51825834D01*
X134742887Y-51325834D01*
X134742887Y-51322834D01*
X134742887Y-51320834D01*
X134743887Y-51317834D01*
X134743887Y-51315834D01*
X134744887Y-51312834D01*
X134744887Y-51310834D01*
X134745887Y-51307834D01*
X134746887Y-51305834D01*
X134747887Y-51302834D01*
X134749887Y-51300834D01*
X134750887Y-51298834D01*
X134752887Y-51296834D01*
X134753887Y-51294834D01*
X134755887Y-51292834D01*
X134757887Y-51290834D01*
X134759887Y-51288834D01*
X134761887Y-51286834D01*
X134763887Y-51285834D01*
X134765887Y-51283834D01*
X134767887Y-51282834D01*
X134769887Y-51280834D01*
X134772887Y-51279834D01*
X134774887Y-51278834D01*
X134777887Y-51277834D01*
X134779887Y-51277834D01*
X134782887Y-51276834D01*
X134784887Y-51276834D01*
X134787887Y-51275834D01*
X134789887Y-51275834D01*
X134792887Y-51275834D01*
X135042887Y-51275834D01*
X135045887Y-51275834D01*
X135047887Y-51275834D01*
X135050887Y-51276834D01*
G36*
X135050887Y-51276834D02*
G01*
X135052887Y-51276834D01*
X135055887Y-51277834D01*
X135057887Y-51277834D01*
X135060887Y-51278834D01*
X135062887Y-51279834D01*
X135065887Y-51280834D01*
X135067887Y-51282834D01*
X135069887Y-51283834D01*
X135071887Y-51285834D01*
X135073887Y-51286834D01*
X135075887Y-51288834D01*
X135077887Y-51290834D01*
X135079887Y-51292834D01*
X135081887Y-51294834D01*
X135082887Y-51296834D01*
X135084887Y-51298834D01*
X135085887Y-51300834D01*
X135087887Y-51302834D01*
X135088887Y-51305834D01*
X135089887Y-51307834D01*
X135090887Y-51310834D01*
X135090887Y-51312834D01*
X135091887Y-51315834D01*
X135091887Y-51317834D01*
X135092887Y-51320834D01*
X135092887Y-51322834D01*
X135092887Y-51325834D01*
X135092887Y-51525834D01*
X135092887Y-51530834D01*
X135093887Y-51535834D01*
X135093887Y-51541834D01*
X135094887Y-51546834D01*
X135095887Y-51551834D01*
X135097887Y-51556834D01*
X135099887Y-51561834D01*
X135101887Y-51566834D01*
X135103887Y-51570834D01*
X135105887Y-51575834D01*
X135108887Y-51579834D01*
X135111887Y-51584834D01*
X135114887Y-51588834D01*
X135118887Y-51592834D01*
X135121887Y-51596834D01*
X135125887Y-51599834D01*
X135129887Y-51603834D01*
X135133887Y-51606834D01*
X135138887Y-51609834D01*
X135142887Y-51612834D01*
X135147887Y-51614834D01*
X135151887Y-51616834D01*
X135156887Y-51618834D01*
X135161887Y-51620834D01*
X135166887Y-51622834D01*
X135171887Y-51623834D01*
X135176887Y-51624834D01*
X135182887Y-51624834D01*
X135187887Y-51625834D01*
X135192887Y-51625834D01*
X135917887Y-51625834D01*
X135920887Y-51625834D01*
X135922887Y-51625834D01*
X135925887Y-51626834D01*
X135927887Y-51626834D01*
X135930887Y-51627834D01*
X135932887Y-51627834D01*
X135935887Y-51628834D01*
X135937887Y-51629834D01*
X135940887Y-51630834D01*
X135942887Y-51632834D01*
X135944887Y-51633834D01*
X135946887Y-51635834D01*
X135948887Y-51636834D01*
X135950887Y-51638834D01*
X135952887Y-51640834D01*
X135954887Y-51642834D01*
X135956887Y-51644834D01*
X135957887Y-51646834D01*
X135959887Y-51648834D01*
X135960887Y-51650834D01*
X135962887Y-51652834D01*
X135963887Y-51655834D01*
X135964887Y-51657834D01*
X135965887Y-51660834D01*
X135965887Y-51662834D01*
X135966887Y-51665834D01*
X135966887Y-51667834D01*
X135967887Y-51670834D01*
X135967887Y-51672834D01*
X135967887Y-51675834D01*
X135967887Y-51825834D01*
X135967887Y-51828834D01*
X135967887Y-51830834D01*
X135966887Y-51833834D01*
X135966887Y-51835834D01*
X135965887Y-51838834D01*
X135965887Y-51840834D01*
X135964887Y-51843834D01*
X135963887Y-51845834D01*
X135962887Y-51848834D01*
X135960887Y-51850834D01*
X135959887Y-51852834D01*
X135957887Y-51854834D01*
X135956887Y-51856834D01*
X135954887Y-51858834D01*
X135952887Y-51860834D01*
X135950887Y-51862834D01*
X135948887Y-51864834D01*
X135946887Y-51865834D01*
X135944887Y-51867834D01*
X135942887Y-51868834D01*
X135940887Y-51870834D01*
X135937887Y-51871834D01*
X135935887Y-51872834D01*
X135932887Y-51873834D01*
X135930887Y-51873834D01*
X135927887Y-51874834D01*
X135925887Y-51874834D01*
X135922887Y-51875834D01*
X135920887Y-51875834D01*
X135917887Y-51875834D01*
X134792887Y-51875834D01*
X134789887Y-51875834D01*
X134787887Y-51875834D01*
X134784887Y-51874834D01*
X134782887Y-51874834D01*
X134779887Y-51873834D01*
X134777887Y-51873834D01*
X134774887Y-51872834D01*
X134772887Y-51871834D01*
X134769887Y-51870834D01*
X134767887Y-51868834D01*
X134765887Y-51867834D01*
X134763887Y-51865834D01*
X134761887Y-51864834D01*
X134759887Y-51862834D01*
X134757887Y-51860834D01*
X134755887Y-51858834D01*
X134753887Y-51856834D01*
X134752887Y-51854834D01*
X134750887Y-51852834D01*
X134749887Y-51850834D01*
X134747887Y-51848834D01*
X134746887Y-51845834D01*
X134745887Y-51843834D01*
X134744887Y-51840834D01*
X134744887Y-51838834D01*
X134743887Y-51835834D01*
X134743887Y-51833834D01*
X134742887Y-51830834D01*
X134742887Y-51828834D01*
X134742887Y-51825834D01*
X134742887Y-51325834D01*
X134742887Y-51322834D01*
X134742887Y-51320834D01*
X134743887Y-51317834D01*
X134743887Y-51315834D01*
X134744887Y-51312834D01*
X134744887Y-51310834D01*
X134745887Y-51307834D01*
X134746887Y-51305834D01*
X134747887Y-51302834D01*
X134749887Y-51300834D01*
X134750887Y-51298834D01*
X134752887Y-51296834D01*
X134753887Y-51294834D01*
X134755887Y-51292834D01*
X134757887Y-51290834D01*
X134759887Y-51288834D01*
X134761887Y-51286834D01*
X134763887Y-51285834D01*
X134765887Y-51283834D01*
X134767887Y-51282834D01*
X134769887Y-51280834D01*
X134772887Y-51279834D01*
X134774887Y-51278834D01*
X134777887Y-51277834D01*
X134779887Y-51277834D01*
X134782887Y-51276834D01*
X134784887Y-51276834D01*
X134787887Y-51275834D01*
X134789887Y-51275834D01*
X134792887Y-51275834D01*
X135042887Y-51275834D01*
X135045887Y-51275834D01*
X135047887Y-51275834D01*
X135050887Y-51276834D01*
G37*
X135925887Y-52126834D02*
X135927887Y-52126834D01*
X135930887Y-52127834D01*
X135932887Y-52127834D01*
X135935887Y-52128834D01*
X135937887Y-52129834D01*
X135940887Y-52130834D01*
X135942887Y-52132834D01*
X135944887Y-52133834D01*
X135946887Y-52135834D01*
X135948887Y-52136834D01*
X135950887Y-52138834D01*
X135952887Y-52140834D01*
X135954887Y-52142834D01*
X135956887Y-52144834D01*
X135957887Y-52146834D01*
X135959887Y-52148834D01*
X135960887Y-52150834D01*
X135962887Y-52152834D01*
X135963887Y-52155834D01*
X135964887Y-52157834D01*
X135965887Y-52160834D01*
X135965887Y-52162834D01*
X135966887Y-52165834D01*
X135966887Y-52167834D01*
X135967887Y-52170834D01*
X135967887Y-52172834D01*
X135967887Y-52175834D01*
X135967887Y-52325834D01*
X135967887Y-52328834D01*
X135967887Y-52330834D01*
X135966887Y-52333834D01*
X135966887Y-52335834D01*
X135965887Y-52338834D01*
X135965887Y-52340834D01*
X135964887Y-52343834D01*
X135963887Y-52345834D01*
X135962887Y-52348834D01*
X135960887Y-52350834D01*
X135959887Y-52352834D01*
X135957887Y-52354834D01*
X135956887Y-52356834D01*
X135954887Y-52358834D01*
X135952887Y-52360834D01*
X135950887Y-52362834D01*
X135948887Y-52364834D01*
X135946887Y-52365834D01*
X135944887Y-52367834D01*
X135942887Y-52368834D01*
X135940887Y-52370834D01*
X135937887Y-52371834D01*
X135935887Y-52372834D01*
X135932887Y-52373834D01*
X135930887Y-52373834D01*
X135927887Y-52374834D01*
X135925887Y-52374834D01*
X135922887Y-52375834D01*
X135920887Y-52375834D01*
X135917887Y-52375834D01*
X135617887Y-52375834D01*
X135614887Y-52375834D01*
X135612887Y-52375834D01*
X135609887Y-52376834D01*
X135607887Y-52376834D01*
X135604887Y-52377834D01*
X135602887Y-52377834D01*
X135599887Y-52378834D01*
X135597887Y-52379834D01*
X135594887Y-52380834D01*
X135592887Y-52382834D01*
X135590887Y-52383834D01*
X135588887Y-52385834D01*
X135586887Y-52386834D01*
X135584887Y-52388834D01*
X135582887Y-52390834D01*
X135580887Y-52392834D01*
X135578887Y-52394834D01*
X135577887Y-52396834D01*
X135575887Y-52398834D01*
X135574887Y-52400834D01*
X135572887Y-52402834D01*
X135571887Y-52405834D01*
X135570887Y-52407834D01*
X135569887Y-52410834D01*
X135569887Y-52412834D01*
X135568887Y-52415834D01*
X135568887Y-52417834D01*
X135567887Y-52420834D01*
X135567887Y-52422834D01*
X135567887Y-52425834D01*
X135567887Y-52575834D01*
X135567887Y-52578834D01*
X135567887Y-52580834D01*
X135568887Y-52583834D01*
X135568887Y-52585834D01*
X135569887Y-52588834D01*
X135569887Y-52590834D01*
X135570887Y-52593834D01*
X135571887Y-52595834D01*
X135572887Y-52598834D01*
X135574887Y-52600834D01*
X135575887Y-52602834D01*
X135577887Y-52604834D01*
X135578887Y-52606834D01*
X135580887Y-52608834D01*
X135582887Y-52610834D01*
X135584887Y-52612834D01*
X135586887Y-52614834D01*
X135588887Y-52615834D01*
X135590887Y-52617834D01*
X135592887Y-52618834D01*
X135594887Y-52620834D01*
X135597887Y-52621834D01*
X135599887Y-52622834D01*
X135602887Y-52623834D01*
X135604887Y-52623834D01*
X135607887Y-52624834D01*
X135609887Y-52624834D01*
X135612887Y-52625834D01*
X135614887Y-52625834D01*
X135617887Y-52625834D01*
X135917887Y-52625834D01*
X135920887Y-52625834D01*
X135922887Y-52625834D01*
X135925887Y-52626834D01*
X135927887Y-52626834D01*
X135930887Y-52627834D01*
X135932887Y-52627834D01*
X135935887Y-52628834D01*
X135937887Y-52629834D01*
X135940887Y-52630834D01*
X135942887Y-52632834D01*
X135944887Y-52633834D01*
X135946887Y-52635834D01*
X135948887Y-52636834D01*
X135950887Y-52638834D01*
X135952887Y-52640834D01*
X135954887Y-52642834D01*
X135956887Y-52644834D01*
X135957887Y-52646834D01*
X135959887Y-52648834D01*
X135960887Y-52650834D01*
X135962887Y-52652834D01*
X135963887Y-52655834D01*
X135964887Y-52657834D01*
X135965887Y-52660834D01*
X135965887Y-52662834D01*
X135966887Y-52665834D01*
X135966887Y-52667834D01*
X135967887Y-52670834D01*
X135967887Y-52672834D01*
X135967887Y-52675834D01*
X135967887Y-52825834D01*
X135967887Y-52828834D01*
X135967887Y-52830834D01*
X135966887Y-52833834D01*
X135966887Y-52835834D01*
X135965887Y-52838834D01*
X135965887Y-52840834D01*
X135964887Y-52843834D01*
X135963887Y-52845834D01*
X135962887Y-52848834D01*
X135960887Y-52850834D01*
X135959887Y-52852834D01*
X135957887Y-52854834D01*
X135956887Y-52856834D01*
X135954887Y-52858834D01*
X135952887Y-52860834D01*
X135950887Y-52862834D01*
X135948887Y-52864834D01*
X135946887Y-52865834D01*
X135944887Y-52867834D01*
X135942887Y-52868834D01*
X135940887Y-52870834D01*
X135937887Y-52871834D01*
X135935887Y-52872834D01*
X135932887Y-52873834D01*
X135930887Y-52873834D01*
X135927887Y-52874834D01*
X135925887Y-52874834D01*
X135922887Y-52875834D01*
X135920887Y-52875834D01*
X135917887Y-52875834D01*
X134817887Y-52875834D01*
X134814887Y-52875834D01*
X134812887Y-52875834D01*
X134809887Y-52874834D01*
X134807887Y-52874834D01*
X134804887Y-52873834D01*
X134802887Y-52873834D01*
X134799887Y-52872834D01*
X134797887Y-52871834D01*
X134794887Y-52870834D01*
X134792887Y-52868834D01*
X134790887Y-52867834D01*
X134788887Y-52865834D01*
X134786887Y-52864834D01*
X134784887Y-52862834D01*
X134782887Y-52860834D01*
X134780887Y-52858834D01*
X134778887Y-52856834D01*
X134777887Y-52854834D01*
X134775887Y-52852834D01*
X134774887Y-52850834D01*
X134772887Y-52848834D01*
X134771887Y-52845834D01*
X134770887Y-52843834D01*
X134769887Y-52840834D01*
X134769887Y-52838834D01*
X134768887Y-52835834D01*
X134768887Y-52833834D01*
X134767887Y-52830834D01*
X134767887Y-52828834D01*
X134767887Y-52825834D01*
X134767887Y-52175834D01*
X134767887Y-52172834D01*
X134767887Y-52170834D01*
X134768887Y-52167834D01*
X134768887Y-52165834D01*
X134769887Y-52162834D01*
X134769887Y-52160834D01*
X134770887Y-52157834D01*
X134771887Y-52155834D01*
X134772887Y-52152834D01*
X134774887Y-52150834D01*
X134775887Y-52148834D01*
X134777887Y-52146834D01*
X134778887Y-52144834D01*
X134780887Y-52142834D01*
X134782887Y-52140834D01*
X134784887Y-52138834D01*
X134786887Y-52136834D01*
X134788887Y-52135834D01*
X134790887Y-52133834D01*
X134792887Y-52132834D01*
X134794887Y-52130834D01*
X134797887Y-52129834D01*
X134799887Y-52128834D01*
X134802887Y-52127834D01*
X134804887Y-52127834D01*
X134807887Y-52126834D01*
X134809887Y-52126834D01*
X134812887Y-52125834D01*
X134814887Y-52125834D01*
X134817887Y-52125834D01*
X135917887Y-52125834D01*
X135920887Y-52125834D01*
X135922887Y-52125834D01*
X135925887Y-52126834D01*
G36*
X135925887Y-52126834D02*
G01*
X135927887Y-52126834D01*
X135930887Y-52127834D01*
X135932887Y-52127834D01*
X135935887Y-52128834D01*
X135937887Y-52129834D01*
X135940887Y-52130834D01*
X135942887Y-52132834D01*
X135944887Y-52133834D01*
X135946887Y-52135834D01*
X135948887Y-52136834D01*
X135950887Y-52138834D01*
X135952887Y-52140834D01*
X135954887Y-52142834D01*
X135956887Y-52144834D01*
X135957887Y-52146834D01*
X135959887Y-52148834D01*
X135960887Y-52150834D01*
X135962887Y-52152834D01*
X135963887Y-52155834D01*
X135964887Y-52157834D01*
X135965887Y-52160834D01*
X135965887Y-52162834D01*
X135966887Y-52165834D01*
X135966887Y-52167834D01*
X135967887Y-52170834D01*
X135967887Y-52172834D01*
X135967887Y-52175834D01*
X135967887Y-52325834D01*
X135967887Y-52328834D01*
X135967887Y-52330834D01*
X135966887Y-52333834D01*
X135966887Y-52335834D01*
X135965887Y-52338834D01*
X135965887Y-52340834D01*
X135964887Y-52343834D01*
X135963887Y-52345834D01*
X135962887Y-52348834D01*
X135960887Y-52350834D01*
X135959887Y-52352834D01*
X135957887Y-52354834D01*
X135956887Y-52356834D01*
X135954887Y-52358834D01*
X135952887Y-52360834D01*
X135950887Y-52362834D01*
X135948887Y-52364834D01*
X135946887Y-52365834D01*
X135944887Y-52367834D01*
X135942887Y-52368834D01*
X135940887Y-52370834D01*
X135937887Y-52371834D01*
X135935887Y-52372834D01*
X135932887Y-52373834D01*
X135930887Y-52373834D01*
X135927887Y-52374834D01*
X135925887Y-52374834D01*
X135922887Y-52375834D01*
X135920887Y-52375834D01*
X135917887Y-52375834D01*
X135617887Y-52375834D01*
X135614887Y-52375834D01*
X135612887Y-52375834D01*
X135609887Y-52376834D01*
X135607887Y-52376834D01*
X135604887Y-52377834D01*
X135602887Y-52377834D01*
X135599887Y-52378834D01*
X135597887Y-52379834D01*
X135594887Y-52380834D01*
X135592887Y-52382834D01*
X135590887Y-52383834D01*
X135588887Y-52385834D01*
X135586887Y-52386834D01*
X135584887Y-52388834D01*
X135582887Y-52390834D01*
X135580887Y-52392834D01*
X135578887Y-52394834D01*
X135577887Y-52396834D01*
X135575887Y-52398834D01*
X135574887Y-52400834D01*
X135572887Y-52402834D01*
X135571887Y-52405834D01*
X135570887Y-52407834D01*
X135569887Y-52410834D01*
X135569887Y-52412834D01*
X135568887Y-52415834D01*
X135568887Y-52417834D01*
X135567887Y-52420834D01*
X135567887Y-52422834D01*
X135567887Y-52425834D01*
X135567887Y-52575834D01*
X135567887Y-52578834D01*
X135567887Y-52580834D01*
X135568887Y-52583834D01*
X135568887Y-52585834D01*
X135569887Y-52588834D01*
X135569887Y-52590834D01*
X135570887Y-52593834D01*
X135571887Y-52595834D01*
X135572887Y-52598834D01*
X135574887Y-52600834D01*
X135575887Y-52602834D01*
X135577887Y-52604834D01*
X135578887Y-52606834D01*
X135580887Y-52608834D01*
X135582887Y-52610834D01*
X135584887Y-52612834D01*
X135586887Y-52614834D01*
X135588887Y-52615834D01*
X135590887Y-52617834D01*
X135592887Y-52618834D01*
X135594887Y-52620834D01*
X135597887Y-52621834D01*
X135599887Y-52622834D01*
X135602887Y-52623834D01*
X135604887Y-52623834D01*
X135607887Y-52624834D01*
X135609887Y-52624834D01*
X135612887Y-52625834D01*
X135614887Y-52625834D01*
X135617887Y-52625834D01*
X135917887Y-52625834D01*
X135920887Y-52625834D01*
X135922887Y-52625834D01*
X135925887Y-52626834D01*
X135927887Y-52626834D01*
X135930887Y-52627834D01*
X135932887Y-52627834D01*
X135935887Y-52628834D01*
X135937887Y-52629834D01*
X135940887Y-52630834D01*
X135942887Y-52632834D01*
X135944887Y-52633834D01*
X135946887Y-52635834D01*
X135948887Y-52636834D01*
X135950887Y-52638834D01*
X135952887Y-52640834D01*
X135954887Y-52642834D01*
X135956887Y-52644834D01*
X135957887Y-52646834D01*
X135959887Y-52648834D01*
X135960887Y-52650834D01*
X135962887Y-52652834D01*
X135963887Y-52655834D01*
X135964887Y-52657834D01*
X135965887Y-52660834D01*
X135965887Y-52662834D01*
X135966887Y-52665834D01*
X135966887Y-52667834D01*
X135967887Y-52670834D01*
X135967887Y-52672834D01*
X135967887Y-52675834D01*
X135967887Y-52825834D01*
X135967887Y-52828834D01*
X135967887Y-52830834D01*
X135966887Y-52833834D01*
X135966887Y-52835834D01*
X135965887Y-52838834D01*
X135965887Y-52840834D01*
X135964887Y-52843834D01*
X135963887Y-52845834D01*
X135962887Y-52848834D01*
X135960887Y-52850834D01*
X135959887Y-52852834D01*
X135957887Y-52854834D01*
X135956887Y-52856834D01*
X135954887Y-52858834D01*
X135952887Y-52860834D01*
X135950887Y-52862834D01*
X135948887Y-52864834D01*
X135946887Y-52865834D01*
X135944887Y-52867834D01*
X135942887Y-52868834D01*
X135940887Y-52870834D01*
X135937887Y-52871834D01*
X135935887Y-52872834D01*
X135932887Y-52873834D01*
X135930887Y-52873834D01*
X135927887Y-52874834D01*
X135925887Y-52874834D01*
X135922887Y-52875834D01*
X135920887Y-52875834D01*
X135917887Y-52875834D01*
X134817887Y-52875834D01*
X134814887Y-52875834D01*
X134812887Y-52875834D01*
X134809887Y-52874834D01*
X134807887Y-52874834D01*
X134804887Y-52873834D01*
X134802887Y-52873834D01*
X134799887Y-52872834D01*
X134797887Y-52871834D01*
X134794887Y-52870834D01*
X134792887Y-52868834D01*
X134790887Y-52867834D01*
X134788887Y-52865834D01*
X134786887Y-52864834D01*
X134784887Y-52862834D01*
X134782887Y-52860834D01*
X134780887Y-52858834D01*
X134778887Y-52856834D01*
X134777887Y-52854834D01*
X134775887Y-52852834D01*
X134774887Y-52850834D01*
X134772887Y-52848834D01*
X134771887Y-52845834D01*
X134770887Y-52843834D01*
X134769887Y-52840834D01*
X134769887Y-52838834D01*
X134768887Y-52835834D01*
X134768887Y-52833834D01*
X134767887Y-52830834D01*
X134767887Y-52828834D01*
X134767887Y-52825834D01*
X134767887Y-52175834D01*
X134767887Y-52172834D01*
X134767887Y-52170834D01*
X134768887Y-52167834D01*
X134768887Y-52165834D01*
X134769887Y-52162834D01*
X134769887Y-52160834D01*
X134770887Y-52157834D01*
X134771887Y-52155834D01*
X134772887Y-52152834D01*
X134774887Y-52150834D01*
X134775887Y-52148834D01*
X134777887Y-52146834D01*
X134778887Y-52144834D01*
X134780887Y-52142834D01*
X134782887Y-52140834D01*
X134784887Y-52138834D01*
X134786887Y-52136834D01*
X134788887Y-52135834D01*
X134790887Y-52133834D01*
X134792887Y-52132834D01*
X134794887Y-52130834D01*
X134797887Y-52129834D01*
X134799887Y-52128834D01*
X134802887Y-52127834D01*
X134804887Y-52127834D01*
X134807887Y-52126834D01*
X134809887Y-52126834D01*
X134812887Y-52125834D01*
X134814887Y-52125834D01*
X134817887Y-52125834D01*
X135917887Y-52125834D01*
X135920887Y-52125834D01*
X135922887Y-52125834D01*
X135925887Y-52126834D01*
G37*
%TD*%
D11*
%TO.C,C16*%
X182617887Y-46705834D03*
X182617887Y-45745834D03*
%TD*%
D12*
%TO.C,C24*%
X176392887Y-65350834D03*
X173442887Y-65350834D03*
%TD*%
D13*
%TO.C,R23*%
X129842887Y-55275834D03*
X128192887Y-55275834D03*
%TD*%
D14*
%TO.C,C22*%
X132842887Y-65125834D03*
X135792887Y-65125834D03*
%TD*%
D15*
%TO.C,D11*%
X171717887Y-142225834D03*
X175017887Y-142225834D03*
%TD*%
D16*
%TO.C,PS1*%
X132667887Y-52250834D03*
X132667887Y-52750834D03*
D17*
X132767887Y-53262834D03*
D18*
X133892887Y-51550834D03*
%TD*%
D14*
%TO.C,C20*%
X132842887Y-60125834D03*
X135792887Y-60125834D03*
%TD*%
D19*
%TO.C,R14*%
X119367887Y-91850834D03*
X119367887Y-90200834D03*
%TD*%
D14*
%TO.C,C21*%
X132842887Y-62625834D03*
X135792887Y-62625834D03*
%TD*%
D19*
%TO.C,R5*%
X125317887Y-122050834D03*
X125317887Y-120400834D03*
%TD*%
D13*
%TO.C,R8*%
X187442887Y-79725834D03*
X185792887Y-79725834D03*
%TD*%
D20*
%TO.C,R11*%
X119417887Y-85200834D03*
X119417887Y-86850834D03*
%TD*%
D21*
%TO.C,Q2*%
X151017887Y-57100834D03*
D22*
X150922887Y-56125834D03*
D23*
X151992887Y-57425834D03*
X151992887Y-56775834D03*
X151992887Y-56125834D03*
X150042887Y-56125834D03*
X150042887Y-56775834D03*
X150042887Y-57425834D03*
%TD*%
D24*
%TO.C,R1*%
X158542887Y-138225834D03*
X160192887Y-138225834D03*
%TD*%
D25*
%TO.C,U2*%
X155589187Y-52075833D03*
X155589187Y-52575834D03*
X155589187Y-53075834D03*
X155589187Y-53575835D03*
X157690987Y-53575835D03*
X157690987Y-53075834D03*
X157690987Y-52575834D03*
X157690987Y-52075833D03*
D26*
X156640087Y-52825834D03*
%TD*%
D27*
%TO.C,C5*%
X158097887Y-91725834D03*
X157137887Y-91725834D03*
%TD*%
D20*
%TO.C,R25*%
X184367887Y-45650834D03*
X184367887Y-47300834D03*
%TD*%
D28*
%TO.C,C10*%
X168617887Y-41700834D03*
X168617887Y-38750834D03*
%TD*%
D29*
%TO.C,J2*%
X131742887Y-149375834D03*
X132992887Y-149375834D03*
X134242887Y-149375834D03*
X135492887Y-149375834D03*
D30*
X129892887Y-152575834D03*
X137342887Y-152575834D03*
%TD*%
D31*
%TO.C,D10*%
X174802287Y-46725834D03*
X170433487Y-46725834D03*
%TD*%
D32*
%TO.C,C3*%
X158417887Y-72695834D03*
X158417887Y-73655834D03*
%TD*%
D33*
%TO.C,Q3*%
X185667887Y-77163334D03*
X187567887Y-77163334D03*
X186617887Y-75288334D03*
%TD*%
D13*
%TO.C,R19*%
X149942887Y-45225834D03*
X148292887Y-45225834D03*
%TD*%
D19*
%TO.C,R18*%
X135367887Y-49750834D03*
X135367887Y-48100834D03*
%TD*%
D11*
%TO.C,C15*%
X133067887Y-49985834D03*
X133067887Y-49025834D03*
%TD*%
%TO.C,C6*%
X159867887Y-96855834D03*
X159867887Y-95895834D03*
%TD*%
D20*
%TO.C,R13*%
X121017887Y-85200834D03*
X121017887Y-86850834D03*
%TD*%
D34*
%TO.C,C12*%
X171617887Y-41675834D03*
X171617887Y-39775834D03*
%TD*%
D29*
%TO.C,J3*%
X145189554Y-149375834D03*
X146439554Y-149375834D03*
X147689554Y-149375834D03*
X148939554Y-149375834D03*
D30*
X143339554Y-152575834D03*
X150789554Y-152575834D03*
%TD*%
D12*
%TO.C,C18*%
X176392887Y-68700834D03*
X173442887Y-68700834D03*
%TD*%
D32*
%TO.C,C13*%
X137017887Y-53145834D03*
X137017887Y-54105834D03*
%TD*%
D20*
%TO.C,R3*%
X151267887Y-73650834D03*
X151267887Y-75300834D03*
%TD*%
D35*
%TO.C,R28*%
X180267887Y-69413334D03*
X180267887Y-72338334D03*
%TD*%
D24*
%TO.C,R27*%
X168042887Y-137975834D03*
X169692887Y-137975834D03*
%TD*%
D13*
%TO.C,R10*%
X187442887Y-93225834D03*
X185792887Y-93225834D03*
%TD*%
%TO.C,R12*%
X142942887Y-45225834D03*
X141292887Y-45225834D03*
%TD*%
%TO.C,R9*%
X187442887Y-86725834D03*
X185792887Y-86725834D03*
%TD*%
D36*
%TO.C,Q6*%
X181680387Y-92275834D03*
X181680387Y-94175834D03*
X183555387Y-93225834D03*
%TD*%
D37*
%TO.C,D2*%
X189180387Y-79892501D03*
X191055387Y-79892501D03*
%TD*%
D38*
%TO.C,U8*%
X137355387Y-72675834D03*
X137355387Y-71725834D03*
X137355387Y-70775834D03*
X135080387Y-70775834D03*
X135080387Y-72675834D03*
%TD*%
D19*
%TO.C,R24*%
X186617887Y-47300834D03*
X186617887Y-45650834D03*
%TD*%
D13*
%TO.C,R17*%
X138942887Y-45225834D03*
X137292887Y-45225834D03*
%TD*%
%TO.C,R20*%
X131892887Y-49325834D03*
X130242887Y-49325834D03*
%TD*%
D39*
%TO.C,U5*%
X156255387Y-95800834D03*
X156255387Y-96150834D03*
X156255387Y-96500834D03*
X156255387Y-96850834D03*
D40*
X156667887Y-97088334D03*
X157017887Y-97088334D03*
X157367887Y-97088334D03*
D39*
X157780387Y-96850834D03*
X157780387Y-96500834D03*
X157780387Y-96150834D03*
X157780387Y-95800834D03*
D40*
X157367887Y-95563334D03*
X157017887Y-95563334D03*
X156667887Y-95563334D03*
%TD*%
D11*
%TO.C,C4*%
X154467887Y-56855834D03*
X154467887Y-55895834D03*
%TD*%
D36*
%TO.C,Q5*%
X181680387Y-85775834D03*
X181680387Y-87675834D03*
X183555387Y-86725834D03*
%TD*%
D11*
%TO.C,C14*%
X134067887Y-49985834D03*
X134067887Y-49025834D03*
%TD*%
D41*
%TO.C,U6*%
X156192887Y-83875834D03*
X156192887Y-84475834D03*
D42*
X156517887Y-85100834D03*
X157117887Y-85100834D03*
X157717887Y-85100834D03*
D41*
X158042887Y-84475834D03*
X158042887Y-83875834D03*
D42*
X157717887Y-83250834D03*
X157117887Y-83250834D03*
X156517887Y-83250834D03*
%TD*%
D43*
%TO.C,U4*%
X155980387Y-88275834D03*
X155980387Y-89225834D03*
X155980387Y-90175834D03*
X158255387Y-90175834D03*
X158255387Y-89225834D03*
X158255387Y-88275834D03*
%TD*%
D36*
%TO.C,Q4*%
X181680387Y-78775834D03*
X181680387Y-80675834D03*
X183555387Y-79725834D03*
%TD*%
D44*
%TO.C,C11*%
X138617887Y-53475834D03*
X138617887Y-55375834D03*
%TD*%
%TO.C,C9*%
X140617887Y-53475834D03*
X140617887Y-55375834D03*
%TD*%
D37*
%TO.C,D5*%
X189180387Y-86559167D03*
X191055387Y-86559167D03*
%TD*%
D19*
%TO.C,R16*%
X121167887Y-91850834D03*
X121167887Y-90200834D03*
%TD*%
D37*
%TO.C,D9*%
X189180387Y-93225834D03*
X191055387Y-93225834D03*
%TD*%
D11*
%TO.C,C1*%
X154117887Y-51955834D03*
X154117887Y-50995834D03*
%TD*%
D37*
%TO.C,D1*%
X189180387Y-73225834D03*
X191055387Y-73225834D03*
%TD*%
D45*
%TO.C,L1*%
X178117887Y-50874434D03*
X178117887Y-60577234D03*
%TD*%
D46*
%TO.C,SW2*%
X154617887Y-43425834D03*
X152117887Y-43425834D03*
X149617887Y-43425834D03*
X154617887Y-41025834D03*
X152117887Y-41025834D03*
X149617887Y-41025834D03*
%TD*%
D13*
%TO.C,R7*%
X187442887Y-73225834D03*
X185792887Y-73225834D03*
%TD*%
D35*
%TO.C,R26*%
X130067887Y-67013334D03*
X130067887Y-69938334D03*
%TD*%
D13*
%TO.C,R22*%
X130642887Y-52625834D03*
X128992887Y-52625834D03*
%TD*%
%TO.C,R21*%
X130642887Y-51025834D03*
X128992887Y-51025834D03*
%TD*%
D47*
%TO.C,C23*%
X135087887Y-74263334D03*
X136047887Y-74263334D03*
%TD*%
D14*
%TO.C,C19*%
X132842887Y-57625834D03*
X135792887Y-57625834D03*
%TD*%
D48*
%TO.C,Q7*%
X169817887Y-140288334D03*
X167917887Y-140288334D03*
X168867887Y-142163334D03*
%TD*%
D43*
%TO.C,U3*%
X154430387Y-72713334D03*
X154430387Y-73663334D03*
X154430387Y-74613334D03*
X156705387Y-74613334D03*
X156705387Y-72713334D03*
%TD*%
D19*
%TO.C,R4*%
X155917887Y-57000834D03*
X155917887Y-55350834D03*
%TD*%
D32*
%TO.C,C7*%
X159267887Y-84495834D03*
X159267887Y-85455834D03*
%TD*%
D46*
%TO.C,SW1*%
X143617887Y-43425834D03*
X141117887Y-43425834D03*
X138617887Y-43425834D03*
X143617887Y-41025834D03*
X141117887Y-41025834D03*
X138617887Y-41025834D03*
%TD*%
D27*
%TO.C,C17*%
X129997887Y-53975834D03*
X129037887Y-53975834D03*
%TD*%
D44*
%TO.C,C8*%
X142617887Y-53475834D03*
X142617887Y-55375834D03*
%TD*%
D32*
%TO.C,C2*%
X152667887Y-73645834D03*
X152667887Y-74605834D03*
%TD*%
D19*
%TO.C,R6*%
X127317887Y-122050834D03*
X127317887Y-120400834D03*
%TD*%
D20*
%TO.C,R2*%
X151267887Y-70650834D03*
X151267887Y-72300834D03*
%TD*%
D13*
%TO.C,R15*%
X153942887Y-45225834D03*
X152292887Y-45225834D03*
%TD*%
D48*
%TO.C,Q1*%
X160317887Y-140288334D03*
X158417887Y-140288334D03*
X159367887Y-142163334D03*
%TD*%
D49*
%TO.C,U7*%
X181997887Y-44180834D03*
X181997887Y-42910834D03*
X181997887Y-41640834D03*
X181997887Y-40370834D03*
X176437887Y-40370834D03*
X176437887Y-41640834D03*
X176437887Y-42910834D03*
X176437887Y-44180834D03*
D50*
X179820387Y-43050834D03*
X179820387Y-41500834D03*
X178615387Y-43050834D03*
X178615387Y-41500834D03*
%TD*%
M02*
