%TF.GenerationSoftware,KiCad,Pcbnew,9.0.5*%
%TF.CreationDate,2025-11-24T08:34:37-05:00*%
%TF.ProjectId,devboard,64657662-6f61-4726-942e-6b696361645f,rev?*%
%TF.SameCoordinates,Original*%
%TF.FileFunction,Profile,NP*%
%FSLAX46Y46*%
G04 Gerber Fmt 4.6, Leading zero omitted, Abs format (unit mm)*
G04 Created by KiCad (PCBNEW 9.0.5) date 2025-11-24 08:34:37*
%MOMM*%
%LPD*%
G01*
G04 APERTURE LIST*
%TA.AperFunction,Profile*%
%ADD10C,0.200000*%
%TD*%
G04 APERTURE END LIST*
D10*
X125218087Y-39225834D02*
G75*
G02*
X122017687Y-39225834I-1600200J0D01*
G01*
X122017687Y-39225834D02*
G75*
G02*
X125218087Y-39225834I1600200J0D01*
G01*
X108300000Y-112500000D02*
X108300000Y-53499950D01*
X123617900Y-155225834D02*
G75*
G02*
X119617886Y-151213151I0J4000034D01*
G01*
X119617887Y-47494001D02*
X119617887Y-39225900D01*
X127392804Y-155225834D02*
X123617900Y-155225834D01*
X192218087Y-151225834D02*
G75*
G02*
X189017687Y-151225834I-1600200J0D01*
G01*
X189017687Y-151225834D02*
G75*
G02*
X192218087Y-151225834I1600200J0D01*
G01*
X194617887Y-151225800D02*
G75*
G02*
X190617887Y-155225887I-4000087J0D01*
G01*
X194617887Y-39225834D02*
X194617887Y-151225800D01*
X192218087Y-39225834D02*
G75*
G02*
X189017687Y-39225834I-1600200J0D01*
G01*
X189017687Y-39225834D02*
G75*
G02*
X192218087Y-39225834I1600200J0D01*
G01*
X190617887Y-155225834D02*
X186842970Y-155225834D01*
X186842970Y-155225834D02*
X127392804Y-155225834D01*
X123637290Y-35225834D02*
X190617900Y-35225834D01*
X119617887Y-151213151D02*
X119617887Y-118491515D01*
X119617887Y-39225900D02*
G75*
G02*
X123637290Y-35225834I4000113J0D01*
G01*
X116617900Y-115500001D02*
X111300000Y-115500001D01*
X111299950Y-50500001D02*
X116617857Y-50500001D01*
X190617900Y-35225834D02*
G75*
G02*
X194617866Y-39225834I0J-3999966D01*
G01*
X111300000Y-115500001D02*
G75*
G02*
X108299999Y-112500000I0J3000001D01*
G01*
X116617900Y-115500001D02*
G75*
G02*
X119617887Y-118491515I0J-2999999D01*
G01*
X119617887Y-47494001D02*
G75*
G02*
X116617857Y-50499993I-2999987J-5999D01*
G01*
X108300000Y-53499950D02*
G75*
G02*
X111299950Y-50500000I2999950J0D01*
G01*
X125218087Y-151225834D02*
G75*
G02*
X122017687Y-151225834I-1600200J0D01*
G01*
X122017687Y-151225834D02*
G75*
G02*
X125218087Y-151225834I1600200J0D01*
G01*
M02*
