%TF.GenerationSoftware,KiCad,Pcbnew,9.0.5*%
%TF.CreationDate,2025-11-24T08:34:37-05:00*%
%TF.ProjectId,devboard,64657662-6f61-4726-942e-6b696361645f,rev?*%
%TF.SameCoordinates,Original*%
%TF.FileFunction,Soldermask,Bot*%
%TF.FilePolarity,Negative*%
%FSLAX46Y46*%
G04 Gerber Fmt 4.6, Leading zero omitted, Abs format (unit mm)*
G04 Created by KiCad (PCBNEW 9.0.5) date 2025-11-24 08:34:37*
%MOMM*%
%LPD*%
G01*
G04 APERTURE LIST*
G04 Aperture macros list*
%AMRoundRect*
0 Rectangle with rounded corners*
0 $1 Rounding radius*
0 $2 $3 $4 $5 $6 $7 $8 $9 X,Y pos of 4 corners*
0 Add a 4 corners polygon primitive as box body*
4,1,4,$2,$3,$4,$5,$6,$7,$8,$9,$2,$3,0*
0 Add four circle primitives for the rounded corners*
1,1,$1+$1,$2,$3*
1,1,$1+$1,$4,$5*
1,1,$1+$1,$6,$7*
1,1,$1+$1,$8,$9*
0 Add four rect primitives between the rounded corners*
20,1,$1+$1,$2,$3,$4,$5,0*
20,1,$1+$1,$4,$5,$6,$7,0*
20,1,$1+$1,$6,$7,$8,$9,0*
20,1,$1+$1,$8,$9,$2,$3,0*%
G04 Aperture macros list end*
%ADD10C,3.200000*%
%ADD11RoundRect,0.250000X-0.350000X-0.625000X0.350000X-0.625000X0.350000X0.625000X-0.350000X0.625000X0*%
%ADD12O,1.200000X1.750000*%
%ADD13C,3.175000*%
%ADD14R,1.700000X1.700000*%
%ADD15C,1.700000*%
G04 APERTURE END LIST*
D10*
%TO.C,H1*%
X123617900Y-39225800D03*
%TD*%
D11*
%TO.C,J5*%
X169117887Y-147775834D03*
D12*
X171117887Y-147775834D03*
%TD*%
D10*
%TO.C,H3*%
X190617800Y-151225800D03*
%TD*%
%TO.C,H5*%
X185618000Y-106225900D03*
%TD*%
%TO.C,H4*%
X123617887Y-151225834D03*
%TD*%
D11*
%TO.C,J1*%
X158231220Y-147775834D03*
D12*
X160231220Y-147775834D03*
%TD*%
D10*
%TO.C,H2*%
X190617900Y-39225800D03*
%TD*%
D13*
%TO.C,BT2*%
X170040000Y-113000000D03*
X164960000Y-113000000D03*
X167500000Y-120620000D03*
X167500000Y-59380000D03*
X170040000Y-67000000D03*
X164960000Y-67000000D03*
%TD*%
D14*
%TO.C,J4*%
X113018000Y-58825900D03*
D15*
X115558000Y-58825900D03*
X113018000Y-61365900D03*
X115558000Y-61365900D03*
X113018000Y-63905900D03*
X115558000Y-63905900D03*
X113018000Y-66445900D03*
X115558000Y-66445900D03*
X113018000Y-68985900D03*
X115558000Y-68985900D03*
X113018000Y-71525900D03*
X115558000Y-71525900D03*
X113018000Y-74065900D03*
X115558000Y-74065900D03*
X113018000Y-76605900D03*
X115558000Y-76605900D03*
X113018000Y-79145900D03*
X115558000Y-79145900D03*
X113018000Y-81685900D03*
X115558000Y-81685900D03*
X113018000Y-84225900D03*
X115558000Y-84225900D03*
X113018000Y-86765900D03*
X115558000Y-86765900D03*
X113018000Y-89305900D03*
X115558000Y-89305900D03*
X113018000Y-91845900D03*
X115558000Y-91845900D03*
X113018000Y-94385900D03*
X115558000Y-94385900D03*
X113018000Y-96925900D03*
X115558000Y-96925900D03*
X113018000Y-99465900D03*
X115558000Y-99465900D03*
X113018000Y-102005900D03*
X115558000Y-102005900D03*
X113018000Y-104545900D03*
X115558000Y-104545900D03*
X113018000Y-107085900D03*
X115558000Y-107085900D03*
%TD*%
D13*
%TO.C,BT1*%
X143960000Y-67000000D03*
X149040000Y-67000000D03*
X146500000Y-59380000D03*
X146500000Y-120620000D03*
X143960000Y-113000000D03*
X149040000Y-113000000D03*
%TD*%
M02*
