%TF.GenerationSoftware,KiCad,Pcbnew,9.0.5*%
%TF.CreationDate,2025-11-24T08:34:28-05:00*%
%TF.ProjectId,devboard,64657662-6f61-4726-942e-6b696361645f,rev?*%
%TF.SameCoordinates,Original*%
%TF.FileFunction,Drillmap*%
%TF.FilePolarity,Positive*%
%FSLAX45Y45*%
G04 Gerber Fmt 4.5, Leading zero omitted, Abs format (unit mm)*
G04 Created by KiCad (PCBNEW 9.0.5) date 2025-11-24 08:34:28*
%MOMM*%
%LPD*%
G01*
G04 APERTURE LIST*
%ADD10C,0.200000*%
%ADD11C,0.320000*%
G04 APERTURE END LIST*
D10*
X12521809Y-3922583D02*
G75*
G02*
X12201769Y-3922583I-160020J0D01*
G01*
X12201769Y-3922583D02*
G75*
G02*
X12521809Y-3922583I160020J0D01*
G01*
X10830000Y-11250000D02*
X10830000Y-5349995D01*
X12361790Y-15522583D02*
G75*
G02*
X11961789Y-15121315I0J400003D01*
G01*
X11961789Y-4749400D02*
X11961789Y-3922590D01*
X12739280Y-15522583D02*
X12361790Y-15522583D01*
X19221809Y-15122583D02*
G75*
G02*
X18901769Y-15122583I-160020J0D01*
G01*
X18901769Y-15122583D02*
G75*
G02*
X19221809Y-15122583I160020J0D01*
G01*
X19461789Y-15122580D02*
G75*
G02*
X19061789Y-15522589I-400009J0D01*
G01*
X19461789Y-3922583D02*
X19461789Y-15122580D01*
X19221809Y-3922583D02*
G75*
G02*
X18901769Y-3922583I-160020J0D01*
G01*
X18901769Y-3922583D02*
G75*
G02*
X19221809Y-3922583I160020J0D01*
G01*
X19061789Y-15522583D02*
X18684297Y-15522583D01*
X18684297Y-15522583D02*
X12739280Y-15522583D01*
X12363729Y-3522583D02*
X19061790Y-3522583D01*
X11961789Y-15121315D02*
X11961789Y-11849151D01*
X11961789Y-3922590D02*
G75*
G02*
X12363729Y-3522583I400011J0D01*
G01*
X11661790Y-11550000D02*
X11130000Y-11550000D01*
X11129995Y-5050000D02*
X11661786Y-5050000D01*
X19061790Y-3522583D02*
G75*
G02*
X19461787Y-3922583I0J-399997D01*
G01*
X11130000Y-11550000D02*
G75*
G02*
X10830000Y-11250000I0J300000D01*
G01*
X11661790Y-11550000D02*
G75*
G02*
X11961789Y-11849151I0J-300000D01*
G01*
X11961789Y-4749400D02*
G75*
G02*
X11661786Y-5049999I-299999J-600D01*
G01*
X10830000Y-5349995D02*
G75*
G02*
X11129995Y-5050000I299995J0D01*
G01*
X12521809Y-15122583D02*
G75*
G02*
X12201769Y-15122583I-160020J0D01*
G01*
X12201769Y-15122583D02*
G75*
G02*
X12521809Y-15122583I160020J0D01*
G01*
D11*
X12201789Y-14962583D02*
X12521789Y-15282583D01*
X12521789Y-14962583D02*
X12201789Y-15282583D01*
X12201790Y-3762580D02*
X12521790Y-4082580D01*
X12521790Y-3762580D02*
X12201790Y-4082580D01*
X18401800Y-10462590D02*
X18721800Y-10782590D01*
X18721800Y-10462590D02*
X18401800Y-10782590D01*
X18901780Y-14962580D02*
X19221780Y-15282580D01*
X19221780Y-14962580D02*
X18901780Y-15282580D01*
X18901790Y-3762580D02*
X19221790Y-4082580D01*
X19221790Y-3762580D02*
X18901790Y-4082580D01*
D10*
X11080777Y-15844067D02*
X11080777Y-15644067D01*
X11080777Y-15644067D02*
X11128396Y-15644067D01*
X11128396Y-15644067D02*
X11156967Y-15653591D01*
X11156967Y-15653591D02*
X11176015Y-15672639D01*
X11176015Y-15672639D02*
X11185539Y-15691686D01*
X11185539Y-15691686D02*
X11195062Y-15729781D01*
X11195062Y-15729781D02*
X11195062Y-15758353D01*
X11195062Y-15758353D02*
X11185539Y-15796448D01*
X11185539Y-15796448D02*
X11176015Y-15815496D01*
X11176015Y-15815496D02*
X11156967Y-15834543D01*
X11156967Y-15834543D02*
X11128396Y-15844067D01*
X11128396Y-15844067D02*
X11080777Y-15844067D01*
X11280777Y-15844067D02*
X11280777Y-15710734D01*
X11280777Y-15748829D02*
X11290300Y-15729781D01*
X11290300Y-15729781D02*
X11299824Y-15720258D01*
X11299824Y-15720258D02*
X11318872Y-15710734D01*
X11318872Y-15710734D02*
X11337920Y-15710734D01*
X11404586Y-15844067D02*
X11404586Y-15710734D01*
X11404586Y-15644067D02*
X11395062Y-15653591D01*
X11395062Y-15653591D02*
X11404586Y-15663115D01*
X11404586Y-15663115D02*
X11414110Y-15653591D01*
X11414110Y-15653591D02*
X11404586Y-15644067D01*
X11404586Y-15644067D02*
X11404586Y-15663115D01*
X11528396Y-15844067D02*
X11509348Y-15834543D01*
X11509348Y-15834543D02*
X11499824Y-15815496D01*
X11499824Y-15815496D02*
X11499824Y-15644067D01*
X11633158Y-15844067D02*
X11614110Y-15834543D01*
X11614110Y-15834543D02*
X11604586Y-15815496D01*
X11604586Y-15815496D02*
X11604586Y-15644067D01*
X11861729Y-15844067D02*
X11861729Y-15644067D01*
X11861729Y-15644067D02*
X11928396Y-15786924D01*
X11928396Y-15786924D02*
X11995062Y-15644067D01*
X11995062Y-15644067D02*
X11995062Y-15844067D01*
X12176015Y-15844067D02*
X12176015Y-15739305D01*
X12176015Y-15739305D02*
X12166491Y-15720258D01*
X12166491Y-15720258D02*
X12147443Y-15710734D01*
X12147443Y-15710734D02*
X12109348Y-15710734D01*
X12109348Y-15710734D02*
X12090300Y-15720258D01*
X12176015Y-15834543D02*
X12156967Y-15844067D01*
X12156967Y-15844067D02*
X12109348Y-15844067D01*
X12109348Y-15844067D02*
X12090300Y-15834543D01*
X12090300Y-15834543D02*
X12080777Y-15815496D01*
X12080777Y-15815496D02*
X12080777Y-15796448D01*
X12080777Y-15796448D02*
X12090300Y-15777400D01*
X12090300Y-15777400D02*
X12109348Y-15767877D01*
X12109348Y-15767877D02*
X12156967Y-15767877D01*
X12156967Y-15767877D02*
X12176015Y-15758353D01*
X12271253Y-15710734D02*
X12271253Y-15910734D01*
X12271253Y-15720258D02*
X12290300Y-15710734D01*
X12290300Y-15710734D02*
X12328396Y-15710734D01*
X12328396Y-15710734D02*
X12347443Y-15720258D01*
X12347443Y-15720258D02*
X12356967Y-15729781D01*
X12356967Y-15729781D02*
X12366491Y-15748829D01*
X12366491Y-15748829D02*
X12366491Y-15805972D01*
X12366491Y-15805972D02*
X12356967Y-15825019D01*
X12356967Y-15825019D02*
X12347443Y-15834543D01*
X12347443Y-15834543D02*
X12328396Y-15844067D01*
X12328396Y-15844067D02*
X12290300Y-15844067D01*
X12290300Y-15844067D02*
X12271253Y-15834543D01*
X12452205Y-15825019D02*
X12461729Y-15834543D01*
X12461729Y-15834543D02*
X12452205Y-15844067D01*
X12452205Y-15844067D02*
X12442681Y-15834543D01*
X12442681Y-15834543D02*
X12452205Y-15825019D01*
X12452205Y-15825019D02*
X12452205Y-15844067D01*
X12452205Y-15720258D02*
X12461729Y-15729781D01*
X12461729Y-15729781D02*
X12452205Y-15739305D01*
X12452205Y-15739305D02*
X12442681Y-15729781D01*
X12442681Y-15729781D02*
X12452205Y-15720258D01*
X12452205Y-15720258D02*
X12452205Y-15739305D01*
X10620000Y-16072583D02*
X10820000Y-16272583D01*
X10820000Y-16072583D02*
X10620000Y-16272583D01*
X11061729Y-16064067D02*
X11185539Y-16064067D01*
X11185539Y-16064067D02*
X11118872Y-16140258D01*
X11118872Y-16140258D02*
X11147443Y-16140258D01*
X11147443Y-16140258D02*
X11166491Y-16149781D01*
X11166491Y-16149781D02*
X11176015Y-16159305D01*
X11176015Y-16159305D02*
X11185539Y-16178353D01*
X11185539Y-16178353D02*
X11185539Y-16225972D01*
X11185539Y-16225972D02*
X11176015Y-16245019D01*
X11176015Y-16245019D02*
X11166491Y-16254543D01*
X11166491Y-16254543D02*
X11147443Y-16264067D01*
X11147443Y-16264067D02*
X11090301Y-16264067D01*
X11090301Y-16264067D02*
X11071253Y-16254543D01*
X11071253Y-16254543D02*
X11061729Y-16245019D01*
X11271253Y-16245019D02*
X11280777Y-16254543D01*
X11280777Y-16254543D02*
X11271253Y-16264067D01*
X11271253Y-16264067D02*
X11261729Y-16254543D01*
X11261729Y-16254543D02*
X11271253Y-16245019D01*
X11271253Y-16245019D02*
X11271253Y-16264067D01*
X11356967Y-16083115D02*
X11366491Y-16073591D01*
X11366491Y-16073591D02*
X11385539Y-16064067D01*
X11385539Y-16064067D02*
X11433158Y-16064067D01*
X11433158Y-16064067D02*
X11452205Y-16073591D01*
X11452205Y-16073591D02*
X11461729Y-16083115D01*
X11461729Y-16083115D02*
X11471253Y-16102162D01*
X11471253Y-16102162D02*
X11471253Y-16121210D01*
X11471253Y-16121210D02*
X11461729Y-16149781D01*
X11461729Y-16149781D02*
X11347443Y-16264067D01*
X11347443Y-16264067D02*
X11471253Y-16264067D01*
X11595062Y-16064067D02*
X11614110Y-16064067D01*
X11614110Y-16064067D02*
X11633158Y-16073591D01*
X11633158Y-16073591D02*
X11642681Y-16083115D01*
X11642681Y-16083115D02*
X11652205Y-16102162D01*
X11652205Y-16102162D02*
X11661729Y-16140258D01*
X11661729Y-16140258D02*
X11661729Y-16187877D01*
X11661729Y-16187877D02*
X11652205Y-16225972D01*
X11652205Y-16225972D02*
X11642681Y-16245019D01*
X11642681Y-16245019D02*
X11633158Y-16254543D01*
X11633158Y-16254543D02*
X11614110Y-16264067D01*
X11614110Y-16264067D02*
X11595062Y-16264067D01*
X11595062Y-16264067D02*
X11576015Y-16254543D01*
X11576015Y-16254543D02*
X11566491Y-16245019D01*
X11566491Y-16245019D02*
X11556967Y-16225972D01*
X11556967Y-16225972D02*
X11547443Y-16187877D01*
X11547443Y-16187877D02*
X11547443Y-16140258D01*
X11547443Y-16140258D02*
X11556967Y-16102162D01*
X11556967Y-16102162D02*
X11566491Y-16083115D01*
X11566491Y-16083115D02*
X11576015Y-16073591D01*
X11576015Y-16073591D02*
X11595062Y-16064067D01*
X11785539Y-16064067D02*
X11804586Y-16064067D01*
X11804586Y-16064067D02*
X11823634Y-16073591D01*
X11823634Y-16073591D02*
X11833158Y-16083115D01*
X11833158Y-16083115D02*
X11842681Y-16102162D01*
X11842681Y-16102162D02*
X11852205Y-16140258D01*
X11852205Y-16140258D02*
X11852205Y-16187877D01*
X11852205Y-16187877D02*
X11842681Y-16225972D01*
X11842681Y-16225972D02*
X11833158Y-16245019D01*
X11833158Y-16245019D02*
X11823634Y-16254543D01*
X11823634Y-16254543D02*
X11804586Y-16264067D01*
X11804586Y-16264067D02*
X11785539Y-16264067D01*
X11785539Y-16264067D02*
X11766491Y-16254543D01*
X11766491Y-16254543D02*
X11756967Y-16245019D01*
X11756967Y-16245019D02*
X11747443Y-16225972D01*
X11747443Y-16225972D02*
X11737920Y-16187877D01*
X11737920Y-16187877D02*
X11737920Y-16140258D01*
X11737920Y-16140258D02*
X11747443Y-16102162D01*
X11747443Y-16102162D02*
X11756967Y-16083115D01*
X11756967Y-16083115D02*
X11766491Y-16073591D01*
X11766491Y-16073591D02*
X11785539Y-16064067D01*
X11937920Y-16264067D02*
X11937920Y-16130734D01*
X11937920Y-16149781D02*
X11947443Y-16140258D01*
X11947443Y-16140258D02*
X11966491Y-16130734D01*
X11966491Y-16130734D02*
X11995062Y-16130734D01*
X11995062Y-16130734D02*
X12014110Y-16140258D01*
X12014110Y-16140258D02*
X12023634Y-16159305D01*
X12023634Y-16159305D02*
X12023634Y-16264067D01*
X12023634Y-16159305D02*
X12033158Y-16140258D01*
X12033158Y-16140258D02*
X12052205Y-16130734D01*
X12052205Y-16130734D02*
X12080777Y-16130734D01*
X12080777Y-16130734D02*
X12099824Y-16140258D01*
X12099824Y-16140258D02*
X12109348Y-16159305D01*
X12109348Y-16159305D02*
X12109348Y-16264067D01*
X12204586Y-16264067D02*
X12204586Y-16130734D01*
X12204586Y-16149781D02*
X12214110Y-16140258D01*
X12214110Y-16140258D02*
X12233158Y-16130734D01*
X12233158Y-16130734D02*
X12261729Y-16130734D01*
X12261729Y-16130734D02*
X12280777Y-16140258D01*
X12280777Y-16140258D02*
X12290301Y-16159305D01*
X12290301Y-16159305D02*
X12290301Y-16264067D01*
X12290301Y-16159305D02*
X12299824Y-16140258D01*
X12299824Y-16140258D02*
X12318872Y-16130734D01*
X12318872Y-16130734D02*
X12347443Y-16130734D01*
X12347443Y-16130734D02*
X12366491Y-16140258D01*
X12366491Y-16140258D02*
X12376015Y-16159305D01*
X12376015Y-16159305D02*
X12376015Y-16264067D01*
X12766491Y-16054543D02*
X12595063Y-16311686D01*
X13023634Y-16064067D02*
X13042682Y-16064067D01*
X13042682Y-16064067D02*
X13061729Y-16073591D01*
X13061729Y-16073591D02*
X13071253Y-16083115D01*
X13071253Y-16083115D02*
X13080777Y-16102162D01*
X13080777Y-16102162D02*
X13090301Y-16140258D01*
X13090301Y-16140258D02*
X13090301Y-16187877D01*
X13090301Y-16187877D02*
X13080777Y-16225972D01*
X13080777Y-16225972D02*
X13071253Y-16245019D01*
X13071253Y-16245019D02*
X13061729Y-16254543D01*
X13061729Y-16254543D02*
X13042682Y-16264067D01*
X13042682Y-16264067D02*
X13023634Y-16264067D01*
X13023634Y-16264067D02*
X13004586Y-16254543D01*
X13004586Y-16254543D02*
X12995063Y-16245019D01*
X12995063Y-16245019D02*
X12985539Y-16225972D01*
X12985539Y-16225972D02*
X12976015Y-16187877D01*
X12976015Y-16187877D02*
X12976015Y-16140258D01*
X12976015Y-16140258D02*
X12985539Y-16102162D01*
X12985539Y-16102162D02*
X12995063Y-16083115D01*
X12995063Y-16083115D02*
X13004586Y-16073591D01*
X13004586Y-16073591D02*
X13023634Y-16064067D01*
X13176015Y-16245019D02*
X13185539Y-16254543D01*
X13185539Y-16254543D02*
X13176015Y-16264067D01*
X13176015Y-16264067D02*
X13166491Y-16254543D01*
X13166491Y-16254543D02*
X13176015Y-16245019D01*
X13176015Y-16245019D02*
X13176015Y-16264067D01*
X13376015Y-16264067D02*
X13261729Y-16264067D01*
X13318872Y-16264067D02*
X13318872Y-16064067D01*
X13318872Y-16064067D02*
X13299824Y-16092639D01*
X13299824Y-16092639D02*
X13280777Y-16111686D01*
X13280777Y-16111686D02*
X13261729Y-16121210D01*
X13452205Y-16083115D02*
X13461729Y-16073591D01*
X13461729Y-16073591D02*
X13480777Y-16064067D01*
X13480777Y-16064067D02*
X13528396Y-16064067D01*
X13528396Y-16064067D02*
X13547444Y-16073591D01*
X13547444Y-16073591D02*
X13556967Y-16083115D01*
X13556967Y-16083115D02*
X13566491Y-16102162D01*
X13566491Y-16102162D02*
X13566491Y-16121210D01*
X13566491Y-16121210D02*
X13556967Y-16149781D01*
X13556967Y-16149781D02*
X13442682Y-16264067D01*
X13442682Y-16264067D02*
X13566491Y-16264067D01*
X13737920Y-16064067D02*
X13699824Y-16064067D01*
X13699824Y-16064067D02*
X13680777Y-16073591D01*
X13680777Y-16073591D02*
X13671253Y-16083115D01*
X13671253Y-16083115D02*
X13652205Y-16111686D01*
X13652205Y-16111686D02*
X13642682Y-16149781D01*
X13642682Y-16149781D02*
X13642682Y-16225972D01*
X13642682Y-16225972D02*
X13652205Y-16245019D01*
X13652205Y-16245019D02*
X13661729Y-16254543D01*
X13661729Y-16254543D02*
X13680777Y-16264067D01*
X13680777Y-16264067D02*
X13718872Y-16264067D01*
X13718872Y-16264067D02*
X13737920Y-16254543D01*
X13737920Y-16254543D02*
X13747444Y-16245019D01*
X13747444Y-16245019D02*
X13756967Y-16225972D01*
X13756967Y-16225972D02*
X13756967Y-16178353D01*
X13756967Y-16178353D02*
X13747444Y-16159305D01*
X13747444Y-16159305D02*
X13737920Y-16149781D01*
X13737920Y-16149781D02*
X13718872Y-16140258D01*
X13718872Y-16140258D02*
X13680777Y-16140258D01*
X13680777Y-16140258D02*
X13661729Y-16149781D01*
X13661729Y-16149781D02*
X13652205Y-16159305D01*
X13652205Y-16159305D02*
X13642682Y-16178353D01*
X13880777Y-16064067D02*
X13899825Y-16064067D01*
X13899825Y-16064067D02*
X13918872Y-16073591D01*
X13918872Y-16073591D02*
X13928396Y-16083115D01*
X13928396Y-16083115D02*
X13937920Y-16102162D01*
X13937920Y-16102162D02*
X13947444Y-16140258D01*
X13947444Y-16140258D02*
X13947444Y-16187877D01*
X13947444Y-16187877D02*
X13937920Y-16225972D01*
X13937920Y-16225972D02*
X13928396Y-16245019D01*
X13928396Y-16245019D02*
X13918872Y-16254543D01*
X13918872Y-16254543D02*
X13899825Y-16264067D01*
X13899825Y-16264067D02*
X13880777Y-16264067D01*
X13880777Y-16264067D02*
X13861729Y-16254543D01*
X13861729Y-16254543D02*
X13852205Y-16245019D01*
X13852205Y-16245019D02*
X13842682Y-16225972D01*
X13842682Y-16225972D02*
X13833158Y-16187877D01*
X13833158Y-16187877D02*
X13833158Y-16140258D01*
X13833158Y-16140258D02*
X13842682Y-16102162D01*
X13842682Y-16102162D02*
X13852205Y-16083115D01*
X13852205Y-16083115D02*
X13861729Y-16073591D01*
X13861729Y-16073591D02*
X13880777Y-16064067D01*
X14023634Y-16064067D02*
X14023634Y-16102162D01*
X14099825Y-16064067D02*
X14099825Y-16102162D01*
X14395063Y-16340258D02*
X14385539Y-16330734D01*
X14385539Y-16330734D02*
X14366491Y-16302162D01*
X14366491Y-16302162D02*
X14356967Y-16283115D01*
X14356967Y-16283115D02*
X14347444Y-16254543D01*
X14347444Y-16254543D02*
X14337920Y-16206924D01*
X14337920Y-16206924D02*
X14337920Y-16168829D01*
X14337920Y-16168829D02*
X14347444Y-16121210D01*
X14347444Y-16121210D02*
X14356967Y-16092639D01*
X14356967Y-16092639D02*
X14366491Y-16073591D01*
X14366491Y-16073591D02*
X14385539Y-16045019D01*
X14385539Y-16045019D02*
X14395063Y-16035496D01*
X14566491Y-16064067D02*
X14471253Y-16064067D01*
X14471253Y-16064067D02*
X14461729Y-16159305D01*
X14461729Y-16159305D02*
X14471253Y-16149781D01*
X14471253Y-16149781D02*
X14490301Y-16140258D01*
X14490301Y-16140258D02*
X14537920Y-16140258D01*
X14537920Y-16140258D02*
X14556967Y-16149781D01*
X14556967Y-16149781D02*
X14566491Y-16159305D01*
X14566491Y-16159305D02*
X14576015Y-16178353D01*
X14576015Y-16178353D02*
X14576015Y-16225972D01*
X14576015Y-16225972D02*
X14566491Y-16245019D01*
X14566491Y-16245019D02*
X14556967Y-16254543D01*
X14556967Y-16254543D02*
X14537920Y-16264067D01*
X14537920Y-16264067D02*
X14490301Y-16264067D01*
X14490301Y-16264067D02*
X14471253Y-16254543D01*
X14471253Y-16254543D02*
X14461729Y-16245019D01*
X14814110Y-16264067D02*
X14814110Y-16064067D01*
X14899825Y-16264067D02*
X14899825Y-16159305D01*
X14899825Y-16159305D02*
X14890301Y-16140258D01*
X14890301Y-16140258D02*
X14871253Y-16130734D01*
X14871253Y-16130734D02*
X14842682Y-16130734D01*
X14842682Y-16130734D02*
X14823634Y-16140258D01*
X14823634Y-16140258D02*
X14814110Y-16149781D01*
X15023634Y-16264067D02*
X15004587Y-16254543D01*
X15004587Y-16254543D02*
X14995063Y-16245019D01*
X14995063Y-16245019D02*
X14985539Y-16225972D01*
X14985539Y-16225972D02*
X14985539Y-16168829D01*
X14985539Y-16168829D02*
X14995063Y-16149781D01*
X14995063Y-16149781D02*
X15004587Y-16140258D01*
X15004587Y-16140258D02*
X15023634Y-16130734D01*
X15023634Y-16130734D02*
X15052206Y-16130734D01*
X15052206Y-16130734D02*
X15071253Y-16140258D01*
X15071253Y-16140258D02*
X15080777Y-16149781D01*
X15080777Y-16149781D02*
X15090301Y-16168829D01*
X15090301Y-16168829D02*
X15090301Y-16225972D01*
X15090301Y-16225972D02*
X15080777Y-16245019D01*
X15080777Y-16245019D02*
X15071253Y-16254543D01*
X15071253Y-16254543D02*
X15052206Y-16264067D01*
X15052206Y-16264067D02*
X15023634Y-16264067D01*
X15204587Y-16264067D02*
X15185539Y-16254543D01*
X15185539Y-16254543D02*
X15176015Y-16235496D01*
X15176015Y-16235496D02*
X15176015Y-16064067D01*
X15356968Y-16254543D02*
X15337920Y-16264067D01*
X15337920Y-16264067D02*
X15299825Y-16264067D01*
X15299825Y-16264067D02*
X15280777Y-16254543D01*
X15280777Y-16254543D02*
X15271253Y-16235496D01*
X15271253Y-16235496D02*
X15271253Y-16159305D01*
X15271253Y-16159305D02*
X15280777Y-16140258D01*
X15280777Y-16140258D02*
X15299825Y-16130734D01*
X15299825Y-16130734D02*
X15337920Y-16130734D01*
X15337920Y-16130734D02*
X15356968Y-16140258D01*
X15356968Y-16140258D02*
X15366491Y-16159305D01*
X15366491Y-16159305D02*
X15366491Y-16178353D01*
X15366491Y-16178353D02*
X15271253Y-16197400D01*
X15442682Y-16254543D02*
X15461729Y-16264067D01*
X15461729Y-16264067D02*
X15499825Y-16264067D01*
X15499825Y-16264067D02*
X15518872Y-16254543D01*
X15518872Y-16254543D02*
X15528396Y-16235496D01*
X15528396Y-16235496D02*
X15528396Y-16225972D01*
X15528396Y-16225972D02*
X15518872Y-16206924D01*
X15518872Y-16206924D02*
X15499825Y-16197400D01*
X15499825Y-16197400D02*
X15471253Y-16197400D01*
X15471253Y-16197400D02*
X15452206Y-16187877D01*
X15452206Y-16187877D02*
X15442682Y-16168829D01*
X15442682Y-16168829D02*
X15442682Y-16159305D01*
X15442682Y-16159305D02*
X15452206Y-16140258D01*
X15452206Y-16140258D02*
X15471253Y-16130734D01*
X15471253Y-16130734D02*
X15499825Y-16130734D01*
X15499825Y-16130734D02*
X15518872Y-16140258D01*
X15595063Y-16340258D02*
X15604587Y-16330734D01*
X15604587Y-16330734D02*
X15623634Y-16302162D01*
X15623634Y-16302162D02*
X15633158Y-16283115D01*
X15633158Y-16283115D02*
X15642682Y-16254543D01*
X15642682Y-16254543D02*
X15652206Y-16206924D01*
X15652206Y-16206924D02*
X15652206Y-16168829D01*
X15652206Y-16168829D02*
X15642682Y-16121210D01*
X15642682Y-16121210D02*
X15633158Y-16092639D01*
X15633158Y-16092639D02*
X15623634Y-16073591D01*
X15623634Y-16073591D02*
X15604587Y-16045019D01*
X15604587Y-16045019D02*
X15595063Y-16035496D01*
X15956968Y-16340258D02*
X15947444Y-16330734D01*
X15947444Y-16330734D02*
X15928396Y-16302162D01*
X15928396Y-16302162D02*
X15918872Y-16283115D01*
X15918872Y-16283115D02*
X15909349Y-16254543D01*
X15909349Y-16254543D02*
X15899825Y-16206924D01*
X15899825Y-16206924D02*
X15899825Y-16168829D01*
X15899825Y-16168829D02*
X15909349Y-16121210D01*
X15909349Y-16121210D02*
X15918872Y-16092639D01*
X15918872Y-16092639D02*
X15928396Y-16073591D01*
X15928396Y-16073591D02*
X15947444Y-16045019D01*
X15947444Y-16045019D02*
X15956968Y-16035496D01*
X16033158Y-16130734D02*
X16033158Y-16264067D01*
X16033158Y-16149781D02*
X16042682Y-16140258D01*
X16042682Y-16140258D02*
X16061729Y-16130734D01*
X16061729Y-16130734D02*
X16090301Y-16130734D01*
X16090301Y-16130734D02*
X16109349Y-16140258D01*
X16109349Y-16140258D02*
X16118872Y-16159305D01*
X16118872Y-16159305D02*
X16118872Y-16264067D01*
X16242682Y-16264067D02*
X16223634Y-16254543D01*
X16223634Y-16254543D02*
X16214110Y-16245019D01*
X16214110Y-16245019D02*
X16204587Y-16225972D01*
X16204587Y-16225972D02*
X16204587Y-16168829D01*
X16204587Y-16168829D02*
X16214110Y-16149781D01*
X16214110Y-16149781D02*
X16223634Y-16140258D01*
X16223634Y-16140258D02*
X16242682Y-16130734D01*
X16242682Y-16130734D02*
X16271253Y-16130734D01*
X16271253Y-16130734D02*
X16290301Y-16140258D01*
X16290301Y-16140258D02*
X16299825Y-16149781D01*
X16299825Y-16149781D02*
X16309349Y-16168829D01*
X16309349Y-16168829D02*
X16309349Y-16225972D01*
X16309349Y-16225972D02*
X16299825Y-16245019D01*
X16299825Y-16245019D02*
X16290301Y-16254543D01*
X16290301Y-16254543D02*
X16271253Y-16264067D01*
X16271253Y-16264067D02*
X16242682Y-16264067D01*
X16366491Y-16130734D02*
X16442682Y-16130734D01*
X16395063Y-16064067D02*
X16395063Y-16235496D01*
X16395063Y-16235496D02*
X16404587Y-16254543D01*
X16404587Y-16254543D02*
X16423634Y-16264067D01*
X16423634Y-16264067D02*
X16442682Y-16264067D01*
X16661730Y-16130734D02*
X16661730Y-16330734D01*
X16661730Y-16140258D02*
X16680777Y-16130734D01*
X16680777Y-16130734D02*
X16718872Y-16130734D01*
X16718872Y-16130734D02*
X16737920Y-16140258D01*
X16737920Y-16140258D02*
X16747444Y-16149781D01*
X16747444Y-16149781D02*
X16756968Y-16168829D01*
X16756968Y-16168829D02*
X16756968Y-16225972D01*
X16756968Y-16225972D02*
X16747444Y-16245019D01*
X16747444Y-16245019D02*
X16737920Y-16254543D01*
X16737920Y-16254543D02*
X16718872Y-16264067D01*
X16718872Y-16264067D02*
X16680777Y-16264067D01*
X16680777Y-16264067D02*
X16661730Y-16254543D01*
X16871253Y-16264067D02*
X16852206Y-16254543D01*
X16852206Y-16254543D02*
X16842682Y-16235496D01*
X16842682Y-16235496D02*
X16842682Y-16064067D01*
X17033158Y-16264067D02*
X17033158Y-16159305D01*
X17033158Y-16159305D02*
X17023634Y-16140258D01*
X17023634Y-16140258D02*
X17004587Y-16130734D01*
X17004587Y-16130734D02*
X16966492Y-16130734D01*
X16966492Y-16130734D02*
X16947444Y-16140258D01*
X17033158Y-16254543D02*
X17014111Y-16264067D01*
X17014111Y-16264067D02*
X16966492Y-16264067D01*
X16966492Y-16264067D02*
X16947444Y-16254543D01*
X16947444Y-16254543D02*
X16937920Y-16235496D01*
X16937920Y-16235496D02*
X16937920Y-16216448D01*
X16937920Y-16216448D02*
X16947444Y-16197400D01*
X16947444Y-16197400D02*
X16966492Y-16187877D01*
X16966492Y-16187877D02*
X17014111Y-16187877D01*
X17014111Y-16187877D02*
X17033158Y-16178353D01*
X17099825Y-16130734D02*
X17176015Y-16130734D01*
X17128396Y-16064067D02*
X17128396Y-16235496D01*
X17128396Y-16235496D02*
X17137920Y-16254543D01*
X17137920Y-16254543D02*
X17156968Y-16264067D01*
X17156968Y-16264067D02*
X17176015Y-16264067D01*
X17318873Y-16254543D02*
X17299825Y-16264067D01*
X17299825Y-16264067D02*
X17261730Y-16264067D01*
X17261730Y-16264067D02*
X17242682Y-16254543D01*
X17242682Y-16254543D02*
X17233158Y-16235496D01*
X17233158Y-16235496D02*
X17233158Y-16159305D01*
X17233158Y-16159305D02*
X17242682Y-16140258D01*
X17242682Y-16140258D02*
X17261730Y-16130734D01*
X17261730Y-16130734D02*
X17299825Y-16130734D01*
X17299825Y-16130734D02*
X17318873Y-16140258D01*
X17318873Y-16140258D02*
X17328396Y-16159305D01*
X17328396Y-16159305D02*
X17328396Y-16178353D01*
X17328396Y-16178353D02*
X17233158Y-16197400D01*
X17499825Y-16264067D02*
X17499825Y-16064067D01*
X17499825Y-16254543D02*
X17480777Y-16264067D01*
X17480777Y-16264067D02*
X17442682Y-16264067D01*
X17442682Y-16264067D02*
X17423634Y-16254543D01*
X17423634Y-16254543D02*
X17414111Y-16245019D01*
X17414111Y-16245019D02*
X17404587Y-16225972D01*
X17404587Y-16225972D02*
X17404587Y-16168829D01*
X17404587Y-16168829D02*
X17414111Y-16149781D01*
X17414111Y-16149781D02*
X17423634Y-16140258D01*
X17423634Y-16140258D02*
X17442682Y-16130734D01*
X17442682Y-16130734D02*
X17480777Y-16130734D01*
X17480777Y-16130734D02*
X17499825Y-16140258D01*
X17576015Y-16340258D02*
X17585539Y-16330734D01*
X17585539Y-16330734D02*
X17604587Y-16302162D01*
X17604587Y-16302162D02*
X17614111Y-16283115D01*
X17614111Y-16283115D02*
X17623634Y-16254543D01*
X17623634Y-16254543D02*
X17633158Y-16206924D01*
X17633158Y-16206924D02*
X17633158Y-16168829D01*
X17633158Y-16168829D02*
X17623634Y-16121210D01*
X17623634Y-16121210D02*
X17614111Y-16092639D01*
X17614111Y-16092639D02*
X17604587Y-16073591D01*
X17604587Y-16073591D02*
X17585539Y-16045019D01*
X17585539Y-16045019D02*
X17576015Y-16035496D01*
M02*
