%TF.GenerationSoftware,KiCad,Pcbnew,9.0.5*%
%TF.CreationDate,2025-11-24T08:34:37-05:00*%
%TF.ProjectId,devboard,64657662-6f61-4726-942e-6b696361645f,rev?*%
%TF.SameCoordinates,Original*%
%TF.FileFunction,Legend,Bot*%
%TF.FilePolarity,Positive*%
%FSLAX46Y46*%
G04 Gerber Fmt 4.6, Leading zero omitted, Abs format (unit mm)*
G04 Created by KiCad (PCBNEW 9.0.5) date 2025-11-24 08:34:37*
%MOMM*%
%LPD*%
G01*
G04 APERTURE LIST*
%ADD10C,0.100000*%
%ADD11C,0.150000*%
%ADD12C,0.300000*%
%ADD13C,0.120000*%
G04 APERTURE END LIST*
D10*
X167433609Y-51782142D02*
X167481228Y-51924999D01*
X167481228Y-51924999D02*
X167528847Y-51972618D01*
X167528847Y-51972618D02*
X167624085Y-52020237D01*
X167624085Y-52020237D02*
X167766942Y-52020237D01*
X167766942Y-52020237D02*
X167862180Y-51972618D01*
X167862180Y-51972618D02*
X167909800Y-51924999D01*
X167909800Y-51924999D02*
X167957419Y-51829761D01*
X167957419Y-51829761D02*
X167957419Y-51448809D01*
X167957419Y-51448809D02*
X166957419Y-51448809D01*
X166957419Y-51448809D02*
X166957419Y-51782142D01*
X166957419Y-51782142D02*
X167005038Y-51877380D01*
X167005038Y-51877380D02*
X167052657Y-51924999D01*
X167052657Y-51924999D02*
X167147895Y-51972618D01*
X167147895Y-51972618D02*
X167243133Y-51972618D01*
X167243133Y-51972618D02*
X167338371Y-51924999D01*
X167338371Y-51924999D02*
X167385990Y-51877380D01*
X167385990Y-51877380D02*
X167433609Y-51782142D01*
X167433609Y-51782142D02*
X167433609Y-51448809D01*
X166957419Y-52305952D02*
X166957419Y-52877380D01*
X167957419Y-52591666D02*
X166957419Y-52591666D01*
X167052657Y-53163095D02*
X167005038Y-53210714D01*
X167005038Y-53210714D02*
X166957419Y-53305952D01*
X166957419Y-53305952D02*
X166957419Y-53544047D01*
X166957419Y-53544047D02*
X167005038Y-53639285D01*
X167005038Y-53639285D02*
X167052657Y-53686904D01*
X167052657Y-53686904D02*
X167147895Y-53734523D01*
X167147895Y-53734523D02*
X167243133Y-53734523D01*
X167243133Y-53734523D02*
X167385990Y-53686904D01*
X167385990Y-53686904D02*
X167957419Y-53115476D01*
X167957419Y-53115476D02*
X167957419Y-53734523D01*
X176622419Y-116327693D02*
X176622419Y-115756265D01*
X176622419Y-116041979D02*
X175622419Y-116041979D01*
X175622419Y-116041979D02*
X175765276Y-115946741D01*
X175765276Y-115946741D02*
X175860514Y-115851503D01*
X175860514Y-115851503D02*
X175908133Y-115756265D01*
X176050990Y-116899122D02*
X176003371Y-116803884D01*
X176003371Y-116803884D02*
X175955752Y-116756265D01*
X175955752Y-116756265D02*
X175860514Y-116708646D01*
X175860514Y-116708646D02*
X175812895Y-116708646D01*
X175812895Y-116708646D02*
X175717657Y-116756265D01*
X175717657Y-116756265D02*
X175670038Y-116803884D01*
X175670038Y-116803884D02*
X175622419Y-116899122D01*
X175622419Y-116899122D02*
X175622419Y-117089598D01*
X175622419Y-117089598D02*
X175670038Y-117184836D01*
X175670038Y-117184836D02*
X175717657Y-117232455D01*
X175717657Y-117232455D02*
X175812895Y-117280074D01*
X175812895Y-117280074D02*
X175860514Y-117280074D01*
X175860514Y-117280074D02*
X175955752Y-117232455D01*
X175955752Y-117232455D02*
X176003371Y-117184836D01*
X176003371Y-117184836D02*
X176050990Y-117089598D01*
X176050990Y-117089598D02*
X176050990Y-116899122D01*
X176050990Y-116899122D02*
X176098609Y-116803884D01*
X176098609Y-116803884D02*
X176146228Y-116756265D01*
X176146228Y-116756265D02*
X176241466Y-116708646D01*
X176241466Y-116708646D02*
X176431942Y-116708646D01*
X176431942Y-116708646D02*
X176527180Y-116756265D01*
X176527180Y-116756265D02*
X176574800Y-116803884D01*
X176574800Y-116803884D02*
X176622419Y-116899122D01*
X176622419Y-116899122D02*
X176622419Y-117089598D01*
X176622419Y-117089598D02*
X176574800Y-117184836D01*
X176574800Y-117184836D02*
X176527180Y-117232455D01*
X176527180Y-117232455D02*
X176431942Y-117280074D01*
X176431942Y-117280074D02*
X176241466Y-117280074D01*
X176241466Y-117280074D02*
X176146228Y-117232455D01*
X176146228Y-117232455D02*
X176098609Y-117184836D01*
X176098609Y-117184836D02*
X176050990Y-117089598D01*
X175622419Y-118137217D02*
X175622419Y-117946741D01*
X175622419Y-117946741D02*
X175670038Y-117851503D01*
X175670038Y-117851503D02*
X175717657Y-117803884D01*
X175717657Y-117803884D02*
X175860514Y-117708646D01*
X175860514Y-117708646D02*
X176050990Y-117661027D01*
X176050990Y-117661027D02*
X176431942Y-117661027D01*
X176431942Y-117661027D02*
X176527180Y-117708646D01*
X176527180Y-117708646D02*
X176574800Y-117756265D01*
X176574800Y-117756265D02*
X176622419Y-117851503D01*
X176622419Y-117851503D02*
X176622419Y-118041979D01*
X176622419Y-118041979D02*
X176574800Y-118137217D01*
X176574800Y-118137217D02*
X176527180Y-118184836D01*
X176527180Y-118184836D02*
X176431942Y-118232455D01*
X176431942Y-118232455D02*
X176193847Y-118232455D01*
X176193847Y-118232455D02*
X176098609Y-118184836D01*
X176098609Y-118184836D02*
X176050990Y-118137217D01*
X176050990Y-118137217D02*
X176003371Y-118041979D01*
X176003371Y-118041979D02*
X176003371Y-117851503D01*
X176003371Y-117851503D02*
X176050990Y-117756265D01*
X176050990Y-117756265D02*
X176098609Y-117708646D01*
X176098609Y-117708646D02*
X176193847Y-117661027D01*
X175622419Y-119137217D02*
X175622419Y-118661027D01*
X175622419Y-118661027D02*
X176098609Y-118613408D01*
X176098609Y-118613408D02*
X176050990Y-118661027D01*
X176050990Y-118661027D02*
X176003371Y-118756265D01*
X176003371Y-118756265D02*
X176003371Y-118994360D01*
X176003371Y-118994360D02*
X176050990Y-119089598D01*
X176050990Y-119089598D02*
X176098609Y-119137217D01*
X176098609Y-119137217D02*
X176193847Y-119184836D01*
X176193847Y-119184836D02*
X176431942Y-119184836D01*
X176431942Y-119184836D02*
X176527180Y-119137217D01*
X176527180Y-119137217D02*
X176574800Y-119089598D01*
X176574800Y-119089598D02*
X176622419Y-118994360D01*
X176622419Y-118994360D02*
X176622419Y-118756265D01*
X176622419Y-118756265D02*
X176574800Y-118661027D01*
X176574800Y-118661027D02*
X176527180Y-118613408D01*
X175622419Y-119803884D02*
X175622419Y-119899122D01*
X175622419Y-119899122D02*
X175670038Y-119994360D01*
X175670038Y-119994360D02*
X175717657Y-120041979D01*
X175717657Y-120041979D02*
X175812895Y-120089598D01*
X175812895Y-120089598D02*
X176003371Y-120137217D01*
X176003371Y-120137217D02*
X176241466Y-120137217D01*
X176241466Y-120137217D02*
X176431942Y-120089598D01*
X176431942Y-120089598D02*
X176527180Y-120041979D01*
X176527180Y-120041979D02*
X176574800Y-119994360D01*
X176574800Y-119994360D02*
X176622419Y-119899122D01*
X176622419Y-119899122D02*
X176622419Y-119803884D01*
X176622419Y-119803884D02*
X176574800Y-119708646D01*
X176574800Y-119708646D02*
X176527180Y-119661027D01*
X176527180Y-119661027D02*
X176431942Y-119613408D01*
X176431942Y-119613408D02*
X176241466Y-119565789D01*
X176241466Y-119565789D02*
X176003371Y-119565789D01*
X176003371Y-119565789D02*
X175812895Y-119613408D01*
X175812895Y-119613408D02*
X175717657Y-119661027D01*
X175717657Y-119661027D02*
X175670038Y-119708646D01*
X175670038Y-119708646D02*
X175622419Y-119803884D01*
D11*
X114641333Y-55607469D02*
X114641333Y-56321754D01*
X114641333Y-56321754D02*
X114688952Y-56464611D01*
X114688952Y-56464611D02*
X114784190Y-56559850D01*
X114784190Y-56559850D02*
X114927047Y-56607469D01*
X114927047Y-56607469D02*
X115022285Y-56607469D01*
X113736571Y-55940802D02*
X113736571Y-56607469D01*
X113974666Y-55559850D02*
X114212761Y-56274135D01*
X114212761Y-56274135D02*
X113593714Y-56274135D01*
D10*
X146566390Y-53353571D02*
X146518771Y-53210714D01*
X146518771Y-53210714D02*
X146471152Y-53163095D01*
X146471152Y-53163095D02*
X146375914Y-53115476D01*
X146375914Y-53115476D02*
X146233057Y-53115476D01*
X146233057Y-53115476D02*
X146137819Y-53163095D01*
X146137819Y-53163095D02*
X146090200Y-53210714D01*
X146090200Y-53210714D02*
X146042580Y-53305952D01*
X146042580Y-53305952D02*
X146042580Y-53686904D01*
X146042580Y-53686904D02*
X147042580Y-53686904D01*
X147042580Y-53686904D02*
X147042580Y-53353571D01*
X147042580Y-53353571D02*
X146994961Y-53258333D01*
X146994961Y-53258333D02*
X146947342Y-53210714D01*
X146947342Y-53210714D02*
X146852104Y-53163095D01*
X146852104Y-53163095D02*
X146756866Y-53163095D01*
X146756866Y-53163095D02*
X146661628Y-53210714D01*
X146661628Y-53210714D02*
X146614009Y-53258333D01*
X146614009Y-53258333D02*
X146566390Y-53353571D01*
X146566390Y-53353571D02*
X146566390Y-53686904D01*
X147042580Y-52829761D02*
X147042580Y-52258333D01*
X146042580Y-52544047D02*
X147042580Y-52544047D01*
X146042580Y-51401190D02*
X146042580Y-51972618D01*
X146042580Y-51686904D02*
X147042580Y-51686904D01*
X147042580Y-51686904D02*
X146899723Y-51782142D01*
X146899723Y-51782142D02*
X146804485Y-51877380D01*
X146804485Y-51877380D02*
X146756866Y-51972618D01*
X137377580Y-63672306D02*
X137377580Y-64243734D01*
X137377580Y-63958020D02*
X138377580Y-63958020D01*
X138377580Y-63958020D02*
X138234723Y-64053258D01*
X138234723Y-64053258D02*
X138139485Y-64148496D01*
X138139485Y-64148496D02*
X138091866Y-64243734D01*
X137949009Y-63100877D02*
X137996628Y-63196115D01*
X137996628Y-63196115D02*
X138044247Y-63243734D01*
X138044247Y-63243734D02*
X138139485Y-63291353D01*
X138139485Y-63291353D02*
X138187104Y-63291353D01*
X138187104Y-63291353D02*
X138282342Y-63243734D01*
X138282342Y-63243734D02*
X138329961Y-63196115D01*
X138329961Y-63196115D02*
X138377580Y-63100877D01*
X138377580Y-63100877D02*
X138377580Y-62910401D01*
X138377580Y-62910401D02*
X138329961Y-62815163D01*
X138329961Y-62815163D02*
X138282342Y-62767544D01*
X138282342Y-62767544D02*
X138187104Y-62719925D01*
X138187104Y-62719925D02*
X138139485Y-62719925D01*
X138139485Y-62719925D02*
X138044247Y-62767544D01*
X138044247Y-62767544D02*
X137996628Y-62815163D01*
X137996628Y-62815163D02*
X137949009Y-62910401D01*
X137949009Y-62910401D02*
X137949009Y-63100877D01*
X137949009Y-63100877D02*
X137901390Y-63196115D01*
X137901390Y-63196115D02*
X137853771Y-63243734D01*
X137853771Y-63243734D02*
X137758533Y-63291353D01*
X137758533Y-63291353D02*
X137568057Y-63291353D01*
X137568057Y-63291353D02*
X137472819Y-63243734D01*
X137472819Y-63243734D02*
X137425200Y-63196115D01*
X137425200Y-63196115D02*
X137377580Y-63100877D01*
X137377580Y-63100877D02*
X137377580Y-62910401D01*
X137377580Y-62910401D02*
X137425200Y-62815163D01*
X137425200Y-62815163D02*
X137472819Y-62767544D01*
X137472819Y-62767544D02*
X137568057Y-62719925D01*
X137568057Y-62719925D02*
X137758533Y-62719925D01*
X137758533Y-62719925D02*
X137853771Y-62767544D01*
X137853771Y-62767544D02*
X137901390Y-62815163D01*
X137901390Y-62815163D02*
X137949009Y-62910401D01*
X138377580Y-61862782D02*
X138377580Y-62053258D01*
X138377580Y-62053258D02*
X138329961Y-62148496D01*
X138329961Y-62148496D02*
X138282342Y-62196115D01*
X138282342Y-62196115D02*
X138139485Y-62291353D01*
X138139485Y-62291353D02*
X137949009Y-62338972D01*
X137949009Y-62338972D02*
X137568057Y-62338972D01*
X137568057Y-62338972D02*
X137472819Y-62291353D01*
X137472819Y-62291353D02*
X137425200Y-62243734D01*
X137425200Y-62243734D02*
X137377580Y-62148496D01*
X137377580Y-62148496D02*
X137377580Y-61958020D01*
X137377580Y-61958020D02*
X137425200Y-61862782D01*
X137425200Y-61862782D02*
X137472819Y-61815163D01*
X137472819Y-61815163D02*
X137568057Y-61767544D01*
X137568057Y-61767544D02*
X137806152Y-61767544D01*
X137806152Y-61767544D02*
X137901390Y-61815163D01*
X137901390Y-61815163D02*
X137949009Y-61862782D01*
X137949009Y-61862782D02*
X137996628Y-61958020D01*
X137996628Y-61958020D02*
X137996628Y-62148496D01*
X137996628Y-62148496D02*
X137949009Y-62243734D01*
X137949009Y-62243734D02*
X137901390Y-62291353D01*
X137901390Y-62291353D02*
X137806152Y-62338972D01*
X138377580Y-60862782D02*
X138377580Y-61338972D01*
X138377580Y-61338972D02*
X137901390Y-61386591D01*
X137901390Y-61386591D02*
X137949009Y-61338972D01*
X137949009Y-61338972D02*
X137996628Y-61243734D01*
X137996628Y-61243734D02*
X137996628Y-61005639D01*
X137996628Y-61005639D02*
X137949009Y-60910401D01*
X137949009Y-60910401D02*
X137901390Y-60862782D01*
X137901390Y-60862782D02*
X137806152Y-60815163D01*
X137806152Y-60815163D02*
X137568057Y-60815163D01*
X137568057Y-60815163D02*
X137472819Y-60862782D01*
X137472819Y-60862782D02*
X137425200Y-60910401D01*
X137425200Y-60910401D02*
X137377580Y-61005639D01*
X137377580Y-61005639D02*
X137377580Y-61243734D01*
X137377580Y-61243734D02*
X137425200Y-61338972D01*
X137425200Y-61338972D02*
X137472819Y-61386591D01*
X138377580Y-60196115D02*
X138377580Y-60100877D01*
X138377580Y-60100877D02*
X138329961Y-60005639D01*
X138329961Y-60005639D02*
X138282342Y-59958020D01*
X138282342Y-59958020D02*
X138187104Y-59910401D01*
X138187104Y-59910401D02*
X137996628Y-59862782D01*
X137996628Y-59862782D02*
X137758533Y-59862782D01*
X137758533Y-59862782D02*
X137568057Y-59910401D01*
X137568057Y-59910401D02*
X137472819Y-59958020D01*
X137472819Y-59958020D02*
X137425200Y-60005639D01*
X137425200Y-60005639D02*
X137377580Y-60100877D01*
X137377580Y-60100877D02*
X137377580Y-60196115D01*
X137377580Y-60196115D02*
X137425200Y-60291353D01*
X137425200Y-60291353D02*
X137472819Y-60338972D01*
X137472819Y-60338972D02*
X137568057Y-60386591D01*
X137568057Y-60386591D02*
X137758533Y-60434210D01*
X137758533Y-60434210D02*
X137996628Y-60434210D01*
X137996628Y-60434210D02*
X138187104Y-60386591D01*
X138187104Y-60386591D02*
X138282342Y-60338972D01*
X138282342Y-60338972D02*
X138329961Y-60291353D01*
X138329961Y-60291353D02*
X138377580Y-60196115D01*
%TO.C,BT2*%
X159880000Y-59520000D02*
X159880000Y-68780000D01*
X159880000Y-59520000D02*
X163055000Y-59520000D01*
X159880000Y-68780000D02*
X159880000Y-111250000D01*
X159880000Y-68780000D02*
X175120000Y-68780000D01*
X159880000Y-120510000D02*
X159880000Y-111250000D01*
D12*
X160750000Y-109500000D02*
X162250000Y-109500000D01*
X161500000Y-108750000D02*
X161500000Y-110250000D01*
D10*
X163055000Y-55920000D02*
X163055000Y-59520000D01*
X163055000Y-55920000D02*
X171945000Y-55920000D01*
X163055000Y-120510000D02*
X159880000Y-120510000D01*
X163055000Y-124110000D02*
X163055000Y-120510000D01*
X171945000Y-55920000D02*
X171945000Y-59520000D01*
X171945000Y-59520000D02*
X175120000Y-59520000D01*
X171945000Y-124110000D02*
X163055000Y-124110000D01*
X171945000Y-124110000D02*
X171945000Y-120510000D01*
X175120000Y-59520000D02*
X175120000Y-68780000D01*
X175120000Y-68780000D02*
X175120000Y-111250000D01*
X175120000Y-111250000D02*
X159880000Y-111250000D01*
X175120000Y-120510000D02*
X171945000Y-120510000D01*
X175120000Y-120510000D02*
X175120000Y-111250000D01*
D13*
%TO.C,J4*%
X111688000Y-57495900D02*
X111688000Y-58825900D01*
X111688000Y-60095900D02*
X111688000Y-108415900D01*
X113018000Y-57495900D02*
X111688000Y-57495900D01*
X114288000Y-57495900D02*
X114288000Y-60095900D01*
X114288000Y-60095900D02*
X111688000Y-60095900D01*
X116888000Y-57495900D02*
X114288000Y-57495900D01*
X116888000Y-57495900D02*
X116888000Y-108415900D01*
X116888000Y-108415900D02*
X111688000Y-108415900D01*
D10*
%TO.C,BT1*%
X138880000Y-59490000D02*
X138880000Y-68750000D01*
X138880000Y-59490000D02*
X142055000Y-59490000D01*
X138880000Y-68750000D02*
X154120000Y-68750000D01*
X138880000Y-111220000D02*
X138880000Y-68750000D01*
X138880000Y-120480000D02*
X138880000Y-111220000D01*
X142055000Y-55890000D02*
X142055000Y-59490000D01*
X142055000Y-55890000D02*
X150945000Y-55890000D01*
X142055000Y-120480000D02*
X138880000Y-120480000D01*
X142055000Y-124080000D02*
X142055000Y-120480000D01*
X150945000Y-55890000D02*
X150945000Y-59490000D01*
X150945000Y-59490000D02*
X154120000Y-59490000D01*
X150945000Y-124080000D02*
X142055000Y-124080000D01*
X150945000Y-124080000D02*
X150945000Y-120480000D01*
D12*
X152500000Y-71250000D02*
X152500000Y-69750000D01*
X153250000Y-70500000D02*
X151750000Y-70500000D01*
D10*
X154120000Y-59490000D02*
X154120000Y-68750000D01*
X154120000Y-111220000D02*
X138880000Y-111220000D01*
X154120000Y-111220000D02*
X154120000Y-68750000D01*
X154120000Y-120480000D02*
X150945000Y-120480000D01*
X154120000Y-120480000D02*
X154120000Y-111220000D01*
%TD*%
M02*
