%TF.GenerationSoftware,KiCad,Pcbnew,9.0.5*%
%TF.CreationDate,2025-11-24T08:28:51-05:00*%
%TF.ProjectId,temperature,74656d70-6572-4617-9475-72652e6b6963,rev?*%
%TF.SameCoordinates,Original*%
%TF.FileFunction,Drillmap*%
%TF.FilePolarity,Positive*%
%FSLAX45Y45*%
G04 Gerber Fmt 4.5, Leading zero omitted, Abs format (unit mm)*
G04 Created by KiCad (PCBNEW 9.0.5) date 2025-11-24 08:28:51*
%MOMM*%
%LPD*%
G01*
G04 APERTURE LIST*
%ADD10C,0.050000*%
%ADD11C,0.200000*%
%ADD12C,0.320000*%
G04 APERTURE END LIST*
D10*
X9700000Y-8200000D02*
G75*
G02*
X9900000Y-8000000I200000J0D01*
G01*
X9900000Y-9500000D02*
X11000000Y-9500000D01*
X11000000Y-8000000D02*
G75*
G02*
X11200000Y-8200000I0J-200000D01*
G01*
X9700000Y-8200000D02*
X9700000Y-9300000D01*
X11000000Y-8000000D02*
X9900000Y-8000000D01*
X11200000Y-9300000D02*
G75*
G02*
X11000000Y-9500000I-200000J0D01*
G01*
X9900000Y-9500000D02*
G75*
G02*
X9700000Y-9300000I0J200000D01*
G01*
X11200000Y-9300000D02*
X11200000Y-8200000D01*
D11*
D12*
X9940000Y-8240000D02*
X10260000Y-8560000D01*
X10260000Y-8240000D02*
X9940000Y-8560000D01*
D11*
X9958277Y-9813984D02*
X9958277Y-9613984D01*
X9958277Y-9613984D02*
X10005896Y-9613984D01*
X10005896Y-9613984D02*
X10034467Y-9623508D01*
X10034467Y-9623508D02*
X10053515Y-9642555D01*
X10053515Y-9642555D02*
X10063039Y-9661603D01*
X10063039Y-9661603D02*
X10072563Y-9699698D01*
X10072563Y-9699698D02*
X10072563Y-9728270D01*
X10072563Y-9728270D02*
X10063039Y-9766365D01*
X10063039Y-9766365D02*
X10053515Y-9785412D01*
X10053515Y-9785412D02*
X10034467Y-9804460D01*
X10034467Y-9804460D02*
X10005896Y-9813984D01*
X10005896Y-9813984D02*
X9958277Y-9813984D01*
X10158277Y-9813984D02*
X10158277Y-9680650D01*
X10158277Y-9718746D02*
X10167801Y-9699698D01*
X10167801Y-9699698D02*
X10177324Y-9690174D01*
X10177324Y-9690174D02*
X10196372Y-9680650D01*
X10196372Y-9680650D02*
X10215420Y-9680650D01*
X10282086Y-9813984D02*
X10282086Y-9680650D01*
X10282086Y-9613984D02*
X10272563Y-9623508D01*
X10272563Y-9623508D02*
X10282086Y-9633031D01*
X10282086Y-9633031D02*
X10291610Y-9623508D01*
X10291610Y-9623508D02*
X10282086Y-9613984D01*
X10282086Y-9613984D02*
X10282086Y-9633031D01*
X10405896Y-9813984D02*
X10386848Y-9804460D01*
X10386848Y-9804460D02*
X10377324Y-9785412D01*
X10377324Y-9785412D02*
X10377324Y-9613984D01*
X10510658Y-9813984D02*
X10491610Y-9804460D01*
X10491610Y-9804460D02*
X10482086Y-9785412D01*
X10482086Y-9785412D02*
X10482086Y-9613984D01*
X10739229Y-9813984D02*
X10739229Y-9613984D01*
X10739229Y-9613984D02*
X10805896Y-9756841D01*
X10805896Y-9756841D02*
X10872563Y-9613984D01*
X10872563Y-9613984D02*
X10872563Y-9813984D01*
X11053515Y-9813984D02*
X11053515Y-9709222D01*
X11053515Y-9709222D02*
X11043991Y-9690174D01*
X11043991Y-9690174D02*
X11024944Y-9680650D01*
X11024944Y-9680650D02*
X10986848Y-9680650D01*
X10986848Y-9680650D02*
X10967801Y-9690174D01*
X11053515Y-9804460D02*
X11034467Y-9813984D01*
X11034467Y-9813984D02*
X10986848Y-9813984D01*
X10986848Y-9813984D02*
X10967801Y-9804460D01*
X10967801Y-9804460D02*
X10958277Y-9785412D01*
X10958277Y-9785412D02*
X10958277Y-9766365D01*
X10958277Y-9766365D02*
X10967801Y-9747317D01*
X10967801Y-9747317D02*
X10986848Y-9737793D01*
X10986848Y-9737793D02*
X11034467Y-9737793D01*
X11034467Y-9737793D02*
X11053515Y-9728270D01*
X11148753Y-9680650D02*
X11148753Y-9880650D01*
X11148753Y-9690174D02*
X11167801Y-9680650D01*
X11167801Y-9680650D02*
X11205896Y-9680650D01*
X11205896Y-9680650D02*
X11224943Y-9690174D01*
X11224943Y-9690174D02*
X11234467Y-9699698D01*
X11234467Y-9699698D02*
X11243991Y-9718746D01*
X11243991Y-9718746D02*
X11243991Y-9775889D01*
X11243991Y-9775889D02*
X11234467Y-9794936D01*
X11234467Y-9794936D02*
X11224943Y-9804460D01*
X11224943Y-9804460D02*
X11205896Y-9813984D01*
X11205896Y-9813984D02*
X11167801Y-9813984D01*
X11167801Y-9813984D02*
X11148753Y-9804460D01*
X11329705Y-9794936D02*
X11339229Y-9804460D01*
X11339229Y-9804460D02*
X11329705Y-9813984D01*
X11329705Y-9813984D02*
X11320182Y-9804460D01*
X11320182Y-9804460D02*
X11329705Y-9794936D01*
X11329705Y-9794936D02*
X11329705Y-9813984D01*
X11329705Y-9690174D02*
X11339229Y-9699698D01*
X11339229Y-9699698D02*
X11329705Y-9709222D01*
X11329705Y-9709222D02*
X11320182Y-9699698D01*
X11320182Y-9699698D02*
X11329705Y-9690174D01*
X11329705Y-9690174D02*
X11329705Y-9709222D01*
X9497500Y-10042500D02*
X9697500Y-10242500D01*
X9697500Y-10042500D02*
X9497500Y-10242500D01*
X9939229Y-10033984D02*
X10063039Y-10033984D01*
X10063039Y-10033984D02*
X9996372Y-10110174D01*
X9996372Y-10110174D02*
X10024944Y-10110174D01*
X10024944Y-10110174D02*
X10043991Y-10119698D01*
X10043991Y-10119698D02*
X10053515Y-10129222D01*
X10053515Y-10129222D02*
X10063039Y-10148270D01*
X10063039Y-10148270D02*
X10063039Y-10195889D01*
X10063039Y-10195889D02*
X10053515Y-10214936D01*
X10053515Y-10214936D02*
X10043991Y-10224460D01*
X10043991Y-10224460D02*
X10024944Y-10233984D01*
X10024944Y-10233984D02*
X9967801Y-10233984D01*
X9967801Y-10233984D02*
X9948753Y-10224460D01*
X9948753Y-10224460D02*
X9939229Y-10214936D01*
X10148753Y-10214936D02*
X10158277Y-10224460D01*
X10158277Y-10224460D02*
X10148753Y-10233984D01*
X10148753Y-10233984D02*
X10139229Y-10224460D01*
X10139229Y-10224460D02*
X10148753Y-10214936D01*
X10148753Y-10214936D02*
X10148753Y-10233984D01*
X10234467Y-10053031D02*
X10243991Y-10043508D01*
X10243991Y-10043508D02*
X10263039Y-10033984D01*
X10263039Y-10033984D02*
X10310658Y-10033984D01*
X10310658Y-10033984D02*
X10329705Y-10043508D01*
X10329705Y-10043508D02*
X10339229Y-10053031D01*
X10339229Y-10053031D02*
X10348753Y-10072079D01*
X10348753Y-10072079D02*
X10348753Y-10091127D01*
X10348753Y-10091127D02*
X10339229Y-10119698D01*
X10339229Y-10119698D02*
X10224944Y-10233984D01*
X10224944Y-10233984D02*
X10348753Y-10233984D01*
X10472563Y-10033984D02*
X10491610Y-10033984D01*
X10491610Y-10033984D02*
X10510658Y-10043508D01*
X10510658Y-10043508D02*
X10520182Y-10053031D01*
X10520182Y-10053031D02*
X10529705Y-10072079D01*
X10529705Y-10072079D02*
X10539229Y-10110174D01*
X10539229Y-10110174D02*
X10539229Y-10157793D01*
X10539229Y-10157793D02*
X10529705Y-10195889D01*
X10529705Y-10195889D02*
X10520182Y-10214936D01*
X10520182Y-10214936D02*
X10510658Y-10224460D01*
X10510658Y-10224460D02*
X10491610Y-10233984D01*
X10491610Y-10233984D02*
X10472563Y-10233984D01*
X10472563Y-10233984D02*
X10453515Y-10224460D01*
X10453515Y-10224460D02*
X10443991Y-10214936D01*
X10443991Y-10214936D02*
X10434467Y-10195889D01*
X10434467Y-10195889D02*
X10424944Y-10157793D01*
X10424944Y-10157793D02*
X10424944Y-10110174D01*
X10424944Y-10110174D02*
X10434467Y-10072079D01*
X10434467Y-10072079D02*
X10443991Y-10053031D01*
X10443991Y-10053031D02*
X10453515Y-10043508D01*
X10453515Y-10043508D02*
X10472563Y-10033984D01*
X10663039Y-10033984D02*
X10682086Y-10033984D01*
X10682086Y-10033984D02*
X10701134Y-10043508D01*
X10701134Y-10043508D02*
X10710658Y-10053031D01*
X10710658Y-10053031D02*
X10720182Y-10072079D01*
X10720182Y-10072079D02*
X10729705Y-10110174D01*
X10729705Y-10110174D02*
X10729705Y-10157793D01*
X10729705Y-10157793D02*
X10720182Y-10195889D01*
X10720182Y-10195889D02*
X10710658Y-10214936D01*
X10710658Y-10214936D02*
X10701134Y-10224460D01*
X10701134Y-10224460D02*
X10682086Y-10233984D01*
X10682086Y-10233984D02*
X10663039Y-10233984D01*
X10663039Y-10233984D02*
X10643991Y-10224460D01*
X10643991Y-10224460D02*
X10634467Y-10214936D01*
X10634467Y-10214936D02*
X10624944Y-10195889D01*
X10624944Y-10195889D02*
X10615420Y-10157793D01*
X10615420Y-10157793D02*
X10615420Y-10110174D01*
X10615420Y-10110174D02*
X10624944Y-10072079D01*
X10624944Y-10072079D02*
X10634467Y-10053031D01*
X10634467Y-10053031D02*
X10643991Y-10043508D01*
X10643991Y-10043508D02*
X10663039Y-10033984D01*
X10815420Y-10233984D02*
X10815420Y-10100650D01*
X10815420Y-10119698D02*
X10824944Y-10110174D01*
X10824944Y-10110174D02*
X10843991Y-10100650D01*
X10843991Y-10100650D02*
X10872563Y-10100650D01*
X10872563Y-10100650D02*
X10891610Y-10110174D01*
X10891610Y-10110174D02*
X10901134Y-10129222D01*
X10901134Y-10129222D02*
X10901134Y-10233984D01*
X10901134Y-10129222D02*
X10910658Y-10110174D01*
X10910658Y-10110174D02*
X10929705Y-10100650D01*
X10929705Y-10100650D02*
X10958277Y-10100650D01*
X10958277Y-10100650D02*
X10977325Y-10110174D01*
X10977325Y-10110174D02*
X10986848Y-10129222D01*
X10986848Y-10129222D02*
X10986848Y-10233984D01*
X11082086Y-10233984D02*
X11082086Y-10100650D01*
X11082086Y-10119698D02*
X11091610Y-10110174D01*
X11091610Y-10110174D02*
X11110658Y-10100650D01*
X11110658Y-10100650D02*
X11139229Y-10100650D01*
X11139229Y-10100650D02*
X11158277Y-10110174D01*
X11158277Y-10110174D02*
X11167801Y-10129222D01*
X11167801Y-10129222D02*
X11167801Y-10233984D01*
X11167801Y-10129222D02*
X11177325Y-10110174D01*
X11177325Y-10110174D02*
X11196372Y-10100650D01*
X11196372Y-10100650D02*
X11224943Y-10100650D01*
X11224943Y-10100650D02*
X11243991Y-10110174D01*
X11243991Y-10110174D02*
X11253515Y-10129222D01*
X11253515Y-10129222D02*
X11253515Y-10233984D01*
X11643991Y-10024460D02*
X11472563Y-10281603D01*
X11901134Y-10033984D02*
X11920182Y-10033984D01*
X11920182Y-10033984D02*
X11939229Y-10043508D01*
X11939229Y-10043508D02*
X11948753Y-10053031D01*
X11948753Y-10053031D02*
X11958277Y-10072079D01*
X11958277Y-10072079D02*
X11967801Y-10110174D01*
X11967801Y-10110174D02*
X11967801Y-10157793D01*
X11967801Y-10157793D02*
X11958277Y-10195889D01*
X11958277Y-10195889D02*
X11948753Y-10214936D01*
X11948753Y-10214936D02*
X11939229Y-10224460D01*
X11939229Y-10224460D02*
X11920182Y-10233984D01*
X11920182Y-10233984D02*
X11901134Y-10233984D01*
X11901134Y-10233984D02*
X11882086Y-10224460D01*
X11882086Y-10224460D02*
X11872563Y-10214936D01*
X11872563Y-10214936D02*
X11863039Y-10195889D01*
X11863039Y-10195889D02*
X11853515Y-10157793D01*
X11853515Y-10157793D02*
X11853515Y-10110174D01*
X11853515Y-10110174D02*
X11863039Y-10072079D01*
X11863039Y-10072079D02*
X11872563Y-10053031D01*
X11872563Y-10053031D02*
X11882086Y-10043508D01*
X11882086Y-10043508D02*
X11901134Y-10033984D01*
X12053515Y-10214936D02*
X12063039Y-10224460D01*
X12063039Y-10224460D02*
X12053515Y-10233984D01*
X12053515Y-10233984D02*
X12043991Y-10224460D01*
X12043991Y-10224460D02*
X12053515Y-10214936D01*
X12053515Y-10214936D02*
X12053515Y-10233984D01*
X12253515Y-10233984D02*
X12139229Y-10233984D01*
X12196372Y-10233984D02*
X12196372Y-10033984D01*
X12196372Y-10033984D02*
X12177325Y-10062555D01*
X12177325Y-10062555D02*
X12158277Y-10081603D01*
X12158277Y-10081603D02*
X12139229Y-10091127D01*
X12329706Y-10053031D02*
X12339229Y-10043508D01*
X12339229Y-10043508D02*
X12358277Y-10033984D01*
X12358277Y-10033984D02*
X12405896Y-10033984D01*
X12405896Y-10033984D02*
X12424944Y-10043508D01*
X12424944Y-10043508D02*
X12434467Y-10053031D01*
X12434467Y-10053031D02*
X12443991Y-10072079D01*
X12443991Y-10072079D02*
X12443991Y-10091127D01*
X12443991Y-10091127D02*
X12434467Y-10119698D01*
X12434467Y-10119698D02*
X12320182Y-10233984D01*
X12320182Y-10233984D02*
X12443991Y-10233984D01*
X12615420Y-10033984D02*
X12577325Y-10033984D01*
X12577325Y-10033984D02*
X12558277Y-10043508D01*
X12558277Y-10043508D02*
X12548753Y-10053031D01*
X12548753Y-10053031D02*
X12529706Y-10081603D01*
X12529706Y-10081603D02*
X12520182Y-10119698D01*
X12520182Y-10119698D02*
X12520182Y-10195889D01*
X12520182Y-10195889D02*
X12529706Y-10214936D01*
X12529706Y-10214936D02*
X12539229Y-10224460D01*
X12539229Y-10224460D02*
X12558277Y-10233984D01*
X12558277Y-10233984D02*
X12596372Y-10233984D01*
X12596372Y-10233984D02*
X12615420Y-10224460D01*
X12615420Y-10224460D02*
X12624944Y-10214936D01*
X12624944Y-10214936D02*
X12634467Y-10195889D01*
X12634467Y-10195889D02*
X12634467Y-10148270D01*
X12634467Y-10148270D02*
X12624944Y-10129222D01*
X12624944Y-10129222D02*
X12615420Y-10119698D01*
X12615420Y-10119698D02*
X12596372Y-10110174D01*
X12596372Y-10110174D02*
X12558277Y-10110174D01*
X12558277Y-10110174D02*
X12539229Y-10119698D01*
X12539229Y-10119698D02*
X12529706Y-10129222D01*
X12529706Y-10129222D02*
X12520182Y-10148270D01*
X12758277Y-10033984D02*
X12777325Y-10033984D01*
X12777325Y-10033984D02*
X12796372Y-10043508D01*
X12796372Y-10043508D02*
X12805896Y-10053031D01*
X12805896Y-10053031D02*
X12815420Y-10072079D01*
X12815420Y-10072079D02*
X12824944Y-10110174D01*
X12824944Y-10110174D02*
X12824944Y-10157793D01*
X12824944Y-10157793D02*
X12815420Y-10195889D01*
X12815420Y-10195889D02*
X12805896Y-10214936D01*
X12805896Y-10214936D02*
X12796372Y-10224460D01*
X12796372Y-10224460D02*
X12777325Y-10233984D01*
X12777325Y-10233984D02*
X12758277Y-10233984D01*
X12758277Y-10233984D02*
X12739229Y-10224460D01*
X12739229Y-10224460D02*
X12729706Y-10214936D01*
X12729706Y-10214936D02*
X12720182Y-10195889D01*
X12720182Y-10195889D02*
X12710658Y-10157793D01*
X12710658Y-10157793D02*
X12710658Y-10110174D01*
X12710658Y-10110174D02*
X12720182Y-10072079D01*
X12720182Y-10072079D02*
X12729706Y-10053031D01*
X12729706Y-10053031D02*
X12739229Y-10043508D01*
X12739229Y-10043508D02*
X12758277Y-10033984D01*
X12901134Y-10033984D02*
X12901134Y-10072079D01*
X12977325Y-10033984D02*
X12977325Y-10072079D01*
X13272563Y-10310174D02*
X13263039Y-10300650D01*
X13263039Y-10300650D02*
X13243991Y-10272079D01*
X13243991Y-10272079D02*
X13234468Y-10253031D01*
X13234468Y-10253031D02*
X13224944Y-10224460D01*
X13224944Y-10224460D02*
X13215420Y-10176841D01*
X13215420Y-10176841D02*
X13215420Y-10138746D01*
X13215420Y-10138746D02*
X13224944Y-10091127D01*
X13224944Y-10091127D02*
X13234468Y-10062555D01*
X13234468Y-10062555D02*
X13243991Y-10043508D01*
X13243991Y-10043508D02*
X13263039Y-10014936D01*
X13263039Y-10014936D02*
X13272563Y-10005412D01*
X13453515Y-10233984D02*
X13339229Y-10233984D01*
X13396372Y-10233984D02*
X13396372Y-10033984D01*
X13396372Y-10033984D02*
X13377325Y-10062555D01*
X13377325Y-10062555D02*
X13358277Y-10081603D01*
X13358277Y-10081603D02*
X13339229Y-10091127D01*
X13691610Y-10233984D02*
X13691610Y-10033984D01*
X13777325Y-10233984D02*
X13777325Y-10129222D01*
X13777325Y-10129222D02*
X13767801Y-10110174D01*
X13767801Y-10110174D02*
X13748753Y-10100650D01*
X13748753Y-10100650D02*
X13720182Y-10100650D01*
X13720182Y-10100650D02*
X13701134Y-10110174D01*
X13701134Y-10110174D02*
X13691610Y-10119698D01*
X13901134Y-10233984D02*
X13882087Y-10224460D01*
X13882087Y-10224460D02*
X13872563Y-10214936D01*
X13872563Y-10214936D02*
X13863039Y-10195889D01*
X13863039Y-10195889D02*
X13863039Y-10138746D01*
X13863039Y-10138746D02*
X13872563Y-10119698D01*
X13872563Y-10119698D02*
X13882087Y-10110174D01*
X13882087Y-10110174D02*
X13901134Y-10100650D01*
X13901134Y-10100650D02*
X13929706Y-10100650D01*
X13929706Y-10100650D02*
X13948753Y-10110174D01*
X13948753Y-10110174D02*
X13958277Y-10119698D01*
X13958277Y-10119698D02*
X13967801Y-10138746D01*
X13967801Y-10138746D02*
X13967801Y-10195889D01*
X13967801Y-10195889D02*
X13958277Y-10214936D01*
X13958277Y-10214936D02*
X13948753Y-10224460D01*
X13948753Y-10224460D02*
X13929706Y-10233984D01*
X13929706Y-10233984D02*
X13901134Y-10233984D01*
X14082087Y-10233984D02*
X14063039Y-10224460D01*
X14063039Y-10224460D02*
X14053515Y-10205412D01*
X14053515Y-10205412D02*
X14053515Y-10033984D01*
X14234468Y-10224460D02*
X14215420Y-10233984D01*
X14215420Y-10233984D02*
X14177325Y-10233984D01*
X14177325Y-10233984D02*
X14158277Y-10224460D01*
X14158277Y-10224460D02*
X14148753Y-10205412D01*
X14148753Y-10205412D02*
X14148753Y-10129222D01*
X14148753Y-10129222D02*
X14158277Y-10110174D01*
X14158277Y-10110174D02*
X14177325Y-10100650D01*
X14177325Y-10100650D02*
X14215420Y-10100650D01*
X14215420Y-10100650D02*
X14234468Y-10110174D01*
X14234468Y-10110174D02*
X14243991Y-10129222D01*
X14243991Y-10129222D02*
X14243991Y-10148270D01*
X14243991Y-10148270D02*
X14148753Y-10167317D01*
X14310658Y-10310174D02*
X14320182Y-10300650D01*
X14320182Y-10300650D02*
X14339230Y-10272079D01*
X14339230Y-10272079D02*
X14348753Y-10253031D01*
X14348753Y-10253031D02*
X14358277Y-10224460D01*
X14358277Y-10224460D02*
X14367801Y-10176841D01*
X14367801Y-10176841D02*
X14367801Y-10138746D01*
X14367801Y-10138746D02*
X14358277Y-10091127D01*
X14358277Y-10091127D02*
X14348753Y-10062555D01*
X14348753Y-10062555D02*
X14339230Y-10043508D01*
X14339230Y-10043508D02*
X14320182Y-10014936D01*
X14320182Y-10014936D02*
X14310658Y-10005412D01*
X14672563Y-10310174D02*
X14663039Y-10300650D01*
X14663039Y-10300650D02*
X14643991Y-10272079D01*
X14643991Y-10272079D02*
X14634468Y-10253031D01*
X14634468Y-10253031D02*
X14624944Y-10224460D01*
X14624944Y-10224460D02*
X14615420Y-10176841D01*
X14615420Y-10176841D02*
X14615420Y-10138746D01*
X14615420Y-10138746D02*
X14624944Y-10091127D01*
X14624944Y-10091127D02*
X14634468Y-10062555D01*
X14634468Y-10062555D02*
X14643991Y-10043508D01*
X14643991Y-10043508D02*
X14663039Y-10014936D01*
X14663039Y-10014936D02*
X14672563Y-10005412D01*
X14748753Y-10100650D02*
X14748753Y-10233984D01*
X14748753Y-10119698D02*
X14758277Y-10110174D01*
X14758277Y-10110174D02*
X14777325Y-10100650D01*
X14777325Y-10100650D02*
X14805896Y-10100650D01*
X14805896Y-10100650D02*
X14824944Y-10110174D01*
X14824944Y-10110174D02*
X14834468Y-10129222D01*
X14834468Y-10129222D02*
X14834468Y-10233984D01*
X14958277Y-10233984D02*
X14939230Y-10224460D01*
X14939230Y-10224460D02*
X14929706Y-10214936D01*
X14929706Y-10214936D02*
X14920182Y-10195889D01*
X14920182Y-10195889D02*
X14920182Y-10138746D01*
X14920182Y-10138746D02*
X14929706Y-10119698D01*
X14929706Y-10119698D02*
X14939230Y-10110174D01*
X14939230Y-10110174D02*
X14958277Y-10100650D01*
X14958277Y-10100650D02*
X14986849Y-10100650D01*
X14986849Y-10100650D02*
X15005896Y-10110174D01*
X15005896Y-10110174D02*
X15015420Y-10119698D01*
X15015420Y-10119698D02*
X15024944Y-10138746D01*
X15024944Y-10138746D02*
X15024944Y-10195889D01*
X15024944Y-10195889D02*
X15015420Y-10214936D01*
X15015420Y-10214936D02*
X15005896Y-10224460D01*
X15005896Y-10224460D02*
X14986849Y-10233984D01*
X14986849Y-10233984D02*
X14958277Y-10233984D01*
X15082087Y-10100650D02*
X15158277Y-10100650D01*
X15110658Y-10033984D02*
X15110658Y-10205412D01*
X15110658Y-10205412D02*
X15120182Y-10224460D01*
X15120182Y-10224460D02*
X15139230Y-10233984D01*
X15139230Y-10233984D02*
X15158277Y-10233984D01*
X15377325Y-10100650D02*
X15377325Y-10300650D01*
X15377325Y-10110174D02*
X15396372Y-10100650D01*
X15396372Y-10100650D02*
X15434468Y-10100650D01*
X15434468Y-10100650D02*
X15453515Y-10110174D01*
X15453515Y-10110174D02*
X15463039Y-10119698D01*
X15463039Y-10119698D02*
X15472563Y-10138746D01*
X15472563Y-10138746D02*
X15472563Y-10195889D01*
X15472563Y-10195889D02*
X15463039Y-10214936D01*
X15463039Y-10214936D02*
X15453515Y-10224460D01*
X15453515Y-10224460D02*
X15434468Y-10233984D01*
X15434468Y-10233984D02*
X15396372Y-10233984D01*
X15396372Y-10233984D02*
X15377325Y-10224460D01*
X15586849Y-10233984D02*
X15567801Y-10224460D01*
X15567801Y-10224460D02*
X15558277Y-10205412D01*
X15558277Y-10205412D02*
X15558277Y-10033984D01*
X15748753Y-10233984D02*
X15748753Y-10129222D01*
X15748753Y-10129222D02*
X15739230Y-10110174D01*
X15739230Y-10110174D02*
X15720182Y-10100650D01*
X15720182Y-10100650D02*
X15682087Y-10100650D01*
X15682087Y-10100650D02*
X15663039Y-10110174D01*
X15748753Y-10224460D02*
X15729706Y-10233984D01*
X15729706Y-10233984D02*
X15682087Y-10233984D01*
X15682087Y-10233984D02*
X15663039Y-10224460D01*
X15663039Y-10224460D02*
X15653515Y-10205412D01*
X15653515Y-10205412D02*
X15653515Y-10186365D01*
X15653515Y-10186365D02*
X15663039Y-10167317D01*
X15663039Y-10167317D02*
X15682087Y-10157793D01*
X15682087Y-10157793D02*
X15729706Y-10157793D01*
X15729706Y-10157793D02*
X15748753Y-10148270D01*
X15815420Y-10100650D02*
X15891611Y-10100650D01*
X15843992Y-10033984D02*
X15843992Y-10205412D01*
X15843992Y-10205412D02*
X15853515Y-10224460D01*
X15853515Y-10224460D02*
X15872563Y-10233984D01*
X15872563Y-10233984D02*
X15891611Y-10233984D01*
X16034468Y-10224460D02*
X16015420Y-10233984D01*
X16015420Y-10233984D02*
X15977325Y-10233984D01*
X15977325Y-10233984D02*
X15958277Y-10224460D01*
X15958277Y-10224460D02*
X15948753Y-10205412D01*
X15948753Y-10205412D02*
X15948753Y-10129222D01*
X15948753Y-10129222D02*
X15958277Y-10110174D01*
X15958277Y-10110174D02*
X15977325Y-10100650D01*
X15977325Y-10100650D02*
X16015420Y-10100650D01*
X16015420Y-10100650D02*
X16034468Y-10110174D01*
X16034468Y-10110174D02*
X16043992Y-10129222D01*
X16043992Y-10129222D02*
X16043992Y-10148270D01*
X16043992Y-10148270D02*
X15948753Y-10167317D01*
X16215420Y-10233984D02*
X16215420Y-10033984D01*
X16215420Y-10224460D02*
X16196373Y-10233984D01*
X16196373Y-10233984D02*
X16158277Y-10233984D01*
X16158277Y-10233984D02*
X16139230Y-10224460D01*
X16139230Y-10224460D02*
X16129706Y-10214936D01*
X16129706Y-10214936D02*
X16120182Y-10195889D01*
X16120182Y-10195889D02*
X16120182Y-10138746D01*
X16120182Y-10138746D02*
X16129706Y-10119698D01*
X16129706Y-10119698D02*
X16139230Y-10110174D01*
X16139230Y-10110174D02*
X16158277Y-10100650D01*
X16158277Y-10100650D02*
X16196373Y-10100650D01*
X16196373Y-10100650D02*
X16215420Y-10110174D01*
X16291611Y-10310174D02*
X16301134Y-10300650D01*
X16301134Y-10300650D02*
X16320182Y-10272079D01*
X16320182Y-10272079D02*
X16329706Y-10253031D01*
X16329706Y-10253031D02*
X16339230Y-10224460D01*
X16339230Y-10224460D02*
X16348753Y-10176841D01*
X16348753Y-10176841D02*
X16348753Y-10138746D01*
X16348753Y-10138746D02*
X16339230Y-10091127D01*
X16339230Y-10091127D02*
X16329706Y-10062555D01*
X16329706Y-10062555D02*
X16320182Y-10043508D01*
X16320182Y-10043508D02*
X16301134Y-10014936D01*
X16301134Y-10014936D02*
X16291611Y-10005412D01*
M02*
