%TF.GenerationSoftware,KiCad,Pcbnew,9.0.5*%
%TF.CreationDate,2025-11-24T08:28:41-05:00*%
%TF.ProjectId,temperature,74656d70-6572-4617-9475-72652e6b6963,rev?*%
%TF.SameCoordinates,Original*%
%TF.FileFunction,Copper,L1,Top*%
%TF.FilePolarity,Positive*%
%FSLAX46Y46*%
G04 Gerber Fmt 4.6, Leading zero omitted, Abs format (unit mm)*
G04 Created by KiCad (PCBNEW 9.0.5) date 2025-11-24 08:28:41*
%MOMM*%
%LPD*%
G01*
G04 APERTURE LIST*
G04 Aperture macros list*
%AMRoundRect*
0 Rectangle with rounded corners*
0 $1 Rounding radius*
0 $2 $3 $4 $5 $6 $7 $8 $9 X,Y pos of 4 corners*
0 Add a 4 corners polygon primitive as box body*
4,1,4,$2,$3,$4,$5,$6,$7,$8,$9,$2,$3,0*
0 Add four circle primitives for the rounded corners*
1,1,$1+$1,$2,$3*
1,1,$1+$1,$4,$5*
1,1,$1+$1,$6,$7*
1,1,$1+$1,$8,$9*
0 Add four rect primitives between the rounded corners*
20,1,$1+$1,$2,$3,$4,$5,0*
20,1,$1+$1,$4,$5,$6,$7,0*
20,1,$1+$1,$6,$7,$8,$9,0*
20,1,$1+$1,$8,$9,$2,$3,0*%
G04 Aperture macros list end*
%TA.AperFunction,SMDPad,CuDef*%
%ADD10RoundRect,0.140000X-0.140000X-0.170000X0.140000X-0.170000X0.140000X0.170000X-0.140000X0.170000X0*%
%TD*%
%TA.AperFunction,SMDPad,CuDef*%
%ADD11RoundRect,0.150000X0.512500X0.150000X-0.512500X0.150000X-0.512500X-0.150000X0.512500X-0.150000X0*%
%TD*%
%TA.AperFunction,SMDPad,CuDef*%
%ADD12RoundRect,0.150000X-0.150000X-0.700000X0.150000X-0.700000X0.150000X0.700000X-0.150000X0.700000X0*%
%TD*%
%TA.AperFunction,SMDPad,CuDef*%
%ADD13RoundRect,0.250000X-0.250000X-1.100000X0.250000X-1.100000X0.250000X1.100000X-0.250000X1.100000X0*%
%TD*%
%TA.AperFunction,ViaPad*%
%ADD14C,0.600000*%
%TD*%
%TA.AperFunction,Conductor*%
%ADD15C,0.200000*%
%TD*%
%TA.AperFunction,Conductor*%
%ADD16C,0.300000*%
%TD*%
G04 APERTURE END LIST*
D10*
%TO.P,C5,1*%
%TO.N,+3V3_SBC*%
X107195000Y-81625000D03*
%TO.P,C5,2*%
%TO.N,GND*%
X108155000Y-81625000D03*
%TD*%
D11*
%TO.P,U1,1,SCL*%
%TO.N,/I2C_SNS_SCL*%
X108137500Y-84950000D03*
%TO.P,U1,2,GND*%
%TO.N,GND*%
X108137500Y-84000000D03*
%TO.P,U1,3,ADD1*%
%TO.N,Net-(JP2-B)*%
X108137500Y-83050000D03*
%TO.P,U1,4,V+*%
%TO.N,+3V3_SBC*%
X105862500Y-83050000D03*
%TO.P,U1,5,ADD0*%
%TO.N,Net-(JP1-B)*%
X105862500Y-84000000D03*
%TO.P,U1,6,SDA*%
%TO.N,/I2C_SNS_SDA*%
X105862500Y-84950000D03*
%TD*%
D12*
%TO.P,J1,1,Pin_1*%
%TO.N,+3V3_SBC*%
X101125000Y-89150000D03*
%TO.P,J1,2,Pin_2*%
%TO.N,/I2C_SNS_SDA*%
X102375000Y-89150000D03*
%TO.P,J1,3,Pin_3*%
%TO.N,/I2C_SNS_SCL*%
X103625000Y-89150000D03*
%TO.P,J1,4,Pin_4*%
%TO.N,GND*%
X104875000Y-89150000D03*
D13*
%TO.P,J1,MP*%
%TO.N,N/C*%
X99275000Y-92350000D03*
X106725000Y-92350000D03*
%TD*%
D14*
%TO.N,Net-(JP2-B)*%
X109600000Y-83100000D03*
%TO.N,Net-(JP1-B)*%
X105500000Y-84000000D03*
%TO.N,GND*%
X100000000Y-81000000D03*
X98000000Y-82000000D03*
X111000000Y-87000000D03*
X111000000Y-91000000D03*
X111000000Y-89000000D03*
X108000000Y-94000000D03*
X111000000Y-82500000D03*
X103000000Y-94000000D03*
X105000000Y-90750000D03*
X98000000Y-92000000D03*
X110000000Y-81000000D03*
X111000000Y-85000000D03*
X98000000Y-88000000D03*
X106000000Y-81000000D03*
X101000000Y-94000000D03*
X98000000Y-90000000D03*
X102000000Y-81000000D03*
X111000000Y-93000000D03*
X104000000Y-81000000D03*
X110000000Y-94000000D03*
X98000000Y-86000000D03*
X98000000Y-84000000D03*
X109750000Y-84000000D03*
X105000000Y-94000000D03*
%TO.N,+3V3_SBC*%
X105862502Y-82157499D03*
X101250000Y-87750000D03*
%TD*%
D15*
%TO.N,Net-(JP1-B)*%
X105500000Y-84000000D02*
X105862500Y-84000000D01*
%TO.N,Net-(JP2-B)*%
X108137500Y-83050000D02*
X109550000Y-83050000D01*
X109550000Y-83050000D02*
X109600000Y-83100000D01*
D16*
%TO.N,GND*%
X104875000Y-89150000D02*
X104875000Y-90625000D01*
X108137500Y-84000000D02*
X109750000Y-84000000D01*
X104875000Y-90625000D02*
X105000000Y-90750000D01*
%TO.N,+3V3_SBC*%
X101250000Y-87750000D02*
X101250000Y-89025000D01*
X105862500Y-83050000D02*
X105862500Y-82157501D01*
X105862500Y-82157501D02*
X105862502Y-82157499D01*
X101250000Y-89025000D02*
X101125000Y-89150000D01*
X106395000Y-81625000D02*
X107195000Y-81625000D01*
X105862500Y-83050000D02*
X105862500Y-82157500D01*
X105862500Y-82157500D02*
X106395000Y-81625000D01*
%TO.N,/I2C_SNS_SDA*%
X105862500Y-84950000D02*
X105862500Y-85887500D01*
X104000000Y-86250000D02*
X102375000Y-87875000D01*
X105500000Y-86250000D02*
X104000000Y-86250000D01*
X102375000Y-87875000D02*
X102375000Y-89150000D01*
X105862500Y-85887500D02*
X105500000Y-86250000D01*
%TO.N,/I2C_SNS_SCL*%
X104250000Y-87250000D02*
X107000000Y-87250000D01*
X103625000Y-89150000D02*
X103625000Y-87875000D01*
X108137500Y-86112500D02*
X108137500Y-84950000D01*
X107000000Y-87250000D02*
X108137500Y-86112500D01*
X103625000Y-87875000D02*
X104250000Y-87250000D01*
%TD*%
%TA.AperFunction,Conductor*%
%TO.N,GND*%
G36*
X110004418Y-80500816D02*
G01*
X110204561Y-80515130D01*
X110222063Y-80517647D01*
X110413797Y-80559355D01*
X110430755Y-80564334D01*
X110614609Y-80632909D01*
X110630701Y-80640259D01*
X110802904Y-80734288D01*
X110817784Y-80743849D01*
X110974867Y-80861441D01*
X110988237Y-80873027D01*
X111126972Y-81011762D01*
X111138558Y-81025132D01*
X111256146Y-81182210D01*
X111265711Y-81197095D01*
X111359740Y-81369298D01*
X111367090Y-81385390D01*
X111435662Y-81569236D01*
X111440646Y-81586212D01*
X111482351Y-81777931D01*
X111484869Y-81795442D01*
X111499184Y-81995580D01*
X111499500Y-82004427D01*
X111499500Y-92995572D01*
X111499184Y-93004419D01*
X111484869Y-93204557D01*
X111482351Y-93222068D01*
X111440646Y-93413787D01*
X111435662Y-93430763D01*
X111367090Y-93614609D01*
X111359740Y-93630701D01*
X111265711Y-93802904D01*
X111256146Y-93817789D01*
X111138558Y-93974867D01*
X111126972Y-93988237D01*
X110988237Y-94126972D01*
X110974867Y-94138558D01*
X110817789Y-94256146D01*
X110802904Y-94265711D01*
X110630701Y-94359740D01*
X110614609Y-94367090D01*
X110430763Y-94435662D01*
X110413787Y-94440646D01*
X110222068Y-94482351D01*
X110204557Y-94484869D01*
X110023779Y-94497799D01*
X110004417Y-94499184D01*
X109995572Y-94499500D01*
X99004428Y-94499500D01*
X98995582Y-94499184D01*
X98973622Y-94497613D01*
X98795442Y-94484869D01*
X98777931Y-94482351D01*
X98586212Y-94440646D01*
X98569236Y-94435662D01*
X98385390Y-94367090D01*
X98369298Y-94359740D01*
X98197095Y-94265711D01*
X98182210Y-94256146D01*
X98025132Y-94138558D01*
X98011762Y-94126972D01*
X97873027Y-93988237D01*
X97861441Y-93974867D01*
X97743849Y-93817784D01*
X97734288Y-93802904D01*
X97640259Y-93630701D01*
X97632909Y-93614609D01*
X97628503Y-93602795D01*
X97564334Y-93430755D01*
X97559355Y-93413797D01*
X97517647Y-93222063D01*
X97515130Y-93204556D01*
X97500816Y-93004418D01*
X97500500Y-92995572D01*
X97500500Y-91199983D01*
X98274500Y-91199983D01*
X98274500Y-93500001D01*
X98274501Y-93500018D01*
X98285000Y-93602796D01*
X98285001Y-93602799D01*
X98288915Y-93614609D01*
X98340186Y-93769334D01*
X98432288Y-93918656D01*
X98556344Y-94042712D01*
X98705666Y-94134814D01*
X98872203Y-94189999D01*
X98974991Y-94200500D01*
X99575008Y-94200499D01*
X99575016Y-94200498D01*
X99575019Y-94200498D01*
X99631302Y-94194748D01*
X99677797Y-94189999D01*
X99844334Y-94134814D01*
X99993656Y-94042712D01*
X100117712Y-93918656D01*
X100209814Y-93769334D01*
X100264999Y-93602797D01*
X100275500Y-93500009D01*
X100275499Y-91199992D01*
X100275498Y-91199983D01*
X105724500Y-91199983D01*
X105724500Y-93500001D01*
X105724501Y-93500018D01*
X105735000Y-93602796D01*
X105735001Y-93602799D01*
X105738915Y-93614609D01*
X105790186Y-93769334D01*
X105882288Y-93918656D01*
X106006344Y-94042712D01*
X106155666Y-94134814D01*
X106322203Y-94189999D01*
X106424991Y-94200500D01*
X107025008Y-94200499D01*
X107025016Y-94200498D01*
X107025019Y-94200498D01*
X107081302Y-94194748D01*
X107127797Y-94189999D01*
X107294334Y-94134814D01*
X107443656Y-94042712D01*
X107567712Y-93918656D01*
X107659814Y-93769334D01*
X107714999Y-93602797D01*
X107725500Y-93500009D01*
X107725499Y-91199992D01*
X107714999Y-91097203D01*
X107659814Y-90930666D01*
X107567712Y-90781344D01*
X107443656Y-90657288D01*
X107294334Y-90565186D01*
X107127797Y-90510001D01*
X107127795Y-90510000D01*
X107025010Y-90499500D01*
X106424998Y-90499500D01*
X106424980Y-90499501D01*
X106322203Y-90510000D01*
X106322200Y-90510001D01*
X106155668Y-90565185D01*
X106155663Y-90565187D01*
X106006342Y-90657289D01*
X105882289Y-90781342D01*
X105790187Y-90930663D01*
X105790186Y-90930666D01*
X105735001Y-91097203D01*
X105735001Y-91097204D01*
X105735000Y-91097204D01*
X105724500Y-91199983D01*
X100275498Y-91199983D01*
X100264999Y-91097203D01*
X100209814Y-90930666D01*
X100117712Y-90781344D01*
X99993656Y-90657288D01*
X99844334Y-90565186D01*
X99677797Y-90510001D01*
X99677795Y-90510000D01*
X99575010Y-90499500D01*
X98974998Y-90499500D01*
X98974980Y-90499501D01*
X98872203Y-90510000D01*
X98872200Y-90510001D01*
X98705668Y-90565185D01*
X98705663Y-90565187D01*
X98556342Y-90657289D01*
X98432289Y-90781342D01*
X98340187Y-90930663D01*
X98340186Y-90930666D01*
X98285001Y-91097203D01*
X98285001Y-91097204D01*
X98285000Y-91097204D01*
X98274500Y-91199983D01*
X97500500Y-91199983D01*
X97500500Y-88384298D01*
X100324500Y-88384298D01*
X100324500Y-89915701D01*
X100327401Y-89952567D01*
X100327402Y-89952573D01*
X100373254Y-90110393D01*
X100373255Y-90110396D01*
X100456917Y-90251862D01*
X100456923Y-90251870D01*
X100573129Y-90368076D01*
X100573133Y-90368079D01*
X100573135Y-90368081D01*
X100714602Y-90451744D01*
X100756224Y-90463836D01*
X100872426Y-90497597D01*
X100872429Y-90497597D01*
X100872431Y-90497598D01*
X100909306Y-90500500D01*
X100909314Y-90500500D01*
X101340686Y-90500500D01*
X101340694Y-90500500D01*
X101377569Y-90497598D01*
X101377571Y-90497597D01*
X101377573Y-90497597D01*
X101419191Y-90485505D01*
X101535398Y-90451744D01*
X101660048Y-90378026D01*
X101683580Y-90364110D01*
X101684747Y-90366083D01*
X101739035Y-90344769D01*
X101807553Y-90358448D01*
X101816404Y-90364136D01*
X101816420Y-90364110D01*
X101857034Y-90388128D01*
X101964602Y-90451744D01*
X102006224Y-90463836D01*
X102122426Y-90497597D01*
X102122429Y-90497597D01*
X102122431Y-90497598D01*
X102159306Y-90500500D01*
X102159314Y-90500500D01*
X102590686Y-90500500D01*
X102590694Y-90500500D01*
X102627569Y-90497598D01*
X102627571Y-90497597D01*
X102627573Y-90497597D01*
X102669191Y-90485505D01*
X102785398Y-90451744D01*
X102910048Y-90378026D01*
X102933580Y-90364110D01*
X102934747Y-90366083D01*
X102989035Y-90344769D01*
X103057553Y-90358448D01*
X103066404Y-90364136D01*
X103066420Y-90364110D01*
X103107034Y-90388128D01*
X103214602Y-90451744D01*
X103256224Y-90463836D01*
X103372426Y-90497597D01*
X103372429Y-90497597D01*
X103372431Y-90497598D01*
X103409306Y-90500500D01*
X103409314Y-90500500D01*
X103840686Y-90500500D01*
X103840694Y-90500500D01*
X103877569Y-90497598D01*
X103877571Y-90497597D01*
X103877573Y-90497597D01*
X103919191Y-90485505D01*
X104035398Y-90451744D01*
X104160048Y-90378026D01*
X104183580Y-90364110D01*
X104184673Y-90365959D01*
X104239425Y-90344452D01*
X104307945Y-90358120D01*
X104316706Y-90363749D01*
X104316729Y-90363712D01*
X104464801Y-90451281D01*
X104622514Y-90497100D01*
X104622511Y-90497100D01*
X104624998Y-90497295D01*
X104625000Y-90497295D01*
X105125000Y-90497295D01*
X105125001Y-90497295D01*
X105127486Y-90497100D01*
X105285198Y-90451281D01*
X105426552Y-90367685D01*
X105426561Y-90367678D01*
X105542678Y-90251561D01*
X105542685Y-90251552D01*
X105626282Y-90110196D01*
X105626283Y-90110193D01*
X105672099Y-89952495D01*
X105672100Y-89952489D01*
X105674999Y-89915649D01*
X105675000Y-89915634D01*
X105675000Y-89400000D01*
X105125000Y-89400000D01*
X105125000Y-90497295D01*
X104625000Y-90497295D01*
X104625000Y-89274000D01*
X104644685Y-89206961D01*
X104697489Y-89161206D01*
X104749000Y-89150000D01*
X104875000Y-89150000D01*
X104875000Y-89024000D01*
X104894685Y-88956961D01*
X104947489Y-88911206D01*
X104999000Y-88900000D01*
X105675000Y-88900000D01*
X105675000Y-88384365D01*
X105674999Y-88384350D01*
X105672100Y-88347510D01*
X105672099Y-88347504D01*
X105626283Y-88189806D01*
X105626282Y-88189803D01*
X105565852Y-88087621D01*
X105548669Y-88019897D01*
X105570829Y-87953635D01*
X105625295Y-87909871D01*
X105672584Y-87900500D01*
X107064071Y-87900500D01*
X107148615Y-87883682D01*
X107189744Y-87875501D01*
X107308127Y-87826465D01*
X107326679Y-87814069D01*
X107414669Y-87755277D01*
X108642777Y-86527169D01*
X108713965Y-86420627D01*
X108763001Y-86302244D01*
X108763002Y-86302236D01*
X108763004Y-86302232D01*
X108763029Y-86302106D01*
X108788000Y-86176571D01*
X108788000Y-85830405D01*
X108807685Y-85763366D01*
X108860489Y-85717611D01*
X108877401Y-85711330D01*
X108910398Y-85701744D01*
X109051865Y-85618081D01*
X109168081Y-85501865D01*
X109251744Y-85360398D01*
X109297598Y-85202569D01*
X109300500Y-85165694D01*
X109300500Y-84734306D01*
X109297598Y-84697431D01*
X109251744Y-84539602D01*
X109250574Y-84537624D01*
X109250130Y-84535874D01*
X109248647Y-84532446D01*
X109249200Y-84532206D01*
X109233396Y-84469901D01*
X109248753Y-84417603D01*
X109248184Y-84417357D01*
X109250182Y-84412738D01*
X109250581Y-84411382D01*
X109251281Y-84410197D01*
X109297100Y-84252486D01*
X109297295Y-84250001D01*
X109297295Y-84250000D01*
X109031815Y-84250000D01*
X108968694Y-84232732D01*
X108910396Y-84198255D01*
X108910393Y-84198254D01*
X108752573Y-84152402D01*
X108752567Y-84152401D01*
X108715701Y-84149500D01*
X108715694Y-84149500D01*
X108261500Y-84149500D01*
X108252814Y-84146949D01*
X108243853Y-84148238D01*
X108219812Y-84137259D01*
X108194461Y-84129815D01*
X108188533Y-84122974D01*
X108180297Y-84119213D01*
X108166007Y-84096978D01*
X108148706Y-84077011D01*
X108146418Y-84066496D01*
X108142523Y-84060435D01*
X108137500Y-84025500D01*
X108137500Y-83974500D01*
X108157185Y-83907461D01*
X108209989Y-83861706D01*
X108261500Y-83850500D01*
X108715686Y-83850500D01*
X108715694Y-83850500D01*
X108752569Y-83847598D01*
X108752571Y-83847597D01*
X108752573Y-83847597D01*
X108794191Y-83835505D01*
X108910398Y-83801744D01*
X108968694Y-83767268D01*
X108984595Y-83762917D01*
X108996880Y-83755023D01*
X109031815Y-83750000D01*
X109094317Y-83750000D01*
X109161356Y-83769685D01*
X109163146Y-83770857D01*
X109220821Y-83809394D01*
X109220823Y-83809395D01*
X109220827Y-83809397D01*
X109320060Y-83850500D01*
X109366503Y-83869737D01*
X109521153Y-83900499D01*
X109521156Y-83900500D01*
X109521158Y-83900500D01*
X109678844Y-83900500D01*
X109678845Y-83900499D01*
X109833497Y-83869737D01*
X109979179Y-83809394D01*
X110110289Y-83721789D01*
X110221789Y-83610289D01*
X110309394Y-83479179D01*
X110369737Y-83333497D01*
X110400500Y-83178842D01*
X110400500Y-83021158D01*
X110400500Y-83021155D01*
X110400499Y-83021153D01*
X110369738Y-82866510D01*
X110369737Y-82866503D01*
X110356401Y-82834306D01*
X110309397Y-82720827D01*
X110309390Y-82720814D01*
X110221789Y-82589711D01*
X110221786Y-82589707D01*
X110110292Y-82478213D01*
X110110288Y-82478210D01*
X109979185Y-82390609D01*
X109979172Y-82390602D01*
X109833501Y-82330264D01*
X109833489Y-82330261D01*
X109678845Y-82299500D01*
X109678842Y-82299500D01*
X109521158Y-82299500D01*
X109521155Y-82299500D01*
X109366510Y-82330261D01*
X109366498Y-82330264D01*
X109220827Y-82390602D01*
X109220811Y-82390611D01*
X109209354Y-82398266D01*
X109142675Y-82419140D01*
X109076158Y-82401179D01*
X109063364Y-82393418D01*
X109051865Y-82381919D01*
X108910398Y-82298256D01*
X108902886Y-82296073D01*
X108889473Y-82287937D01*
X108871414Y-82268157D01*
X108850826Y-82251024D01*
X108848215Y-82242747D01*
X108842364Y-82236338D01*
X108837865Y-82209934D01*
X108829809Y-82184391D01*
X108832057Y-82175838D01*
X108830630Y-82167461D01*
X108840119Y-82145168D01*
X108847052Y-82118797D01*
X108887031Y-82051195D01*
X108887033Y-82051190D01*
X108932144Y-81895918D01*
X108932145Y-81895912D01*
X108933790Y-81875000D01*
X108279000Y-81875000D01*
X108211961Y-81855315D01*
X108166206Y-81802511D01*
X108155000Y-81751000D01*
X108155000Y-81625000D01*
X108099500Y-81625000D01*
X108032461Y-81605315D01*
X107986706Y-81552511D01*
X107975500Y-81501000D01*
X107975500Y-81390317D01*
X107975499Y-81390302D01*
X107975299Y-81387763D01*
X107972643Y-81354007D01*
X107968714Y-81340484D01*
X107927495Y-81198608D01*
X107927492Y-81198600D01*
X107922266Y-81189763D01*
X107905000Y-81126645D01*
X107905000Y-80820494D01*
X108405000Y-80820494D01*
X108405000Y-81375000D01*
X108933790Y-81375000D01*
X108932145Y-81354089D01*
X108887031Y-81198804D01*
X108804721Y-81059625D01*
X108804714Y-81059616D01*
X108690383Y-80945285D01*
X108690374Y-80945278D01*
X108551193Y-80862967D01*
X108551190Y-80862965D01*
X108405001Y-80820493D01*
X108405000Y-80820494D01*
X107905000Y-80820494D01*
X107904998Y-80820493D01*
X107758809Y-80862965D01*
X107758806Y-80862967D01*
X107738608Y-80874912D01*
X107670884Y-80892092D01*
X107612370Y-80874910D01*
X107591397Y-80862507D01*
X107591390Y-80862504D01*
X107435997Y-80817357D01*
X107435991Y-80817356D01*
X107399697Y-80814500D01*
X107399690Y-80814500D01*
X106990310Y-80814500D01*
X106990302Y-80814500D01*
X106954008Y-80817356D01*
X106954002Y-80817357D01*
X106798609Y-80862504D01*
X106798606Y-80862505D01*
X106659315Y-80944881D01*
X106654676Y-80948480D01*
X106589639Y-80974014D01*
X106578676Y-80974500D01*
X106330929Y-80974500D01*
X106205261Y-80999497D01*
X106205255Y-80999499D01*
X106160504Y-81018036D01*
X106086874Y-81048534D01*
X105980331Y-81119723D01*
X105759569Y-81340484D01*
X105698246Y-81373968D01*
X105696080Y-81374419D01*
X105629010Y-81387760D01*
X105629000Y-81387763D01*
X105483329Y-81448101D01*
X105483316Y-81448108D01*
X105352213Y-81535709D01*
X105352209Y-81535712D01*
X105240715Y-81647206D01*
X105240712Y-81647210D01*
X105153111Y-81778313D01*
X105153104Y-81778326D01*
X105092766Y-81923997D01*
X105092763Y-81924009D01*
X105062002Y-82078652D01*
X105062002Y-82242433D01*
X105059499Y-82242433D01*
X105048484Y-82300327D01*
X105001256Y-82350502D01*
X104948137Y-82381917D01*
X104948129Y-82381923D01*
X104831923Y-82498129D01*
X104831917Y-82498137D01*
X104748255Y-82639603D01*
X104748254Y-82639606D01*
X104702402Y-82797426D01*
X104702401Y-82797432D01*
X104699500Y-82834298D01*
X104699500Y-83265701D01*
X104702401Y-83302567D01*
X104702402Y-83302573D01*
X104748254Y-83460393D01*
X104748254Y-83460394D01*
X104748255Y-83460396D01*
X104748256Y-83460398D01*
X104749133Y-83461881D01*
X104749466Y-83463195D01*
X104751353Y-83467554D01*
X104750649Y-83467858D01*
X104766315Y-83529604D01*
X104750861Y-83582233D01*
X104751353Y-83582446D01*
X104749630Y-83586426D01*
X104749133Y-83588118D01*
X104748506Y-83589177D01*
X104748254Y-83589605D01*
X104748254Y-83589606D01*
X104702402Y-83747426D01*
X104702401Y-83747432D01*
X104699500Y-83784298D01*
X104699500Y-84215701D01*
X104702401Y-84252567D01*
X104702402Y-84252573D01*
X104748254Y-84410393D01*
X104748254Y-84410394D01*
X104748255Y-84410396D01*
X104748256Y-84410398D01*
X104749133Y-84411881D01*
X104749466Y-84413195D01*
X104751353Y-84417554D01*
X104750649Y-84417858D01*
X104766315Y-84479604D01*
X104750861Y-84532233D01*
X104751353Y-84532446D01*
X104749630Y-84536426D01*
X104749133Y-84538118D01*
X104748506Y-84539177D01*
X104748254Y-84539605D01*
X104748254Y-84539606D01*
X104702402Y-84697426D01*
X104702401Y-84697432D01*
X104699500Y-84734298D01*
X104699500Y-85165701D01*
X104702401Y-85202567D01*
X104702402Y-85202573D01*
X104748254Y-85360393D01*
X104748254Y-85360394D01*
X104748255Y-85360396D01*
X104748256Y-85360398D01*
X104778998Y-85412380D01*
X104796180Y-85480104D01*
X104774019Y-85546366D01*
X104719553Y-85590129D01*
X104672265Y-85599500D01*
X103935929Y-85599500D01*
X103810261Y-85624497D01*
X103810255Y-85624499D01*
X103691874Y-85673534D01*
X103585326Y-85744726D01*
X102066169Y-87263883D01*
X102004846Y-87297368D01*
X101935154Y-87292384D01*
X101879221Y-87250512D01*
X101875388Y-87245096D01*
X101871790Y-87239712D01*
X101871786Y-87239707D01*
X101760292Y-87128213D01*
X101760288Y-87128210D01*
X101629185Y-87040609D01*
X101629172Y-87040602D01*
X101483501Y-86980264D01*
X101483489Y-86980261D01*
X101328845Y-86949500D01*
X101328842Y-86949500D01*
X101171158Y-86949500D01*
X101171155Y-86949500D01*
X101016510Y-86980261D01*
X101016498Y-86980264D01*
X100870827Y-87040602D01*
X100870814Y-87040609D01*
X100739711Y-87128210D01*
X100739707Y-87128213D01*
X100628213Y-87239707D01*
X100628210Y-87239711D01*
X100540609Y-87370814D01*
X100540602Y-87370827D01*
X100480264Y-87516498D01*
X100480261Y-87516510D01*
X100449500Y-87671153D01*
X100449500Y-87828846D01*
X100474758Y-87955826D01*
X100468531Y-88025417D01*
X100459874Y-88043137D01*
X100373254Y-88189605D01*
X100373254Y-88189606D01*
X100327402Y-88347426D01*
X100327401Y-88347432D01*
X100324500Y-88384298D01*
X97500500Y-88384298D01*
X97500500Y-83878711D01*
X99149500Y-83878711D01*
X99149500Y-84121288D01*
X99181161Y-84361785D01*
X99243947Y-84596104D01*
X99336773Y-84820205D01*
X99336776Y-84820212D01*
X99458064Y-85030289D01*
X99458066Y-85030292D01*
X99458067Y-85030293D01*
X99605733Y-85222736D01*
X99605739Y-85222743D01*
X99777256Y-85394260D01*
X99777262Y-85394265D01*
X99969711Y-85541936D01*
X100179788Y-85663224D01*
X100403900Y-85756054D01*
X100638211Y-85818838D01*
X100818586Y-85842584D01*
X100878711Y-85850500D01*
X100878712Y-85850500D01*
X101121289Y-85850500D01*
X101177847Y-85843054D01*
X101361789Y-85818838D01*
X101596100Y-85756054D01*
X101820212Y-85663224D01*
X102030289Y-85541936D01*
X102222738Y-85394265D01*
X102394265Y-85222738D01*
X102541936Y-85030289D01*
X102663224Y-84820212D01*
X102756054Y-84596100D01*
X102818838Y-84361789D01*
X102850500Y-84121288D01*
X102850500Y-83878712D01*
X102849318Y-83869737D01*
X102836306Y-83770898D01*
X102818838Y-83638211D01*
X102756054Y-83403900D01*
X102663224Y-83179788D01*
X102541936Y-82969711D01*
X102409741Y-82797431D01*
X102394266Y-82777263D01*
X102394260Y-82777256D01*
X102222743Y-82605739D01*
X102222736Y-82605733D01*
X102030293Y-82458067D01*
X102030292Y-82458066D01*
X102030289Y-82458064D01*
X101820212Y-82336776D01*
X101804491Y-82330264D01*
X101596104Y-82243947D01*
X101397336Y-82190687D01*
X101361789Y-82181162D01*
X101361788Y-82181161D01*
X101361785Y-82181161D01*
X101121289Y-82149500D01*
X101121288Y-82149500D01*
X100878712Y-82149500D01*
X100878711Y-82149500D01*
X100638214Y-82181161D01*
X100403895Y-82243947D01*
X100179794Y-82336773D01*
X100179785Y-82336777D01*
X99969706Y-82458067D01*
X99777263Y-82605733D01*
X99777256Y-82605739D01*
X99605739Y-82777256D01*
X99605733Y-82777263D01*
X99458067Y-82969706D01*
X99336777Y-83179785D01*
X99336773Y-83179794D01*
X99243947Y-83403895D01*
X99181161Y-83638214D01*
X99149500Y-83878711D01*
X97500500Y-83878711D01*
X97500500Y-82004427D01*
X97500816Y-81995581D01*
X97505935Y-81924009D01*
X97515131Y-81795434D01*
X97517646Y-81777938D01*
X97559356Y-81586199D01*
X97564333Y-81569248D01*
X97632911Y-81385385D01*
X97640259Y-81369298D01*
X97648611Y-81354002D01*
X97734291Y-81197089D01*
X97743845Y-81182221D01*
X97861448Y-81025123D01*
X97873020Y-81011769D01*
X98011769Y-80873020D01*
X98025123Y-80861448D01*
X98182221Y-80743845D01*
X98197089Y-80734291D01*
X98369298Y-80640258D01*
X98385385Y-80632911D01*
X98569248Y-80564333D01*
X98586199Y-80559356D01*
X98777938Y-80517646D01*
X98795436Y-80515130D01*
X98995582Y-80500816D01*
X99004428Y-80500500D01*
X99065892Y-80500500D01*
X109934108Y-80500500D01*
X109995572Y-80500500D01*
X110004418Y-80500816D01*
G37*
%TD.AperFunction*%
%TD*%
M02*
