0
SECTION
2
HEADER
9
$INSUNITS
70
4
9
$ACADVER
1
AC1014
9
$HANDSEED
5
FFFF
0
ENDSEC
0
SECTION
2
TABLES
0
TABLE
2
VPORT
5
8
100
AcDbSymbolTable
0
ENDTAB
0
TABLE
2
LTYPE
5
5
100
AcDbSymbolTable
0
LTYPE
5
14
100
AcDbSymbolTableRecord
100
AcDbLinetypeTableRecord
2
BYBLOCK
70
0
0
LTYPE
5
15
100
AcDbSymbolTableRecord
100
AcDbLinetypeTableRecord
2
BYLAYER
70
0
0
LTYPE
5
16
100
AcDbSymbolTableRecord
100
AcDbLinetypeTableRecord
2
DASHED
70
0
3
Dashed __ __ __ __ __ __ __ __ __ __ __ __ __ _
72
65
73
2
40
0.75
49
0.5
74
0
49
-0.25
74
0
0
ENDTAB
0
TABLE
2
LAYER
5
2
100
AcDbSymbolTable
70
2
0
LAYER
5
50
100
AcDbSymbolTableRecord
100
AcDbLayerTableRecord
2
0
70
0
62
7
6
CONTINUOUS
0
ENDTAB
0
TABLE
2
STYLE
5
3
100
AcDbSymbolTable
70
1
0
STYLE
5
11
100
AcDbSymbolTableRecord
100
AcDbTextStyleTableRecord
2
STANDARD
70
0
0
ENDTAB
0
TABLE
2
VIEW
5
6
100
AcDbSymbolTable
70
0
0
ENDTAB
0
TABLE
2
UCS
5
7
100
AcDbSymbolTable
70
0
0
ENDTAB
0
TABLE
2
APPID
5
9
100
AcDbSymbolTable
70
2
0
APPID
5
12
100
AcDbSymbolTableRecord
100
AcDbRegAppTableRecord
2
ACAD
70
0
0
ENDTAB
0
TABLE
2
DIMSTYLE
5
A
100
AcDbSymbolTable
70
1
0
ENDTAB
0
TABLE
2
BLOCK_RECORD
5
1
100
AcDbSymbolTable
70
1
0
BLOCK_RECORD
5
1F
100
AcDbSymbolTableRecord
100
AcDbBlockTableRecord
2
*MODEL_SPACE
0
BLOCK_RECORD
5
1B
100
AcDbSymbolTableRecord
100
AcDbBlockTableRecord
2
*PAPER_SPACE
0
ENDTAB
0
ENDSEC
0
SECTION
2
BLOCKS
0
BLOCK
5
20
100
AcDbEntity
100
AcDbBlockBegin
2
*MODEL_SPACE
0
ENDBLK
5
21
100
AcDbEntity
100
AcDbBlockEnd
0
BLOCK
5
1C
100
AcDbEntity
100
AcDbBlockBegin
2
*PAPER_SPACE
0
ENDBLK
5
1D
100
AcDbEntity
100
AcDbBlockEnd
0
ENDSEC
0
SECTION
2
ENTITIES
0
POINT
5
100
100
AcDbEntity
8
0
100
AcDbPoint
10
37.875833210583934
20
-40.277886550379947
30
1.1102230246251565e-14
0
POINT
5
101
100
AcDbEntity
8
0
100
AcDbPoint
10
-13.424166789416098
20
-40.277886550379563
30
1.27675647831893e-14
0
POINT
5
102
100
AcDbEntity
8
0
100
AcDbPoint
10
37.875833210583927
20
-40.86788655037995
30
1.1657341758564144e-14
0
POINT
5
103
100
AcDbEntity
8
0
100
AcDbPoint
10
37.875833210583934
20
-40.277886550379947
30
1.1102230246251565e-14
0
POINT
5
104
100
AcDbEntity
8
0
100
AcDbPoint
10
37.875833210583906
20
-45.357886550379945
30
1.27675647831893e-14
0
POINT
5
105
100
AcDbEntity
8
0
100
AcDbPoint
10
37.875833210583906
20
-44.767886550379934
30
1.27675647831893e-14
0
POINT
5
106
100
AcDbEntity
8
0
100
AcDbPoint
10
-13.424166789416104
20
-40.867886550379566
30
1.27675647831893e-14
0
POINT
5
107
100
AcDbEntity
8
0
100
AcDbPoint
10
-13.42416678941613
20
-44.767886550379565
30
1.3877787807814457e-14
0
POINT
5
108
100
AcDbEntity
8
0
100
AcDbPoint
10
-13.424166789416134
20
-45.357886550379561
30
1.4432899320127035e-14
0
POINT
5
109
100
AcDbEntity
8
0
100
AcDbPoint
10
-13.424166789416098
20
-40.277886550379577
30
1.27675647831893e-14
0
LWPOLYLINE
5
110
100
AcDbEntity
8
0
100
AcDbPolyline
90
18
70
1
43
0.0
10
-20.274166789416093
20
-45.817886550379747
42
0.41421356237309825
10
-17.274166789416093
20
-48.81788655037974
10
41.725833210583893
20
-48.81788655037974
42
0.41421356237309936
10
44.7258332105839
20
-45.81788655037974
10
44.725833210583886
20
-40.499999999975991
42
-0.41421356237306989
10
47.72583321058363
20
-37.499999999975991
10
55.999999999999979
20
-37.499999999975252
42
0.41421350000075985
10
59.999999999989981
20
-33.499999999975259
10
59.999999999999964
20
33.500000000024734
42
0.4142134999934336
10
55.999999999999972
20
37.499999999934708
10
-55.999999999999979
20
37.500000000024684
42
0.41421349999343554
10
-60.000000000090026
20
33.500000000024677
10
-59.999999999999943
20
29.725082807694566
10
-59.999999999999943
20
-29.725082807745217
10
-59.999999999999943
20
-33.499999574075282
42
0.41421353118655541
10
-55.999999999999986
20
-37.499999999985278
10
-23.274166789416366
20
-37.499999999982343
42
-0.41421356237312101
10
-20.2741667894161
20
-40.499999999982343
0
CIRCLE
5
111
100
AcDbEntity
8
0
100
AcDbCircle
10
55.999999999999972
20
33.500000000024734
30
0
40
1.6002000000000027
210
0
220
-0
230
1
0
CIRCLE
5
112
100
AcDbEntity
8
0
100
AcDbCircle
10
-55.999999999999972
20
-33.499999999975302
30
0
40
1.6002000000000027
210
0
220
-0
230
1
0
CIRCLE
5
113
100
AcDbEntity
8
0
100
AcDbCircle
10
55.999999999999986
20
-33.499999999975259
30
0
40
1.6002000000000027
210
0
220
-0
230
1
0
CIRCLE
5
114
100
AcDbEntity
8
0
100
AcDbCircle
10
-55.999999999999986
20
33.500000000024677
30
0
40
1.6002000000000027
210
0
220
-0
230
1
0
LWPOLYLINE
5
115
100
AcDbEntity
8
0
100
AcDbPolyline
90
2
70
1
43
0.0
10
37.875833210583934
20
-40.277886550379947
10
-13.424166789416097
20
-40.277886550379577
0
LWPOLYLINE
5
116
100
AcDbEntity
8
0
100
AcDbPolyline
90
4
70
1
43
0.0
10
37.875833210583906
20
-44.767886550379934
10
37.875833210583927
20
-40.867886550379936
10
37.875833210583934
20
-40.277886550379947
10
37.875833210583906
20
-45.357886550379938
0
LWPOLYLINE
5
117
100
AcDbEntity
8
0
100
AcDbPolyline
90
4
70
1
43
0.0
10
-13.424166789416097
20
-40.277886550379577
10
-13.424166789416104
20
-40.867886550379566
10
-13.424166789416132
20
-44.767886550379565
10
-13.424166789416134
20
-45.357886550379561
0
LWPOLYLINE
5
118
100
AcDbEntity
8
0
100
AcDbPolyline
90
8
70
1
43
0.0
10
-54.999999999999943
20
28.091672582077891
10
-54.999999999999943
20
-28.091672582128567
42
-0.31074099021464047
10
-50.591672582143318
20
-32.499999999984787
10
50.591673086803908
20
-32.499999999975763
42
-0.31074094703720817
10
54.999999999999943
20
-28.091673086779302
10
54.999999999999993
20
28.091672582077926
42
-0.31074099021488932
10
50.591672582142415
20
32.499999999939014
10
-50.591672582127345
20
32.500000000020343
42
-0.31074099021900836
0
ENDSEC
0
SECTION
2
OBJECTS
0
DICTIONARY
5
C
100
AcDbDictionary
3
ACAD_GROUP
350
D
3
ACAD_MLINESTYLE
350
17
0
DICTIONARY
5
D
100
AcDbDictionary
0
DICTIONARY
5
1A
330
C
100
AcDbDictionary
0
DICTIONARY
5
17
100
AcDbDictionary
0
ENDSEC
0
EOF
